0
SECTION
2
HEADER
9
$INSUNITS
70
4
0
ENDSEC
0
SECTION
2
TABLES
0
TABLE
2
LTYPE
0
LTYPE
72
65
70
64
2
CONTINUOUS
3
______
73
0
40
0
0
ENDTAB
0
TABLE
2
LAYER
0
ENDTAB
0
ENDSEC
0
SECTION
2
ENTITIES
0
LINE
8
front_outsideCutPath
10
0
20
138
11
0
21
121.125
0
LINE
8
front_outsideCutPath
10
0
20
121.125
11
3
21
121.125
0
LINE
8
front_outsideCutPath
10
3
20
121.125
11
3
21
100.875
0
LINE
8
front_outsideCutPath
10
3
20
100.875
11
0
21
100.875
0
LINE
8
front_outsideCutPath
10
0
20
100.875
11
0
21
80.625
0
LINE
8
front_outsideCutPath
10
0
20
80.625
11
3
21
80.625
0
LINE
8
front_outsideCutPath
10
3
20
80.625
11
3
21
60.375
0
LINE
8
front_outsideCutPath
10
3
20
60.375
11
0
21
60.375
0
LINE
8
front_outsideCutPath
10
0
20
60.375
11
0
21
40.125
0
LINE
8
front_outsideCutPath
10
0
20
40.125
11
3
21
40.125
0
LINE
8
front_outsideCutPath
10
3
20
40.125
11
3
21
19.875
0
LINE
8
front_outsideCutPath
10
3
20
19.875
11
0
21
19.875
0
LINE
8
front_outsideCutPath
10
0
20
19.875
11
0
21
3
0
LINE
8
front_outsideCutPath
10
0
20
3
11
23.125
21
3
0
LINE
8
front_outsideCutPath
10
23.125
20
3
11
23.125
21
6
0
LINE
8
front_outsideCutPath
10
23.125
20
6
11
43.375
21
6
0
LINE
8
front_outsideCutPath
10
43.375
20
6
11
43.375
21
3
0
LINE
8
front_outsideCutPath
10
43.375
20
3
11
63.625
21
3
0
LINE
8
front_outsideCutPath
10
63.625
20
3
11
63.625
21
6
0
LINE
8
front_outsideCutPath
10
63.625
20
6
11
83.875
21
6
0
LINE
8
front_outsideCutPath
10
83.875
20
6
11
83.875
21
3
0
LINE
8
front_outsideCutPath
10
83.875
20
3
11
104.125
21
3
0
LINE
8
front_outsideCutPath
10
104.125
20
3
11
104.125
21
6
0
LINE
8
front_outsideCutPath
10
104.125
20
6
11
124.375
21
6
0
LINE
8
front_outsideCutPath
10
124.375
20
6
11
124.375
21
3
0
LINE
8
front_outsideCutPath
10
124.375
20
3
11
144.625
21
3
0
LINE
8
front_outsideCutPath
10
144.625
20
3
11
144.625
21
6
0
LINE
8
front_outsideCutPath
10
144.625
20
6
11
164.875
21
6
0
LINE
8
front_outsideCutPath
10
164.875
20
6
11
164.875
21
3
0
LINE
8
front_outsideCutPath
10
164.875
20
3
11
185.125
21
3
0
LINE
8
front_outsideCutPath
10
185.125
20
3
11
185.125
21
6
0
LINE
8
front_outsideCutPath
10
185.125
20
6
11
205.375
21
6
0
LINE
8
front_outsideCutPath
10
205.375
20
6
11
205.375
21
3
0
LINE
8
front_outsideCutPath
10
205.375
20
3
11
225.625
21
3
0
LINE
8
front_outsideCutPath
10
225.625
20
3
11
225.625
21
6
0
LINE
8
front_outsideCutPath
10
225.625
20
6
11
245.875
21
6
0
LINE
8
front_outsideCutPath
10
245.875
20
6
11
245.875
21
3
0
LINE
8
front_outsideCutPath
10
245.875
20
3
11
266.125
21
3
0
LINE
8
front_outsideCutPath
10
266.125
20
3
11
266.125
21
6
0
LINE
8
front_outsideCutPath
10
266.125
20
6
11
286.375
21
6
0
LINE
8
front_outsideCutPath
10
286.375
20
6
11
286.375
21
3
0
LINE
8
front_outsideCutPath
10
286.375
20
3
11
306.625
21
3
0
LINE
8
front_outsideCutPath
10
306.625
20
3
11
306.625
21
6
0
LINE
8
front_outsideCutPath
10
306.625
20
6
11
326.875
21
6
0
LINE
8
front_outsideCutPath
10
326.875
20
6
11
326.875
21
3
0
LINE
8
front_outsideCutPath
10
326.875
20
3
11
350
21
3
0
LINE
8
front_outsideCutPath
10
350
20
3
11
350
21
19.875
0
LINE
8
front_outsideCutPath
10
350
20
19.875
11
347
21
19.875
0
LINE
8
front_outsideCutPath
10
347
20
19.875
11
347
21
40.125
0
LINE
8
front_outsideCutPath
10
347
20
40.125
11
350
21
40.125
0
LINE
8
front_outsideCutPath
10
350
20
40.125
11
350
21
60.375
0
LINE
8
front_outsideCutPath
10
350
20
60.375
11
347
21
60.375
0
LINE
8
front_outsideCutPath
10
347
20
60.375
11
347
21
80.625
0
LINE
8
front_outsideCutPath
10
347
20
80.625
11
350
21
80.625
0
LINE
8
front_outsideCutPath
10
350
20
80.625
11
350
21
100.875
0
LINE
8
front_outsideCutPath
10
350
20
100.875
11
347
21
100.875
0
LINE
8
front_outsideCutPath
10
347
20
100.875
11
347
21
121.125
0
LINE
8
front_outsideCutPath
10
347
20
121.125
11
350
21
121.125
0
LINE
8
front_outsideCutPath
10
350
20
121.125
11
350
21
138
0
LINE
8
front_outsideCutPath
10
350
20
138
11
0
21
138
0
LINE
8
left_outsideCutPath
10
356
20
138
11
356
21
121.125
0
LINE
8
left_outsideCutPath
10
356
20
121.125
11
353
21
121.125
0
LINE
8
left_outsideCutPath
10
353
20
121.125
11
353
21
100.875
0
LINE
8
left_outsideCutPath
10
353
20
100.875
11
356
21
100.875
0
LINE
8
left_outsideCutPath
10
356
20
100.875
11
356
21
80.625
0
LINE
8
left_outsideCutPath
10
356
20
80.625
11
353
21
80.625
0
LINE
8
left_outsideCutPath
10
353
20
80.625
11
353
21
60.375
0
LINE
8
left_outsideCutPath
10
353
20
60.375
11
356
21
60.375
0
LINE
8
left_outsideCutPath
10
356
20
60.375
11
356
21
40.125
0
LINE
8
left_outsideCutPath
10
356
20
40.125
11
353
21
40.125
0
LINE
8
left_outsideCutPath
10
353
20
40.125
11
353
21
19.875
0
LINE
8
left_outsideCutPath
10
353
20
19.875
11
356
21
19.875
0
LINE
8
left_outsideCutPath
10
356
20
19.875
11
356
21
3
0
LINE
8
left_outsideCutPath
10
356
20
3
11
377.375
21
3
0
LINE
8
left_outsideCutPath
10
377.375
20
3
11
377.375
21
6
0
LINE
8
left_outsideCutPath
10
377.375
20
6
11
397.625
21
6
0
LINE
8
left_outsideCutPath
10
397.625
20
6
11
397.625
21
3
0
LINE
8
left_outsideCutPath
10
397.625
20
3
11
417.875
21
3
0
LINE
8
left_outsideCutPath
10
417.875
20
3
11
417.875
21
6
0
LINE
8
left_outsideCutPath
10
417.875
20
6
11
438.125
21
6
0
LINE
8
left_outsideCutPath
10
438.125
20
6
11
438.125
21
3
0
LINE
8
left_outsideCutPath
10
438.125
20
3
11
458.375
21
3
0
LINE
8
left_outsideCutPath
10
458.375
20
3
11
458.375
21
6
0
LINE
8
left_outsideCutPath
10
458.375
20
6
11
478.625
21
6
0
LINE
8
left_outsideCutPath
10
478.625
20
6
11
478.625
21
3
0
LINE
8
left_outsideCutPath
10
478.625
20
3
11
498.875
21
3
0
LINE
8
left_outsideCutPath
10
498.875
20
3
11
500
21
3
0
LINE
8
left_outsideCutPath
10
500
20
3
11
500
21
19.875
0
LINE
8
left_outsideCutPath
10
500
20
19.875
11
503
21
19.875
0
LINE
8
left_outsideCutPath
10
503
20
19.875
11
503
21
40.125
0
LINE
8
left_outsideCutPath
10
503
20
40.125
11
500
21
40.125
0
LINE
8
left_outsideCutPath
10
500
20
40.125
11
500
21
60.375
0
LINE
8
left_outsideCutPath
10
500
20
60.375
11
503
21
60.375
0
LINE
8
left_outsideCutPath
10
503
20
60.375
11
503
21
80.625
0
LINE
8
left_outsideCutPath
10
503
20
80.625
11
500
21
80.625
0
LINE
8
left_outsideCutPath
10
500
20
80.625
11
500
21
100.875
0
LINE
8
left_outsideCutPath
10
500
20
100.875
11
503
21
100.875
0
LINE
8
left_outsideCutPath
10
503
20
100.875
11
503
21
121.125
0
LINE
8
left_outsideCutPath
10
503
20
121.125
11
500
21
121.125
0
LINE
8
left_outsideCutPath
10
500
20
121.125
11
500
21
138
0
LINE
8
left_outsideCutPath
10
500
20
138
11
356
21
138
0
LINE
8
back_outsideCutPath
10
0
20
276
11
0
21
259.125
0
LINE
8
back_outsideCutPath
10
0
20
259.125
11
3
21
259.125
0
LINE
8
back_outsideCutPath
10
3
20
259.125
11
3
21
238.875
0
LINE
8
back_outsideCutPath
10
3
20
238.875
11
0
21
238.875
0
LINE
8
back_outsideCutPath
10
0
20
238.875
11
0
21
218.625
0
LINE
8
back_outsideCutPath
10
0
20
218.625
11
3
21
218.625
0
LINE
8
back_outsideCutPath
10
3
20
218.625
11
3
21
198.375
0
LINE
8
back_outsideCutPath
10
3
20
198.375
11
0
21
198.375
0
LINE
8
back_outsideCutPath
10
0
20
198.375
11
0
21
178.125
0
LINE
8
back_outsideCutPath
10
0
20
178.125
11
3
21
178.125
0
LINE
8
back_outsideCutPath
10
3
20
178.125
11
3
21
157.875
0
LINE
8
back_outsideCutPath
10
3
20
157.875
11
0
21
157.875
0
LINE
8
back_outsideCutPath
10
0
20
157.875
11
0
21
141
0
LINE
8
back_outsideCutPath
10
0
20
141
11
23.125
21
141
0
LINE
8
back_outsideCutPath
10
23.125
20
141
11
23.125
21
144
0
LINE
8
back_outsideCutPath
10
23.125
20
144
11
43.375
21
144
0
LINE
8
back_outsideCutPath
10
43.375
20
144
11
43.375
21
141
0
LINE
8
back_outsideCutPath
10
43.375
20
141
11
63.625
21
141
0
LINE
8
back_outsideCutPath
10
63.625
20
141
11
63.625
21
144
0
LINE
8
back_outsideCutPath
10
63.625
20
144
11
83.875
21
144
0
LINE
8
back_outsideCutPath
10
83.875
20
144
11
83.875
21
141
0
LINE
8
back_outsideCutPath
10
83.875
20
141
11
104.125
21
141
0
LINE
8
back_outsideCutPath
10
104.125
20
141
11
104.125
21
144
0
LINE
8
back_outsideCutPath
10
104.125
20
144
11
124.375
21
144
0
LINE
8
back_outsideCutPath
10
124.375
20
144
11
124.375
21
141
0
LINE
8
back_outsideCutPath
10
124.375
20
141
11
144.625
21
141
0
LINE
8
back_outsideCutPath
10
144.625
20
141
11
144.625
21
144
0
LINE
8
back_outsideCutPath
10
144.625
20
144
11
164.875
21
144
0
LINE
8
back_outsideCutPath
10
164.875
20
144
11
164.875
21
141
0
LINE
8
back_outsideCutPath
10
164.875
20
141
11
185.125
21
141
0
LINE
8
back_outsideCutPath
10
185.125
20
141
11
185.125
21
144
0
LINE
8
back_outsideCutPath
10
185.125
20
144
11
205.375
21
144
0
LINE
8
back_outsideCutPath
10
205.375
20
144
11
205.375
21
141
0
LINE
8
back_outsideCutPath
10
205.375
20
141
11
225.625
21
141
0
LINE
8
back_outsideCutPath
10
225.625
20
141
11
225.625
21
144
0
LINE
8
back_outsideCutPath
10
225.625
20
144
11
245.875
21
144
0
LINE
8
back_outsideCutPath
10
245.875
20
144
11
245.875
21
141
0
LINE
8
back_outsideCutPath
10
245.875
20
141
11
266.125
21
141
0
LINE
8
back_outsideCutPath
10
266.125
20
141
11
266.125
21
144
0
LINE
8
back_outsideCutPath
10
266.125
20
144
11
286.375
21
144
0
LINE
8
back_outsideCutPath
10
286.375
20
144
11
286.375
21
141
0
LINE
8
back_outsideCutPath
10
286.375
20
141
11
306.625
21
141
0
LINE
8
back_outsideCutPath
10
306.625
20
141
11
306.625
21
144
0
LINE
8
back_outsideCutPath
10
306.625
20
144
11
326.875
21
144
0
LINE
8
back_outsideCutPath
10
326.875
20
144
11
326.875
21
141
0
LINE
8
back_outsideCutPath
10
326.875
20
141
11
350
21
141
0
LINE
8
back_outsideCutPath
10
350
20
141
11
350
21
157.875
0
LINE
8
back_outsideCutPath
10
350
20
157.875
11
347
21
157.875
0
LINE
8
back_outsideCutPath
10
347
20
157.875
11
347
21
178.125
0
LINE
8
back_outsideCutPath
10
347
20
178.125
11
350
21
178.125
0
LINE
8
back_outsideCutPath
10
350
20
178.125
11
350
21
198.375
0
LINE
8
back_outsideCutPath
10
350
20
198.375
11
347
21
198.375
0
LINE
8
back_outsideCutPath
10
347
20
198.375
11
347
21
218.625
0
LINE
8
back_outsideCutPath
10
347
20
218.625
11
350
21
218.625
0
LINE
8
back_outsideCutPath
10
350
20
218.625
11
350
21
238.875
0
LINE
8
back_outsideCutPath
10
350
20
238.875
11
347
21
238.875
0
LINE
8
back_outsideCutPath
10
347
20
238.875
11
347
21
259.125
0
LINE
8
back_outsideCutPath
10
347
20
259.125
11
350
21
259.125
0
LINE
8
back_outsideCutPath
10
350
20
259.125
11
350
21
276
0
LINE
8
back_outsideCutPath
10
350
20
276
11
0
21
276
0
LINE
8
right_outsideCutPath
10
356
20
276
11
356
21
259.125
0
LINE
8
right_outsideCutPath
10
356
20
259.125
11
353
21
259.125
0
LINE
8
right_outsideCutPath
10
353
20
259.125
11
353
21
238.875
0
LINE
8
right_outsideCutPath
10
353
20
238.875
11
356
21
238.875
0
LINE
8
right_outsideCutPath
10
356
20
238.875
11
356
21
218.625
0
LINE
8
right_outsideCutPath
10
356
20
218.625
11
353
21
218.625
0
LINE
8
right_outsideCutPath
10
353
20
218.625
11
353
21
198.375
0
LINE
8
right_outsideCutPath
10
353
20
198.375
11
356
21
198.375
0
LINE
8
right_outsideCutPath
10
356
20
198.375
11
356
21
178.125
0
LINE
8
right_outsideCutPath
10
356
20
178.125
11
353
21
178.125
0
LINE
8
right_outsideCutPath
10
353
20
178.125
11
353
21
157.875
0
LINE
8
right_outsideCutPath
10
353
20
157.875
11
356
21
157.875
0
LINE
8
right_outsideCutPath
10
356
20
157.875
11
356
21
141
0
LINE
8
right_outsideCutPath
10
356
20
141
11
377.375
21
141
0
LINE
8
right_outsideCutPath
10
377.375
20
141
11
377.375
21
144
0
LINE
8
right_outsideCutPath
10
377.375
20
144
11
397.625
21
144
0
LINE
8
right_outsideCutPath
10
397.625
20
144
11
397.625
21
141
0
LINE
8
right_outsideCutPath
10
397.625
20
141
11
417.875
21
141
0
LINE
8
right_outsideCutPath
10
417.875
20
141
11
417.875
21
144
0
LINE
8
right_outsideCutPath
10
417.875
20
144
11
438.125
21
144
0
LINE
8
right_outsideCutPath
10
438.125
20
144
11
438.125
21
141
0
LINE
8
right_outsideCutPath
10
438.125
20
141
11
458.375
21
141
0
LINE
8
right_outsideCutPath
10
458.375
20
141
11
458.375
21
144
0
LINE
8
right_outsideCutPath
10
458.375
20
144
11
478.625
21
144
0
LINE
8
right_outsideCutPath
10
478.625
20
144
11
478.625
21
141
0
LINE
8
right_outsideCutPath
10
478.625
20
141
11
498.875
21
141
0
LINE
8
right_outsideCutPath
10
498.875
20
141
11
500
21
141
0
LINE
8
right_outsideCutPath
10
500
20
141
11
500
21
157.875
0
LINE
8
right_outsideCutPath
10
500
20
157.875
11
503
21
157.875
0
LINE
8
right_outsideCutPath
10
503
20
157.875
11
503
21
178.125
0
LINE
8
right_outsideCutPath
10
503
20
178.125
11
500
21
178.125
0
LINE
8
right_outsideCutPath
10
500
20
178.125
11
500
21
198.375
0
LINE
8
right_outsideCutPath
10
500
20
198.375
11
503
21
198.375
0
LINE
8
right_outsideCutPath
10
503
20
198.375
11
503
21
218.625
0
LINE
8
right_outsideCutPath
10
503
20
218.625
11
500
21
218.625
0
LINE
8
right_outsideCutPath
10
500
20
218.625
11
500
21
238.875
0
LINE
8
right_outsideCutPath
10
500
20
238.875
11
503
21
238.875
0
LINE
8
right_outsideCutPath
10
503
20
238.875
11
503
21
259.125
0
LINE
8
right_outsideCutPath
10
503
20
259.125
11
500
21
259.125
0
LINE
8
right_outsideCutPath
10
500
20
259.125
11
500
21
276
0
LINE
8
right_outsideCutPath
10
500
20
276
11
356
21
276
0
LINE
8
bottom_outsideCutPath
10
509
20
150
11
509
21
128.625
0
LINE
8
bottom_outsideCutPath
10
509
20
128.625
11
506
21
128.625
0
LINE
8
bottom_outsideCutPath
10
506
20
128.625
11
506
21
108.375
0
LINE
8
bottom_outsideCutPath
10
506
20
108.375
11
509
21
108.375
0
LINE
8
bottom_outsideCutPath
10
509
20
108.375
11
509
21
88.125
0
LINE
8
bottom_outsideCutPath
10
509
20
88.125
11
506
21
88.125
0
LINE
8
bottom_outsideCutPath
10
506
20
88.125
11
506
21
67.875
0
LINE
8
bottom_outsideCutPath
10
506
20
67.875
11
509
21
67.875
0
LINE
8
bottom_outsideCutPath
10
509
20
67.875
11
509
21
47.625
0
LINE
8
bottom_outsideCutPath
10
509
20
47.625
11
506
21
47.625
0
LINE
8
bottom_outsideCutPath
10
506
20
47.625
11
506
21
27.375
0
LINE
8
bottom_outsideCutPath
10
506
20
27.375
11
509
21
27.375
0
LINE
8
bottom_outsideCutPath
10
509
20
27.375
11
509
21
7.125
0
LINE
8
bottom_outsideCutPath
10
509
20
7.125
11
509
21
6
0
LINE
8
bottom_outsideCutPath
10
509
20
6
11
529.125
21
6
0
LINE
8
bottom_outsideCutPath
10
529.125
20
6
11
529.125
21
3
0
LINE
8
bottom_outsideCutPath
10
529.125
20
3
11
549.375
21
3
0
LINE
8
bottom_outsideCutPath
10
549.375
20
3
11
549.375
21
6
0
LINE
8
bottom_outsideCutPath
10
549.375
20
6
11
569.625
21
6
0
LINE
8
bottom_outsideCutPath
10
569.625
20
6
11
569.625
21
3
0
LINE
8
bottom_outsideCutPath
10
569.625
20
3
11
589.875
21
3
0
LINE
8
bottom_outsideCutPath
10
589.875
20
3
11
589.875
21
6
0
LINE
8
bottom_outsideCutPath
10
589.875
20
6
11
610.125
21
6
0
LINE
8
bottom_outsideCutPath
10
610.125
20
6
11
610.125
21
3
0
LINE
8
bottom_outsideCutPath
10
610.125
20
3
11
630.375
21
3
0
LINE
8
bottom_outsideCutPath
10
630.375
20
3
11
630.375
21
6
0
LINE
8
bottom_outsideCutPath
10
630.375
20
6
11
650.625
21
6
0
LINE
8
bottom_outsideCutPath
10
650.625
20
6
11
650.625
21
3
0
LINE
8
bottom_outsideCutPath
10
650.625
20
3
11
670.875
21
3
0
LINE
8
bottom_outsideCutPath
10
670.875
20
3
11
670.875
21
6
0
LINE
8
bottom_outsideCutPath
10
670.875
20
6
11
691.125
21
6
0
LINE
8
bottom_outsideCutPath
10
691.125
20
6
11
691.125
21
3
0
LINE
8
bottom_outsideCutPath
10
691.125
20
3
11
711.375
21
3
0
LINE
8
bottom_outsideCutPath
10
711.375
20
3
11
711.375
21
6
0
LINE
8
bottom_outsideCutPath
10
711.375
20
6
11
731.625
21
6
0
LINE
8
bottom_outsideCutPath
10
731.625
20
6
11
731.625
21
3
0
LINE
8
bottom_outsideCutPath
10
731.625
20
3
11
751.875
21
3
0
LINE
8
bottom_outsideCutPath
10
751.875
20
3
11
751.875
21
6
0
LINE
8
bottom_outsideCutPath
10
751.875
20
6
11
772.125
21
6
0
LINE
8
bottom_outsideCutPath
10
772.125
20
6
11
772.125
21
3
0
LINE
8
bottom_outsideCutPath
10
772.125
20
3
11
792.375
21
3
0
LINE
8
bottom_outsideCutPath
10
792.375
20
3
11
792.375
21
6
0
LINE
8
bottom_outsideCutPath
10
792.375
20
6
11
812.625
21
6
0
LINE
8
bottom_outsideCutPath
10
812.625
20
6
11
812.625
21
3
0
LINE
8
bottom_outsideCutPath
10
812.625
20
3
11
832.875
21
3
0
LINE
8
bottom_outsideCutPath
10
832.875
20
3
11
832.875
21
6
0
LINE
8
bottom_outsideCutPath
10
832.875
20
6
11
853
21
6
0
LINE
8
bottom_outsideCutPath
10
853
20
6
11
853
21
27.375
0
LINE
8
bottom_outsideCutPath
10
853
20
27.375
11
856
21
27.375
0
LINE
8
bottom_outsideCutPath
10
856
20
27.375
11
856
21
47.625
0
LINE
8
bottom_outsideCutPath
10
856
20
47.625
11
853
21
47.625
0
LINE
8
bottom_outsideCutPath
10
853
20
47.625
11
853
21
67.875
0
LINE
8
bottom_outsideCutPath
10
853
20
67.875
11
856
21
67.875
0
LINE
8
bottom_outsideCutPath
10
856
20
67.875
11
856
21
88.125
0
LINE
8
bottom_outsideCutPath
10
856
20
88.125
11
853
21
88.125
0
LINE
8
bottom_outsideCutPath
10
853
20
88.125
11
853
21
108.375
0
LINE
8
bottom_outsideCutPath
10
853
20
108.375
11
856
21
108.375
0
LINE
8
bottom_outsideCutPath
10
856
20
108.375
11
856
21
128.625
0
LINE
8
bottom_outsideCutPath
10
856
20
128.625
11
853
21
128.625
0
LINE
8
bottom_outsideCutPath
10
853
20
128.625
11
853
21
148.875
0
LINE
8
bottom_outsideCutPath
10
853
20
148.875
11
853
21
150
0
LINE
8
bottom_outsideCutPath
10
853
20
150
11
832.875
21
150
0
LINE
8
bottom_outsideCutPath
10
832.875
20
150
11
832.875
21
153
0
LINE
8
bottom_outsideCutPath
10
832.875
20
153
11
812.625
21
153
0
LINE
8
bottom_outsideCutPath
10
812.625
20
153
11
812.625
21
150
0
LINE
8
bottom_outsideCutPath
10
812.625
20
150
11
792.375
21
150
0
LINE
8
bottom_outsideCutPath
10
792.375
20
150
11
792.375
21
153
0
LINE
8
bottom_outsideCutPath
10
792.375
20
153
11
772.125
21
153
0
LINE
8
bottom_outsideCutPath
10
772.125
20
153
11
772.125
21
150
0
LINE
8
bottom_outsideCutPath
10
772.125
20
150
11
751.875
21
150
0
LINE
8
bottom_outsideCutPath
10
751.875
20
150
11
751.875
21
153
0
LINE
8
bottom_outsideCutPath
10
751.875
20
153
11
731.625
21
153
0
LINE
8
bottom_outsideCutPath
10
731.625
20
153
11
731.625
21
150
0
LINE
8
bottom_outsideCutPath
10
731.625
20
150
11
711.375
21
150
0
LINE
8
bottom_outsideCutPath
10
711.375
20
150
11
711.375
21
153
0
LINE
8
bottom_outsideCutPath
10
711.375
20
153
11
691.125
21
153
0
LINE
8
bottom_outsideCutPath
10
691.125
20
153
11
691.125
21
150
0
LINE
8
bottom_outsideCutPath
10
691.125
20
150
11
670.875
21
150
0
LINE
8
bottom_outsideCutPath
10
670.875
20
150
11
670.875
21
153
0
LINE
8
bottom_outsideCutPath
10
670.875
20
153
11
650.625
21
153
0
LINE
8
bottom_outsideCutPath
10
650.625
20
153
11
650.625
21
150
0
LINE
8
bottom_outsideCutPath
10
650.625
20
150
11
630.375
21
150
0
LINE
8
bottom_outsideCutPath
10
630.375
20
150
11
630.375
21
153
0
LINE
8
bottom_outsideCutPath
10
630.375
20
153
11
610.125
21
153
0
LINE
8
bottom_outsideCutPath
10
610.125
20
153
11
610.125
21
150
0
LINE
8
bottom_outsideCutPath
10
610.125
20
150
11
589.875
21
150
0
LINE
8
bottom_outsideCutPath
10
589.875
20
150
11
589.875
21
153
0
LINE
8
bottom_outsideCutPath
10
589.875
20
153
11
569.625
21
153
0
LINE
8
bottom_outsideCutPath
10
569.625
20
153
11
569.625
21
150
0
LINE
8
bottom_outsideCutPath
10
569.625
20
150
11
549.375
21
150
0
LINE
8
bottom_outsideCutPath
10
549.375
20
150
11
549.375
21
153
0
LINE
8
bottom_outsideCutPath
10
549.375
20
153
11
529.125
21
153
0
LINE
8
bottom_outsideCutPath
10
529.125
20
153
11
529.125
21
150
0
LINE
8
bottom_outsideCutPath
10
529.125
20
150
11
509
21
150
0
ENDSEC
0
EOF