0
SECTION
2
HEADER
9
$INSUNITS
70
4
0
ENDSEC
0
SECTION
2
TABLES
0
TABLE
2
LTYPE
0
LTYPE
72
65
70
64
2
CONTINUOUS
3
______
73
0
40
0
0
ENDTAB
0
TABLE
2
LAYER
0
ENDTAB
0
ENDSEC
0
SECTION
2
ENTITIES
0
LINE
8
front_outsideCutPath
10
0
20
136
11
0
21
112.8125
0
LINE
8
front_outsideCutPath
10
0
20
112.8125
11
3
21
112.8125
0
LINE
8
front_outsideCutPath
10
3
20
112.8125
11
3
21
83.9375
0
LINE
8
front_outsideCutPath
10
3
20
83.9375
11
0
21
83.9375
0
LINE
8
front_outsideCutPath
10
0
20
83.9375
11
0
21
55.0625
0
LINE
8
front_outsideCutPath
10
0
20
55.0625
11
3
21
55.0625
0
LINE
8
front_outsideCutPath
10
3
20
55.0625
11
3
21
26.1875
0
LINE
8
front_outsideCutPath
10
3
20
26.1875
11
0
21
26.1875
0
LINE
8
front_outsideCutPath
10
0
20
26.1875
11
0
21
3
0
LINE
8
front_outsideCutPath
10
0
20
3
11
24.6875
21
3
0
LINE
8
front_outsideCutPath
10
24.6875
20
3
11
24.6875
21
6
0
LINE
8
front_outsideCutPath
10
24.6875
20
6
11
53.5625
21
6
0
LINE
8
front_outsideCutPath
10
53.5625
20
6
11
53.5625
21
3
0
LINE
8
front_outsideCutPath
10
53.5625
20
3
11
82.4375
21
3
0
LINE
8
front_outsideCutPath
10
82.4375
20
3
11
82.4375
21
6
0
LINE
8
front_outsideCutPath
10
82.4375
20
6
11
111.3125
21
6
0
LINE
8
front_outsideCutPath
10
111.3125
20
6
11
111.3125
21
3
0
LINE
8
front_outsideCutPath
10
111.3125
20
3
11
136
21
3
0
LINE
8
front_outsideCutPath
10
136
20
3
11
136
21
26.1875
0
LINE
8
front_outsideCutPath
10
136
20
26.1875
11
133
21
26.1875
0
LINE
8
front_outsideCutPath
10
133
20
26.1875
11
133
21
55.0625
0
LINE
8
front_outsideCutPath
10
133
20
55.0625
11
136
21
55.0625
0
LINE
8
front_outsideCutPath
10
136
20
55.0625
11
136
21
83.9375
0
LINE
8
front_outsideCutPath
10
136
20
83.9375
11
133
21
83.9375
0
LINE
8
front_outsideCutPath
10
133
20
83.9375
11
133
21
112.8125
0
LINE
8
front_outsideCutPath
10
133
20
112.8125
11
136
21
112.8125
0
LINE
8
front_outsideCutPath
10
136
20
112.8125
11
136
21
136
0
LINE
8
front_outsideCutPath
10
136
20
136
11
0
21
136
0
LINE
8
left_outsideCutPath
10
142
20
136
11
142
21
112.8125
0
LINE
8
left_outsideCutPath
10
142
20
112.8125
11
139
21
112.8125
0
LINE
8
left_outsideCutPath
10
139
20
112.8125
11
139
21
83.9375
0
LINE
8
left_outsideCutPath
10
139
20
83.9375
11
142
21
83.9375
0
LINE
8
left_outsideCutPath
10
142
20
83.9375
11
142
21
55.0625
0
LINE
8
left_outsideCutPath
10
142
20
55.0625
11
139
21
55.0625
0
LINE
8
left_outsideCutPath
10
139
20
55.0625
11
139
21
26.1875
0
LINE
8
left_outsideCutPath
10
139
20
26.1875
11
142
21
26.1875
0
LINE
8
left_outsideCutPath
10
142
20
26.1875
11
142
21
3
0
LINE
8
left_outsideCutPath
10
142
20
3
11
163.6875
21
3
0
LINE
8
left_outsideCutPath
10
163.6875
20
3
11
163.6875
21
6
0
LINE
8
left_outsideCutPath
10
163.6875
20
6
11
192.5625
21
6
0
LINE
8
left_outsideCutPath
10
192.5625
20
6
11
192.5625
21
3
0
LINE
8
left_outsideCutPath
10
192.5625
20
3
11
221.4375
21
3
0
LINE
8
left_outsideCutPath
10
221.4375
20
3
11
221.4375
21
6
0
LINE
8
left_outsideCutPath
10
221.4375
20
6
11
250.3125
21
6
0
LINE
8
left_outsideCutPath
10
250.3125
20
6
11
250.3125
21
3
0
LINE
8
left_outsideCutPath
10
250.3125
20
3
11
272
21
3
0
LINE
8
left_outsideCutPath
10
272
20
3
11
272
21
26.1875
0
LINE
8
left_outsideCutPath
10
272
20
26.1875
11
275
21
26.1875
0
LINE
8
left_outsideCutPath
10
275
20
26.1875
11
275
21
55.0625
0
LINE
8
left_outsideCutPath
10
275
20
55.0625
11
272
21
55.0625
0
LINE
8
left_outsideCutPath
10
272
20
55.0625
11
272
21
83.9375
0
LINE
8
left_outsideCutPath
10
272
20
83.9375
11
275
21
83.9375
0
LINE
8
left_outsideCutPath
10
275
20
83.9375
11
275
21
112.8125
0
LINE
8
left_outsideCutPath
10
275
20
112.8125
11
272
21
112.8125
0
LINE
8
left_outsideCutPath
10
272
20
112.8125
11
272
21
136
0
LINE
8
left_outsideCutPath
10
272
20
136
11
142
21
136
0
LINE
8
back_outsideCutPath
10
0
20
272
11
0
21
248.8125
0
LINE
8
back_outsideCutPath
10
0
20
248.8125
11
3
21
248.8125
0
LINE
8
back_outsideCutPath
10
3
20
248.8125
11
3
21
219.9375
0
LINE
8
back_outsideCutPath
10
3
20
219.9375
11
0
21
219.9375
0
LINE
8
back_outsideCutPath
10
0
20
219.9375
11
0
21
191.0625
0
LINE
8
back_outsideCutPath
10
0
20
191.0625
11
3
21
191.0625
0
LINE
8
back_outsideCutPath
10
3
20
191.0625
11
3
21
162.1875
0
LINE
8
back_outsideCutPath
10
3
20
162.1875
11
0
21
162.1875
0
LINE
8
back_outsideCutPath
10
0
20
162.1875
11
0
21
139
0
LINE
8
back_outsideCutPath
10
0
20
139
11
24.6875
21
139
0
LINE
8
back_outsideCutPath
10
24.6875
20
139
11
24.6875
21
142
0
LINE
8
back_outsideCutPath
10
24.6875
20
142
11
53.5625
21
142
0
LINE
8
back_outsideCutPath
10
53.5625
20
142
11
53.5625
21
139
0
LINE
8
back_outsideCutPath
10
53.5625
20
139
11
82.4375
21
139
0
LINE
8
back_outsideCutPath
10
82.4375
20
139
11
82.4375
21
142
0
LINE
8
back_outsideCutPath
10
82.4375
20
142
11
111.3125
21
142
0
LINE
8
back_outsideCutPath
10
111.3125
20
142
11
111.3125
21
139
0
LINE
8
back_outsideCutPath
10
111.3125
20
139
11
136
21
139
0
LINE
8
back_outsideCutPath
10
136
20
139
11
136
21
162.1875
0
LINE
8
back_outsideCutPath
10
136
20
162.1875
11
133
21
162.1875
0
LINE
8
back_outsideCutPath
10
133
20
162.1875
11
133
21
191.0625
0
LINE
8
back_outsideCutPath
10
133
20
191.0625
11
136
21
191.0625
0
LINE
8
back_outsideCutPath
10
136
20
191.0625
11
136
21
219.9375
0
LINE
8
back_outsideCutPath
10
136
20
219.9375
11
133
21
219.9375
0
LINE
8
back_outsideCutPath
10
133
20
219.9375
11
133
21
248.8125
0
LINE
8
back_outsideCutPath
10
133
20
248.8125
11
136
21
248.8125
0
LINE
8
back_outsideCutPath
10
136
20
248.8125
11
136
21
272
0
LINE
8
back_outsideCutPath
10
136
20
272
11
0
21
272
0
LINE
8
right_outsideCutPath
10
142
20
272
11
142
21
248.8125
0
LINE
8
right_outsideCutPath
10
142
20
248.8125
11
139
21
248.8125
0
LINE
8
right_outsideCutPath
10
139
20
248.8125
11
139
21
219.9375
0
LINE
8
right_outsideCutPath
10
139
20
219.9375
11
142
21
219.9375
0
LINE
8
right_outsideCutPath
10
142
20
219.9375
11
142
21
191.0625
0
LINE
8
right_outsideCutPath
10
142
20
191.0625
11
139
21
191.0625
0
LINE
8
right_outsideCutPath
10
139
20
191.0625
11
139
21
162.1875
0
LINE
8
right_outsideCutPath
10
139
20
162.1875
11
142
21
162.1875
0
LINE
8
right_outsideCutPath
10
142
20
162.1875
11
142
21
139
0
LINE
8
right_outsideCutPath
10
142
20
139
11
163.6875
21
139
0
LINE
8
right_outsideCutPath
10
163.6875
20
139
11
163.6875
21
142
0
LINE
8
right_outsideCutPath
10
163.6875
20
142
11
192.5625
21
142
0
LINE
8
right_outsideCutPath
10
192.5625
20
142
11
192.5625
21
139
0
LINE
8
right_outsideCutPath
10
192.5625
20
139
11
221.4375
21
139
0
LINE
8
right_outsideCutPath
10
221.4375
20
139
11
221.4375
21
142
0
LINE
8
right_outsideCutPath
10
221.4375
20
142
11
250.3125
21
142
0
LINE
8
right_outsideCutPath
10
250.3125
20
142
11
250.3125
21
139
0
LINE
8
right_outsideCutPath
10
250.3125
20
139
11
272
21
139
0
LINE
8
right_outsideCutPath
10
272
20
139
11
272
21
162.1875
0
LINE
8
right_outsideCutPath
10
272
20
162.1875
11
275
21
162.1875
0
LINE
8
right_outsideCutPath
10
275
20
162.1875
11
275
21
191.0625
0
LINE
8
right_outsideCutPath
10
275
20
191.0625
11
272
21
191.0625
0
LINE
8
right_outsideCutPath
10
272
20
191.0625
11
272
21
219.9375
0
LINE
8
right_outsideCutPath
10
272
20
219.9375
11
275
21
219.9375
0
LINE
8
right_outsideCutPath
10
275
20
219.9375
11
275
21
248.8125
0
LINE
8
right_outsideCutPath
10
275
20
248.8125
11
272
21
248.8125
0
LINE
8
right_outsideCutPath
10
272
20
248.8125
11
272
21
272
0
LINE
8
right_outsideCutPath
10
272
20
272
11
142
21
272
0
LINE
8
bottom_outsideCutPath
10
281
20
136
11
281
21
114.3125
0
LINE
8
bottom_outsideCutPath
10
281
20
114.3125
11
278
21
114.3125
0
LINE
8
bottom_outsideCutPath
10
278
20
114.3125
11
278
21
85.4375
0
LINE
8
bottom_outsideCutPath
10
278
20
85.4375
11
281
21
85.4375
0
LINE
8
bottom_outsideCutPath
10
281
20
85.4375
11
281
21
56.5625
0
LINE
8
bottom_outsideCutPath
10
281
20
56.5625
11
278
21
56.5625
0
LINE
8
bottom_outsideCutPath
10
278
20
56.5625
11
278
21
27.6875
0
LINE
8
bottom_outsideCutPath
10
278
20
27.6875
11
281
21
27.6875
0
LINE
8
bottom_outsideCutPath
10
281
20
27.6875
11
281
21
6
0
LINE
8
bottom_outsideCutPath
10
281
20
6
11
302.6875
21
6
0
LINE
8
bottom_outsideCutPath
10
302.6875
20
6
11
302.6875
21
3
0
LINE
8
bottom_outsideCutPath
10
302.6875
20
3
11
331.5625
21
3
0
LINE
8
bottom_outsideCutPath
10
331.5625
20
3
11
331.5625
21
6
0
LINE
8
bottom_outsideCutPath
10
331.5625
20
6
11
360.4375
21
6
0
LINE
8
bottom_outsideCutPath
10
360.4375
20
6
11
360.4375
21
3
0
LINE
8
bottom_outsideCutPath
10
360.4375
20
3
11
389.3125
21
3
0
LINE
8
bottom_outsideCutPath
10
389.3125
20
3
11
389.3125
21
6
0
LINE
8
bottom_outsideCutPath
10
389.3125
20
6
11
411
21
6
0
LINE
8
bottom_outsideCutPath
10
411
20
6
11
411
21
27.6875
0
LINE
8
bottom_outsideCutPath
10
411
20
27.6875
11
414
21
27.6875
0
LINE
8
bottom_outsideCutPath
10
414
20
27.6875
11
414
21
56.5625
0
LINE
8
bottom_outsideCutPath
10
414
20
56.5625
11
411
21
56.5625
0
LINE
8
bottom_outsideCutPath
10
411
20
56.5625
11
411
21
85.4375
0
LINE
8
bottom_outsideCutPath
10
411
20
85.4375
11
414
21
85.4375
0
LINE
8
bottom_outsideCutPath
10
414
20
85.4375
11
414
21
114.3125
0
LINE
8
bottom_outsideCutPath
10
414
20
114.3125
11
411
21
114.3125
0
LINE
8
bottom_outsideCutPath
10
411
20
114.3125
11
411
21
136
0
LINE
8
bottom_outsideCutPath
10
411
20
136
11
389.3125
21
136
0
LINE
8
bottom_outsideCutPath
10
389.3125
20
136
11
389.3125
21
139
0
LINE
8
bottom_outsideCutPath
10
389.3125
20
139
11
360.4375
21
139
0
LINE
8
bottom_outsideCutPath
10
360.4375
20
139
11
360.4375
21
136
0
LINE
8
bottom_outsideCutPath
10
360.4375
20
136
11
331.5625
21
136
0
LINE
8
bottom_outsideCutPath
10
331.5625
20
136
11
331.5625
21
139
0
LINE
8
bottom_outsideCutPath
10
331.5625
20
139
11
302.6875
21
139
0
LINE
8
bottom_outsideCutPath
10
302.6875
20
139
11
302.6875
21
136
0
LINE
8
bottom_outsideCutPath
10
302.6875
20
136
11
281
21
136
0
ENDSEC
0
EOF