0
SECTION
2
HEADER
9
$INSUNITS
70
4
0
ENDSEC
0
SECTION
2
TABLES
0
TABLE
2
LTYPE
0
LTYPE
72
65
70
64
2
CONTINUOUS
3
______
73
0
40
0
0
ENDTAB
0
TABLE
2
LAYER
0
ENDTAB
0
ENDSEC
0
SECTION
2
ENTITIES
0
LINE
8
front_outsideCutPath
10
0
20
109.8125
11
0
21
156.1875
0
LINE
8
front_outsideCutPath
10
0
20
109.8125
11
3
21
109.8125
0
LINE
8
front_outsideCutPath
10
3
20
109.8125
11
3
21
80.9375
0
LINE
8
front_outsideCutPath
10
3
20
80.9375
11
0
21
80.9375
0
LINE
8
front_outsideCutPath
10
0
20
80.9375
11
0
21
52.0625
0
LINE
8
front_outsideCutPath
10
0
20
52.0625
11
3
21
52.0625
0
LINE
8
front_outsideCutPath
10
3
20
52.0625
11
3
21
23.1875
0
LINE
8
front_outsideCutPath
10
3
20
23.1875
11
0
21
23.1875
0
LINE
8
front_outsideCutPath
10
0
20
23.1875
11
0
21
0
0
LINE
8
front_outsideCutPath
10
0
20
0
11
24.6875
21
0
0
LINE
8
front_outsideCutPath
10
24.6875
20
0
11
24.6875
21
3
0
LINE
8
front_outsideCutPath
10
24.6875
20
3
11
53.5625
21
3
0
LINE
8
front_outsideCutPath
10
53.5625
20
3
11
53.5625
21
0
0
LINE
8
front_outsideCutPath
10
53.5625
20
0
11
82.4375
21
0
0
LINE
8
front_outsideCutPath
10
82.4375
20
0
11
82.4375
21
3
0
LINE
8
front_outsideCutPath
10
82.4375
20
3
11
111.3125
21
3
0
LINE
8
front_outsideCutPath
10
111.3125
20
3
11
111.3125
21
0
0
LINE
8
front_outsideCutPath
10
111.3125
20
0
11
136
21
0
0
LINE
8
front_outsideCutPath
10
136
20
0
11
136
21
52.0625
0
LINE
8
front_outsideCutPath
10
133
20
23.1875
11
139
21
23.1875
0
LINE
8
front_outsideCutPath
10
133
20
23.1875
11
133
21
52.0625
0
LINE
8
front_outsideCutPath
10
133
20
52.0625
11
139
21
52.0625
0
LINE
8
front_outsideCutPath
10
136
20
52.0625
11
136
21
109.8125
0
LINE
8
front_outsideCutPath
10
133
20
80.9375
11
139
21
80.9375
0
LINE
8
front_outsideCutPath
10
133
20
80.9375
11
133
21
109.8125
0
LINE
8
front_outsideCutPath
10
133
20
109.8125
11
139
21
109.8125
0
LINE
8
front_outsideCutPath
10
136
20
109.8125
11
136
21
185.0625
0
LINE
8
front_outsideCutPath
10
0
20
133
11
136
21
133
0
LINE
8
left_outsideCutPath
10
139
20
109.8125
11
139
21
156.1875
0
LINE
8
left_outsideCutPath
10
139
20
80.9375
11
139
21
52.0625
0
LINE
8
left_outsideCutPath
10
139
20
23.1875
11
139
21
0
0
LINE
8
left_outsideCutPath
10
139
20
0
11
160.6875
21
0
0
LINE
8
left_outsideCutPath
10
160.6875
20
0
11
160.6875
21
3
0
LINE
8
left_outsideCutPath
10
160.6875
20
3
11
189.5625
21
3
0
LINE
8
left_outsideCutPath
10
189.5625
20
3
11
189.5625
21
0
0
LINE
8
left_outsideCutPath
10
189.5625
20
0
11
218.4375
21
0
0
LINE
8
left_outsideCutPath
10
218.4375
20
0
11
218.4375
21
3
0
LINE
8
left_outsideCutPath
10
218.4375
20
3
11
247.3125
21
3
0
LINE
8
left_outsideCutPath
10
247.3125
20
3
11
247.3125
21
0
0
LINE
8
left_outsideCutPath
10
247.3125
20
0
11
269
21
0
0
LINE
8
left_outsideCutPath
10
269
20
0
11
269
21
23.1875
0
LINE
8
left_outsideCutPath
10
269
20
23.1875
11
272
21
23.1875
0
LINE
8
left_outsideCutPath
10
272
20
23.1875
11
272
21
53.5625
0
LINE
8
left_outsideCutPath
10
272
20
52.0625
11
269
21
52.0625
0
LINE
8
left_outsideCutPath
10
269
20
52.0625
11
269
21
80.9375
0
LINE
8
left_outsideCutPath
10
269
20
80.9375
11
272
21
80.9375
0
LINE
8
left_outsideCutPath
10
272
20
80.9375
11
272
21
111.3125
0
LINE
8
left_outsideCutPath
10
272
20
109.8125
11
269
21
109.8125
0
LINE
8
left_outsideCutPath
10
269
20
109.8125
11
269
21
156.1875
0
LINE
8
left_outsideCutPath
10
139
20
133
11
269
21
133
0
LINE
8
back_outsideCutPath
10
0
20
266
11
0
21
242.8125
0
LINE
8
back_outsideCutPath
10
0
20
242.8125
11
3
21
242.8125
0
LINE
8
back_outsideCutPath
10
3
20
242.8125
11
3
21
213.9375
0
LINE
8
back_outsideCutPath
10
3
20
213.9375
11
0
21
213.9375
0
LINE
8
back_outsideCutPath
10
0
20
213.9375
11
0
21
185.0625
0
LINE
8
back_outsideCutPath
10
0
20
185.0625
11
3
21
185.0625
0
LINE
8
back_outsideCutPath
10
3
20
185.0625
11
3
21
156.1875
0
LINE
8
back_outsideCutPath
10
3
20
156.1875
11
0
21
156.1875
0
LINE
8
back_outsideCutPath
10
24.6875
20
133
11
24.6875
21
136
0
LINE
8
back_outsideCutPath
10
24.6875
20
136
11
53.5625
21
136
0
LINE
8
back_outsideCutPath
10
53.5625
20
136
11
53.5625
21
133
0
LINE
8
back_outsideCutPath
10
82.4375
20
133
11
82.4375
21
136
0
LINE
8
back_outsideCutPath
10
82.4375
20
136
11
111.3125
21
136
0
LINE
8
back_outsideCutPath
10
111.3125
20
136
11
111.3125
21
133
0
LINE
8
back_outsideCutPath
10
133
20
156.1875
11
139
21
156.1875
0
LINE
8
back_outsideCutPath
10
133
20
156.1875
11
133
21
185.0625
0
LINE
8
back_outsideCutPath
10
133
20
185.0625
11
139
21
185.0625
0
LINE
8
back_outsideCutPath
10
136
20
185.0625
11
136
21
242.8125
0
LINE
8
back_outsideCutPath
10
133
20
213.9375
11
139
21
213.9375
0
LINE
8
back_outsideCutPath
10
133
20
213.9375
11
133
21
242.8125
0
LINE
8
back_outsideCutPath
10
133
20
242.8125
11
139
21
242.8125
0
LINE
8
back_outsideCutPath
10
136
20
242.8125
11
136
21
266
0
LINE
8
back_outsideCutPath
10
136
20
266
11
0
21
266
0
LINE
8
right_outsideCutPath
10
139
20
266
11
139
21
242.8125
0
LINE
8
right_outsideCutPath
10
139
20
213.9375
11
139
21
185.0625
0
LINE
8
right_outsideCutPath
10
160.6875
20
133
11
160.6875
21
136
0
LINE
8
right_outsideCutPath
10
160.6875
20
136
11
189.5625
21
136
0
LINE
8
right_outsideCutPath
10
189.5625
20
136
11
189.5625
21
133
0
LINE
8
right_outsideCutPath
10
218.4375
20
133
11
218.4375
21
136
0
LINE
8
right_outsideCutPath
10
218.4375
20
136
11
247.3125
21
136
0
LINE
8
right_outsideCutPath
10
247.3125
20
136
11
247.3125
21
133
0
LINE
8
right_outsideCutPath
10
269
20
156.1875
11
272
21
156.1875
0
LINE
8
right_outsideCutPath
10
272
20
156.1875
11
272
21
185.0625
0
LINE
8
right_outsideCutPath
10
272
20
185.0625
11
269
21
185.0625
0
LINE
8
right_outsideCutPath
10
269
20
185.0625
11
269
21
213.9375
0
LINE
8
right_outsideCutPath
10
269
20
213.9375
11
272
21
213.9375
0
LINE
8
right_outsideCutPath
10
272
20
213.9375
11
272
21
242.8125
0
LINE
8
right_outsideCutPath
10
272
20
242.8125
11
269
21
242.8125
0
LINE
8
right_outsideCutPath
10
269
20
242.8125
11
269
21
266
0
LINE
8
right_outsideCutPath
10
269
20
266
11
139
21
266
0
LINE
8
bottom_outsideCutPath
10
275
20
133
11
275
21
111.3125
0
LINE
8
bottom_outsideCutPath
10
275
20
111.3125
11
272
21
111.3125
0
LINE
8
bottom_outsideCutPath
10
272
20
82.4375
11
275
21
82.4375
0
LINE
8
bottom_outsideCutPath
10
275
20
82.4375
11
275
21
53.5625
0
LINE
8
bottom_outsideCutPath
10
275
20
53.5625
11
272
21
53.5625
0
LINE
8
bottom_outsideCutPath
10
272
20
24.6875
11
275
21
24.6875
0
LINE
8
bottom_outsideCutPath
10
275
20
24.6875
11
275
21
3
0
LINE
8
bottom_outsideCutPath
10
275
20
3
11
296.6875
21
3
0
LINE
8
bottom_outsideCutPath
10
296.6875
20
3
11
296.6875
21
0
0
LINE
8
bottom_outsideCutPath
10
296.6875
20
0
11
325.5625
21
0
0
LINE
8
bottom_outsideCutPath
10
325.5625
20
0
11
325.5625
21
3
0
LINE
8
bottom_outsideCutPath
10
325.5625
20
3
11
354.4375
21
3
0
LINE
8
bottom_outsideCutPath
10
354.4375
20
3
11
354.4375
21
0
0
LINE
8
bottom_outsideCutPath
10
354.4375
20
0
11
383.3125
21
0
0
LINE
8
bottom_outsideCutPath
10
383.3125
20
0
11
383.3125
21
3
0
LINE
8
bottom_outsideCutPath
10
383.3125
20
3
11
405
21
3
0
LINE
8
bottom_outsideCutPath
10
405
20
3
11
405
21
24.6875
0
LINE
8
bottom_outsideCutPath
10
405
20
24.6875
11
408
21
24.6875
0
LINE
8
bottom_outsideCutPath
10
408
20
24.6875
11
408
21
53.5625
0
LINE
8
bottom_outsideCutPath
10
408
20
53.5625
11
405
21
53.5625
0
LINE
8
bottom_outsideCutPath
10
405
20
53.5625
11
405
21
82.4375
0
LINE
8
bottom_outsideCutPath
10
405
20
82.4375
11
408
21
82.4375
0
LINE
8
bottom_outsideCutPath
10
408
20
82.4375
11
408
21
111.3125
0
LINE
8
bottom_outsideCutPath
10
408
20
111.3125
11
405
21
111.3125
0
LINE
8
bottom_outsideCutPath
10
405
20
111.3125
11
405
21
133
0
LINE
8
bottom_outsideCutPath
10
405
20
133
11
383.3125
21
133
0
LINE
8
bottom_outsideCutPath
10
383.3125
20
133
11
383.3125
21
136
0
LINE
8
bottom_outsideCutPath
10
383.3125
20
136
11
354.4375
21
136
0
LINE
8
bottom_outsideCutPath
10
354.4375
20
136
11
354.4375
21
133
0
LINE
8
bottom_outsideCutPath
10
354.4375
20
133
11
325.5625
21
133
0
LINE
8
bottom_outsideCutPath
10
325.5625
20
133
11
325.5625
21
136
0
LINE
8
bottom_outsideCutPath
10
325.5625
20
136
11
296.6875
21
136
0
LINE
8
bottom_outsideCutPath
10
296.6875
20
136
11
296.6875
21
133
0
LINE
8
bottom_outsideCutPath
10
296.6875
20
133
11
275
21
133
0
ENDSEC
0
EOF