0
SECTION
2
HEADER
9
$INSUNITS
70
4
0
ENDSEC
0
SECTION
2
TABLES
0
TABLE
2
LTYPE
0
LTYPE
72
65
70
64
2
CONTINUOUS
3
______
73
0
40
0
0
ENDTAB
0
TABLE
2
LAYER
0
ENDTAB
0
ENDSEC
0
SECTION
2
ENTITIES
0
LINE
8
front_outsideCutPath
10
0
20
136
11
0
21
112.8125
0
LINE
8
front_outsideCutPath
10
0
20
112.8125
11
3
21
112.8125
0
LINE
8
front_outsideCutPath
10
3
20
112.8125
11
3
21
83.9375
0
LINE
8
front_outsideCutPath
10
3
20
83.9375
11
0
21
83.9375
0
LINE
8
front_outsideCutPath
10
0
20
83.9375
11
0
21
55.0625
0
LINE
8
front_outsideCutPath
10
0
20
55.0625
11
3
21
55.0625
0
LINE
8
front_outsideCutPath
10
3
20
55.0625
11
3
21
26.1875
0
LINE
8
front_outsideCutPath
10
3
20
26.1875
11
0
21
26.1875
0
LINE
8
front_outsideCutPath
10
0
20
26.1875
11
0
21
3
0
LINE
8
front_outsideCutPath
10
0
20
3
11
24.6875
21
3
0
LINE
8
front_outsideCutPath
10
24.6875
20
3
11
24.6875
21
6
0
LINE
8
front_outsideCutPath
10
24.6875
20
6
11
53.5625
21
6
0
LINE
8
front_outsideCutPath
10
53.5625
20
6
11
53.5625
21
3
0
LINE
8
front_outsideCutPath
10
53.5625
20
3
11
82.4375
21
3
0
LINE
8
front_outsideCutPath
10
82.4375
20
3
11
82.4375
21
6
0
LINE
8
front_outsideCutPath
10
82.4375
20
6
11
111.3125
21
6
0
LINE
8
front_outsideCutPath
10
111.3125
20
6
11
111.3125
21
3
0
LINE
8
front_outsideCutPath
10
111.3125
20
3
11
136
21
3
0
LINE
8
front_outsideCutPath
10
136
20
3
11
136
21
26.1875
0
LINE
8
front_outsideCutPath
10
136
20
26.1875
11
133
21
26.1875
0
LINE
8
front_outsideCutPath
10
133
20
26.1875
11
133
21
55.0625
0
LINE
8
front_outsideCutPath
10
133
20
55.0625
11
136
21
55.0625
0
LINE
8
front_outsideCutPath
10
136
20
55.0625
11
136
21
83.9375
0
LINE
8
front_outsideCutPath
10
136
20
83.9375
11
133
21
83.9375
0
LINE
8
front_outsideCutPath
10
133
20
83.9375
11
133
21
112.8125
0
LINE
8
front_outsideCutPath
10
133
20
112.8125
11
136
21
112.8125
0
LINE
8
front_outsideCutPath
10
136
20
112.8125
11
136
21
136
0
LINE
8
front_outsideCutPath
10
136
20
136
11
0
21
136
0
LINE
8
front_labelLayer
10
45.9653808
20
73.6890023
11
45.9653808
21
72.013514
0
LINE
8
front_labelLayer
10
45.9653808
20
72.013514
11
42.3416504
21
72.013514
0
LINE
8
front_labelLayer
10
42.3416504
20
72.013514
11
42.3416504
21
59.4538461
0
LINE
8
front_labelLayer
10
42.3416504
20
59.4538461
11
40.1855957
21
59.4538461
0
LINE
8
front_labelLayer
10
40.1855957
20
59.4538461
11
40.1855957
21
72.013514
0
LINE
8
front_labelLayer
10
40.1855957
20
72.013514
11
37.6398926
21
72.013514
0
LINE
8
front_labelLayer
10
37.6398926
20
72.013514
11
37.6398926
21
72.9876351
0
LINE
8
front_labelLayer
10
37.6398926
20
72.9876351
11
40.1855957
21
73.766932
0
LINE
8
front_labelLayer
10
40.1855957
20
73.766932
11
40.1855957
21
74.5592172
0
LINE
8
front_labelLayer
10
47.4200683
20
79.3518929
11
46.8615722
21
77.6244515
0
LINE
8
front_labelLayer
10
42.3416504
20
74.6111703
11
42.3416504
21
73.6890023
0
LINE
8
front_labelLayer
10
42.3416504
20
73.6890023
11
45.9653808
21
73.6890023
0
ARC
8
front_labelLayer
10
48.9233279
20
74.6596715
40
8.7383096
50
167.5775967
51
180.6586786
0
ARC
8
front_labelLayer
10
44.8142896
20
75.6176618
40
4.5196859
50
141.7433857
51
168.232213
0
ARC
8
front_labelLayer
10
44.1452549
20
75.9668478
40
3.780714
50
98.2551498
51
139.6203367
0
ARC
8
front_labelLayer
10
44.7326797
20
73.2531627
40
6.553429
50
89.6696987
51
99.9314234
0
ARC
8
front_labelLayer
10
44.7343187
20
72.8635955
40
6.9429813
50
81.5640879
51
89.7017573
0
ARC
8
front_labelLayer
10
44.2462036
20
69.4582452
40
10.3831091
50
75.9740047
51
81.6564697
0
ARC
8
front_labelLayer
10
43.4086056
20
65.9840858
40
13.9567223
50
73.2963495
51
76.0946119
0
ARC
8
front_labelLayer
10
43.6195338
20
67.6693462
40
10.4697152
50
71.9613362
51
76.5918411
0
ARC
8
front_labelLayer
10
44.431787
20
71.1150176
40
6.9296182
50
76.5183292
51
83.0217014
0
ARC
8
front_labelLayer
10
44.7147155
20
73.3902879
40
4.6368308
50
83.0760987
51
89.7926714
0
ARC
8
front_labelLayer
10
44.7054062
20
75.1195254
40
2.9076798
50
89.4859306
51
103.4197288
0
ARC
8
front_labelLayer
10
44.4432582
20
76.1266745
40
1.8673108
50
102.7677422
51
144.3380254
0
ARC
8
front_labelLayer
10
44.9713781
20
75.7868782
40
2.4946976
50
145.068867
51
162.1801729
0
ARC
8
front_labelLayer
10
46.7821144
20
75.1776557
40
4.4050743
50
161.8437641
51
171.7847034
0
ARC
8
front_labelLayer
10
49.7354713
20
74.7340694
40
7.3915294
50
171.6527744
51
178.438339
0
ARC
8
front_labelLayer
10
52.5209947
20
74.6152929
40
10.179345
50
178.1973248
51
180.0232048
0
LINE
8
front_labelLayer
10
56.7586426
20
73.7929086
11
56.4599121
21
71.7927133
0
LINE
8
front_labelLayer
10
50.7190918
20
67.0909554
11
50.7190918
21
59.4538461
0
LINE
8
front_labelLayer
10
50.7190918
20
59.4538461
11
48.5630371
21
59.4538461
0
LINE
8
front_labelLayer
10
48.5630371
20
59.4538461
11
48.5630371
21
73.6890023
0
LINE
8
front_labelLayer
10
48.5630371
20
73.6890023
11
50.3424316
21
73.6890023
0
LINE
8
front_labelLayer
10
50.3424316
20
73.6890023
11
50.589209
21
71.0523812
0
LINE
8
front_labelLayer
10
50.589209
20
71.0523812
11
50.6931152
21
71.0523812
0
ARC
8
front_labelLayer
10
55.079308
20
64.0507072
40
9.8980855
50
84.9922796
51
90.1281026
0
ARC
8
front_labelLayer
10
55.3170119
20
66.71391
40
7.2243005
50
78.4891806
51
85.0265865
0
ARC
8
front_labelLayer
10
54.394387
20
62.5175871
40
9.5023344
50
77.4453763
51
81.6360202
0
ARC
8
front_labelLayer
10
54.8084005
20
65.3713406
40
6.6187128
50
81.588409
51
87.1916773
0
ARC
8
front_labelLayer
10
54.8983203
20
66.9307903
40
5.0567481
50
87.343584
51
89.9660308
0
ARC
8
front_labelLayer
10
54.8774242
20
68.2518096
40
3.7358042
50
89.6335349
51
137.0880808
0
ARC
8
front_labelLayer
10
55.7942599
20
67.2208046
40
5.1109551
50
135.6209233
51
138.8377403
0
ARC
8
front_labelLayer
10
55.6599156
20
67.3519365
40
4.9235148
50
138.9575791
51
174.5422184
0
ARC
8
front_labelLayer
10
57.2633902
20
67.1010383
40
6.5443062
50
173.6907514
51
180.0882757
0
ARC
8
front_labelLayer
10
57.0366878
20
67.4784409
40
7.2810688
50
139.4139301
51
150.6032847
0
ARC
8
front_labelLayer
10
55.7311859
20
68.5971191
40
5.5618317
50
124.232143
51
139.416107
0
ARC
8
front_labelLayer
10
55.0331475
20
69.6508056
40
4.2980294
50
89.6796584
51
124.4405646
0
ARC
8
front_labelLayer
10
60.5715099
20
66.5093318
40
11.1368975
50
349.1761887
51
0.3862689
0
ARC
8
front_labelLayer
10
64.3210309
20
65.7618579
40
7.3137771
50
330.25071
51
349.4116395
0
ARC
8
front_labelLayer
10
65.4749534
20
65.1620941
40
6.0145532
50
318.1439747
51
329.7566271
0
ARC
8
front_labelLayer
10
65.6832171
20
64.9951918
40
5.7480846
50
278.8959166
51
317.9979118
0
ARC
8
front_labelLayer
10
65.146595
20
67.5662032
40
8.3722022
50
269.750294
51
279.8033163
0
ARC
8
front_labelLayer
10
65.0595664
20
66.1175897
40
6.9236937
50
253.5436879
51
270.4182466
0
ARC
8
front_labelLayer
10
64.8290915
20
65.2260565
40
6.0034742
50
238.8115611
51
253.2428333
0
ARC
8
front_labelLayer
10
64.754708
20
65.0764704
40
5.8370045
50
207.7947042
51
238.6757961
0
ARC
8
front_labelLayer
10
65.8220175
20
65.7301487
40
7.0864436
50
205.6560098
51
208.4461312
0
ARC
8
front_labelLayer
10
66.6441593
20
66.0727091
40
7.9759871
50
188.9102422
51
205.3171385
0
ARC
8
front_labelLayer
10
69.4147438
20
66.5419566
40
10.7858723
50
179.7744692
51
189.0932831
0
ARC
8
front_labelLayer
10
69.8234431
20
66.6602364
40
11.1947448
50
169.2442975
51
180.388077
0
ARC
8
front_labelLayer
10
66.021792
20
67.4116853
40
7.3197015
50
150.7111452
51
169.4695475
0
ARC
8
front_labelLayer
10
64.8081928
20
68.0349135
40
5.9565634
50
138.1759505
51
150.2287434
0
ARC
8
front_labelLayer
10
64.6063171
20
68.1898284
40
5.7028542
50
99.175935
51
137.9832722
0
ARC
8
front_labelLayer
10
65.1619484
20
65.574964
40
8.373895
50
89.7326269
51
100.0759776
0
ARC
8
front_labelLayer
10
65.2730011
20
66.7042353
40
7.2448902
50
73.5222728
51
90.5692251
0
ARC
8
front_labelLayer
10
65.6978715
20
68.2479004
40
5.644194
50
41.1445657
51
73.2133865
0
ARC
8
front_labelLayer
10
64.8868291
20
67.5508206
40
6.713608
50
13.5014323
51
41.0703413
0
ARC
8
front_labelLayer
10
61.7533758
20
66.7308376
40
9.9521239
50
1.1277174
51
13.8799999
0
ARC
8
front_labelLayer
10
59.0541219
20
66.586194
40
12.6540326
50
359.9919337
51
1.5419817
0
ARC
8
front_labelLayer
10
71.7810049
20
66.5283813
40
10.9182092
50
179.7059625
51
187.9160851
0
ARC
8
front_labelLayer
10
67.7765556
20
65.953145
40
6.8727203
50
187.7639272
51
200.0976815
0
ARC
8
front_labelLayer
10
65.5705064
20
65.1448464
40
4.5232526
50
200.0845901
51
216.9131716
0
ARC
8
front_labelLayer
10
64.7649396
20
64.5696325
40
3.5337697
50
217.3009499
51
261.7099143
0
ARC
8
front_labelLayer
10
65.1389139
20
66.3542013
40
5.3547998
50
260.5033217
51
270.2476676
0
ARC
8
front_labelLayer
10
65.210294
20
66.0071801
40
5.0079608
50
269.4481556
51
284.7255634
0
ARC
8
front_labelLayer
10
65.6067442
20
64.5368728
40
3.4851864
50
284.56623
51
322.6333842
0
ARC
8
front_labelLayer
10
64.6798203
20
65.2065336
40
4.6284014
50
323.0089313
51
342.639047
0
ARC
8
front_labelLayer
10
62.0286285
20
66.0730195
40
7.4174533
50
342.3615679
51
353.753761
0
ARC
8
front_labelLayer
10
58.1172435
20
66.5444864
40
11.3569965
50
353.5363072
51
0.2014267
0
ARC
8
front_labelLayer
10
58.716513
20
66.6393209
40
10.7577971
50
359.7075575
51
7.8972658
0
ARC
8
front_labelLayer
10
62.6563132
20
67.204126
40
6.7777832
50
7.7439986
51
20.0690191
0
ARC
8
front_labelLayer
10
64.8517395
20
68.0097662
40
4.4392077
50
20.025691
51
37.4350692
0
ARC
8
front_labelLayer
10
65.5801539
20
68.5266398
40
3.5467755
50
37.95776
51
80.4006208
0
ARC
8
front_labelLayer
10
65.1662162
20
66.6796862
40
5.4378174
50
79.3453555
51
90.3174908
0
ARC
8
front_labelLayer
10
65.0895699
20
66.9864691
40
5.131162
50
89.4806056
51
103.8805075
0
ARC
8
front_labelLayer
10
64.6584189
20
68.6282889
40
3.4339431
50
103.4685212
51
142.3118873
0
ARC
8
front_labelLayer
10
65.4966091
20
68.0388146
40
4.4578648
50
142.9025788
51
162.3749654
0
ARC
8
front_labelLayer
10
68.1377495
20
67.1586606
40
7.2416305
50
162.0653121
51
173.1674788
0
ARC
8
front_labelLayer
10
72.2559695
20
66.6334054
40
11.3931355
50
173.0086118
51
180.2463848
0
LINE
8
front_labelLayer
10
87.3850097
20
59.4538461
11
85.2289551
21
59.4538461
0
LINE
8
front_labelLayer
10
85.2289551
20
59.4538461
11
85.2289551
21
68.6625375
0
LINE
8
front_labelLayer
10
77.6437988
20
66.9221078
11
77.6437988
21
59.4538461
0
LINE
8
front_labelLayer
10
77.6437988
20
59.4538461
11
75.4877441
21
59.4538461
0
LINE
8
front_labelLayer
10
75.4877441
20
59.4538461
11
75.4877441
21
73.6890023
0
LINE
8
front_labelLayer
10
75.4877441
20
73.6890023
11
77.2411621
21
73.6890023
0
LINE
8
front_labelLayer
10
77.2411621
20
73.6890023
11
77.5918457
21
71.7407601
0
LINE
8
front_labelLayer
10
77.5918457
20
71.7407601
11
77.6957519
21
71.7407601
0
LINE
8
front_labelLayer
10
87.3850097
20
68.7404672
11
87.3850097
21
59.4538461
0
ARC
8
front_labelLayer
10
79.1344126
20
68.6974885
40
6.0946427
50
359.6714233
51
8.6877086
0
ARC
8
front_labelLayer
10
81.3932692
20
69.0557255
40
3.8076141
50
8.4931537
51
22.657993
0
ARC
8
front_labelLayer
10
82.5409163
20
69.5326522
40
2.5648161
50
22.702441
51
42.3419425
0
ARC
8
front_labelLayer
10
82.6699198
20
69.5906822
40
2.4307766
50
43.3790896
51
71.5386051
0
ARC
8
front_labelLayer
10
82.18752
20
68.2427329
40
3.8622382
50
71.0827991
51
84.3691001
0
ARC
8
front_labelLayer
10
81.9709766
20
66.401617
40
5.7158233
50
84.01977
51
90.1510466
0
ARC
8
front_labelLayer
10
81.9095917
20
65.5921964
40
6.5253882
50
89.5933179
51
100.3717925
0
ARC
8
front_labelLayer
10
81.448447
20
68.0116697
40
4.0624666
50
100.1176414
51
118.1602591
0
ARC
8
front_labelLayer
10
80.9837287
20
68.9229424
40
3.0398096
50
118.5439301
51
139.1926901
0
ARC
8
front_labelLayer
10
81.3889413
20
68.6510401
40
3.5247065
50
140.1519283
51
160.3146359
0
ARC
8
front_labelLayer
10
83.8358611
20
67.7345301
40
6.1374728
50
159.9534515
51
171.3800965
0
ARC
8
front_labelLayer
10
87.8329161
20
67.0920182
40
10.1857417
50
171.1765775
51
178.3217586
0
ARC
8
front_labelLayer
10
91.4560603
20
66.9278107
40
13.8122627
50
178.0810499
51
180.0236567
0
ARC
8
front_labelLayer
10
81.3840118
20
69.4048635
40
4.3657386
50
116.9442916
51
147.6525711
0
ARC
8
front_labelLayer
10
81.8384712
20
68.6447374
40
5.2496284
50
115.8071953
51
117.6067508
0
ARC
8
front_labelLayer
10
82.0707427
20
68.1031469
40
5.8383818
50
94.3226748
51
115.5454394
0
ARC
8
front_labelLayer
10
82.2104843
20
66.8890314
40
7.0597384
50
89.9578828
51
94.7108761
0
ARC
8
front_labelLayer
10
82.2682409
20
65.436455
40
8.5124752
50
80.5585347
51
90.3538212
0
ARC
8
front_labelLayer
10
82.8002184
20
68.5178693
40
5.3855718
50
65.1094217
51
80.763823
0
ARC
8
front_labelLayer
10
83.4220717
20
69.8952593
40
3.8744249
50
46.5584485
51
64.8782271
0
ARC
8
front_labelLayer
10
83.4718439
20
70.0387397
40
3.7365464
50
19.3848829
51
45.5997161
0
ARC
8
front_labelLayer
10
81.310137
20
69.2276291
40
6.0451117
50
6.9633614
51
19.8363456
0
ARC
8
front_labelLayer
10
77.9760776
20
68.7793622
40
9.4090124
50
359.7631497
51
7.2115501
0
LINE
8
front_labelLayer
10
98.3601074
20
61.2332406
11
98.3601074
21
59.5837289
0
LINE
8
front_labelLayer
10
91.969873
20
63.5451547
11
91.969873
21
72.013514
0
LINE
8
front_labelLayer
10
91.969873
20
72.013514
11
89.9307129
21
72.013514
0
LINE
8
front_labelLayer
10
89.9307129
20
72.013514
11
89.9307129
21
73.0525765
0
LINE
8
front_labelLayer
10
89.9307129
20
73.0525765
11
91.969873
21
73.9487679
0
LINE
8
front_labelLayer
10
91.969873
20
73.9487679
11
92.8790527
21
76.9880258
0
LINE
8
front_labelLayer
10
92.8790527
20
76.9880258
11
94.1259277
21
76.9880258
0
LINE
8
front_labelLayer
10
94.1259277
20
76.9880258
11
94.1259277
21
73.6890023
0
LINE
8
front_labelLayer
10
94.1259277
20
73.6890023
11
98.2562011
21
73.6890023
0
LINE
8
front_labelLayer
10
98.2562011
20
73.6890023
11
98.2562011
21
72.013514
0
LINE
8
front_labelLayer
10
98.2562011
20
72.013514
11
94.1259277
21
72.013514
0
LINE
8
front_labelLayer
10
94.1259277
20
72.013514
11
94.1259277
21
63.6360726
0
ARC
8
front_labelLayer
10
96.4266498
20
68.0542655
40
7.080806
50
269.8803671
51
278.3028121
0
ARC
8
front_labelLayer
10
96.4934345
20
67.5075551
40
6.5301944
50
278.4156708
51
279.0078806
0
ARC
8
front_labelLayer
10
95.6994961
20
72.5793891
40
11.663788
50
278.9589939
51
280.5103851
0
ARC
8
front_labelLayer
10
96.4567191
20
68.5163448
40
7.5307867
50
280.484798
51
282.6268452
0
ARC
8
front_labelLayer
10
97.12075
20
65.5662499
40
4.5068853
50
282.5877044
51
285.579461
0
ARC
8
front_labelLayer
10
97.4537855
20
64.34144
40
3.2376416
50
285.7237477
51
286.2561903
0
ARC
8
front_labelLayer
10
97.4536575
20
61.5009184
40
2.1206761
50
287.9887446
51
295.3048492
0
ARC
8
front_labelLayer
10
96.9421323
20
63.0485145
40
3.7506056
50
283.3069786
51
288.1197568
0
ARC
8
front_labelLayer
10
96.4017574
20
65.3026312
40
6.0685824
50
280.00706
51
283.3734469
0
ARC
8
front_labelLayer
10
96.0403298
20
67.2640472
40
8.0629773
50
279.1862566
51
280.1143231
0
ARC
8
front_labelLayer
10
95.818346
20
68.5266595
40
9.3448511
50
275.5260399
51
279.2939696
0
ARC
8
front_labelLayer
10
96.0684196
20
65.914646
40
6.7208956
50
270.8932756
51
275.5483812
0
ARC
8
front_labelLayer
10
96.0998273
20
64.7211924
40
5.5271121
50
270.0033082
51
270.7606069
0
ARC
8
front_labelLayer
10
96.013143
20
64.8247061
40
5.6312978
50
253.7847908
51
270.8852538
0
ARC
8
front_labelLayer
10
95.3459837
20
62.5494407
40
3.2602461
50
190.3817621
51
253.877242
0
ARC
8
front_labelLayer
10
98.7464836
20
63.4688759
40
6.7770399
50
179.3550957
51
192.847761
0
ARC
8
front_labelLayer
10
98.4674082
20
63.6089184
40
4.3415655
50
179.6416418
51
189.7506074
0
ARC
8
front_labelLayer
10
96.9347633
20
63.3355511
40
2.7847807
50
189.5479554
51
205.78735
0
ARC
8
front_labelLayer
10
96.3049035
20
63.0451042
40
2.091329
50
206.1294467
51
221.4083871
0
ARC
8
front_labelLayer
10
96.2342775
20
62.9915146
40
2.0029238
50
221.5949167
51
262.3505151
0
ARC
8
front_labelLayer
10
96.4022429
20
63.8552548
40
2.8817959
50
261.3266171
51
270.1913115
0
LINE
8
left_outsideCutPath
10
142
20
136
11
142
21
112.8125
0
LINE
8
left_outsideCutPath
10
142
20
112.8125
11
139
21
112.8125
0
LINE
8
left_outsideCutPath
10
139
20
112.8125
11
139
21
83.9375
0
LINE
8
left_outsideCutPath
10
139
20
83.9375
11
142
21
83.9375
0
LINE
8
left_outsideCutPath
10
142
20
83.9375
11
142
21
55.0625
0
LINE
8
left_outsideCutPath
10
142
20
55.0625
11
139
21
55.0625
0
LINE
8
left_outsideCutPath
10
139
20
55.0625
11
139
21
26.1875
0
LINE
8
left_outsideCutPath
10
139
20
26.1875
11
142
21
26.1875
0
LINE
8
left_outsideCutPath
10
142
20
26.1875
11
142
21
3
0
LINE
8
left_outsideCutPath
10
142
20
3
11
163.6875
21
3
0
LINE
8
left_outsideCutPath
10
163.6875
20
3
11
163.6875
21
6
0
LINE
8
left_outsideCutPath
10
163.6875
20
6
11
192.5625
21
6
0
LINE
8
left_outsideCutPath
10
192.5625
20
6
11
192.5625
21
3
0
LINE
8
left_outsideCutPath
10
192.5625
20
3
11
221.4375
21
3
0
LINE
8
left_outsideCutPath
10
221.4375
20
3
11
221.4375
21
6
0
LINE
8
left_outsideCutPath
10
221.4375
20
6
11
250.3125
21
6
0
LINE
8
left_outsideCutPath
10
250.3125
20
6
11
250.3125
21
3
0
LINE
8
left_outsideCutPath
10
250.3125
20
3
11
272
21
3
0
LINE
8
left_outsideCutPath
10
272
20
3
11
272
21
26.1875
0
LINE
8
left_outsideCutPath
10
272
20
26.1875
11
275
21
26.1875
0
LINE
8
left_outsideCutPath
10
275
20
26.1875
11
275
21
55.0625
0
LINE
8
left_outsideCutPath
10
275
20
55.0625
11
272
21
55.0625
0
LINE
8
left_outsideCutPath
10
272
20
55.0625
11
272
21
83.9375
0
LINE
8
left_outsideCutPath
10
272
20
83.9375
11
275
21
83.9375
0
LINE
8
left_outsideCutPath
10
275
20
83.9375
11
275
21
112.8125
0
LINE
8
left_outsideCutPath
10
275
20
112.8125
11
272
21
112.8125
0
LINE
8
left_outsideCutPath
10
272
20
112.8125
11
272
21
136
0
LINE
8
left_outsideCutPath
10
272
20
136
11
142
21
136
0
LINE
8
left_labelLayer
10
190.5503418
20
79.6636117
11
190.5503418
21
59.4538461
0
LINE
8
left_labelLayer
10
190.5503418
20
59.4538461
11
188.3942871
21
59.4538461
0
LINE
8
left_labelLayer
10
188.3942871
20
59.4538461
11
188.3942871
21
79.6636117
0
LINE
8
left_labelLayer
10
188.3942871
20
79.6636117
11
190.5503418
21
79.6636117
0
LINE
8
left_labelLayer
10
206.3700683
20
67.5455453
11
206.3700683
21
66.1817758
0
LINE
8
left_labelLayer
10
206.3700683
20
66.1817758
11
196.563916
21
66.1817758
0
LINE
8
left_labelLayer
10
205.7596191
20
62.038514
11
205.7596191
21
60.1162484
0
LINE
8
left_labelLayer
10
196.6158691
20
67.9351937
11
204.0581543
21
67.9351937
0
ARC
8
left_labelLayer
10
201.0648984
20
67.5721106
40
8.3783301
50
256.0087909
51
270.4848094
0
ARC
8
left_labelLayer
10
200.45479
20
65.2035468
40
5.9325587
50
223.5465764
51
256.1957038
0
ARC
8
left_labelLayer
10
200.7913594
20
65.4481702
40
6.3452755
50
194.0877299
51
223.0538132
0
ARC
8
left_labelLayer
10
203.8752366
20
66.2914979
40
9.5419122
50
181.3574607
51
194.4919997
0
ARC
8
left_labelLayer
10
206.645563
20
66.4521099
40
12.3156318
50
179.9887426
51
181.7991436
0
ARC
8
left_labelLayer
10
205.6510652
20
66.530474
40
11.3213883
50
168.9539206
51
180.3843452
0
ARC
8
left_labelLayer
10
201.9535579
20
67.2833511
40
7.5481948
50
149.407102
51
169.1853788
0
ARC
8
left_labelLayer
10
200.9233687
20
67.8276575
40
6.3846296
50
140.1056113
51
148.9067284
0
ARC
8
left_labelLayer
10
200.2904532
20
68.4111753
40
5.5249435
50
92.4762649
51
140.5386344
0
ARC
8
left_labelLayer
10
200.5724787
20
66.3270748
40
7.6216947
50
89.9637943
51
93.917645
0
ARC
8
left_labelLayer
10
200.6397758
20
67.3803925
40
6.5686726
50
74.2125845
51
90.5450027
0
ARC
8
left_labelLayer
10
201.051192
20
68.8962268
40
4.9981128
50
41.2064724
51
74.0232679
0
ARC
8
left_labelLayer
10
200.2720488
20
68.2219368
40
6.0285017
50
11.599425
51
41.1496002
0
ARC
8
left_labelLayer
10
197.5949481
20
67.6045452
40
8.7753185
50
359.6147754
51
12.0336425
0
ARC
8
left_labelLayer
10
205.2158185
20
66.3546559
40
8.6536295
50
181.1447173
51
190.8006949
0
ARC
8
left_labelLayer
10
202.1629067
20
65.7525383
40
5.5420012
50
190.6005827
51
206.0275127
0
ARC
8
left_labelLayer
10
200.8121946
20
65.1139832
40
4.048118
50
206.2950337
51
222.555792
0
ARC
8
left_labelLayer
10
200.6925076
20
65.0513174
40
3.9177274
50
223.0645117
51
258.1401385
0
ARC
8
left_labelLayer
10
201.1689723
20
67.013209
40
5.9359966
50
257.5311816
51
270.431927
0
ARC
8
left_labelLayer
10
201.1742895
20
72.4646269
40
11.387314
50
270.1984
51
292.2090398
0
ARC
8
left_labelLayer
10
200.6272402
20
74.0355972
40
13.0488052
50
291.8255292
51
293.1613471
0
ARC
8
left_labelLayer
10
200.6012562
20
71.987508
40
12.943551
50
287.9023083
51
293.486167
0
ARC
8
left_labelLayer
10
201.5401889
20
69.090582
40
9.8982654
50
281.9935867
51
287.8851102
0
ARC
8
left_labelLayer
10
201.7677509
20
68.2727047
40
9.0511069
50
275.9054613
51
281.6603742
0
ARC
8
left_labelLayer
10
201.3122196
20
72.5246486
40
13.3273633
50
271.9119585
51
275.9727107
0
ARC
8
left_labelLayer
10
201.1459272
20
76.7600225
40
17.5659452
50
269.9669382
51
271.9931492
0
ARC
8
left_labelLayer
10
200.5099442
20
67.8935193
40
4.2500789
50
89.4422213
51
106.2089769
0
ARC
8
left_labelLayer
10
200.2542566
20
68.8257941
40
3.2835221
50
106.4657068
51
137.9176361
0
ARC
8
left_labelLayer
10
200.9873245
20
68.182038
40
4.2590575
50
138.0994694
51
160.5866363
0
ARC
8
left_labelLayer
10
202.8716771
20
67.4888164
40
6.2667497
50
160.3353412
51
172.5315306
0
ARC
8
left_labelLayer
10
204.7272917
20
67.1915057
40
8.1454434
50
172.1545389
51
174.7615369
0
ARC
8
left_labelLayer
10
196.7112078
20
67.9769301
40
7.347065
50
359.6745187
51
8.9224576
0
ARC
8
left_labelLayer
10
199.3364744
20
68.4046765
40
4.6872494
50
8.7342397
51
23.2771884
0
ARC
8
left_labelLayer
10
200.582804
20
68.9278529
40
3.3356389
50
23.4821502
51
39.7072231
0
ARC
8
left_labelLayer
10
200.8889423
20
69.1569451
40
2.9538254
50
40.0822901
51
80.6243275
0
ARC
8
left_labelLayer
10
200.5738245
20
67.712446
40
4.4310078
50
79.6468632
51
90.2910203
0
LINE
8
left_labelLayer
10
216.4619629
20
73.6890023
11
216.4619629
21
72.013514
0
LINE
8
left_labelLayer
10
216.4619629
20
72.013514
11
212.8382324
21
72.013514
0
LINE
8
left_labelLayer
10
212.8382324
20
72.013514
11
212.8382324
21
59.4538461
0
LINE
8
left_labelLayer
10
212.8382324
20
59.4538461
11
210.6821777
21
59.4538461
0
LINE
8
left_labelLayer
10
210.6821777
20
59.4538461
11
210.6821777
21
72.013514
0
LINE
8
left_labelLayer
10
210.6821777
20
72.013514
11
208.1364746
21
72.013514
0
LINE
8
left_labelLayer
10
208.1364746
20
72.013514
11
208.1364746
21
72.9876351
0
LINE
8
left_labelLayer
10
208.1364746
20
72.9876351
11
210.6821777
21
73.766932
0
LINE
8
left_labelLayer
10
210.6821777
20
73.766932
11
210.6821777
21
74.5592172
0
LINE
8
left_labelLayer
10
217.9166504
20
79.3518929
11
217.3581543
21
77.6244515
0
LINE
8
left_labelLayer
10
212.8382324
20
74.6111703
11
212.8382324
21
73.6890023
0
LINE
8
left_labelLayer
10
212.8382324
20
73.6890023
11
216.4619629
21
73.6890023
0
ARC
8
left_labelLayer
10
219.4199099
20
74.6596715
40
8.7383096
50
167.5775967
51
180.6586786
0
ARC
8
left_labelLayer
10
215.3108716
20
75.6176618
40
4.5196859
50
141.7433857
51
168.232213
0
ARC
8
left_labelLayer
10
214.6418369
20
75.9668478
40
3.780714
50
98.2551498
51
139.6203367
0
ARC
8
left_labelLayer
10
215.2292617
20
73.2531627
40
6.553429
50
89.6696987
51
99.9314234
0
ARC
8
left_labelLayer
10
215.2309007
20
72.8635955
40
6.9429813
50
81.5640879
51
89.7017573
0
ARC
8
left_labelLayer
10
214.7427857
20
69.4582452
40
10.3831091
50
75.9740047
51
81.6564697
0
ARC
8
left_labelLayer
10
213.9051876
20
65.9840858
40
13.9567223
50
73.2963495
51
76.0946119
0
ARC
8
left_labelLayer
10
214.1161158
20
67.6693462
40
10.4697152
50
71.9613362
51
76.5918411
0
ARC
8
left_labelLayer
10
214.9283691
20
71.1150176
40
6.9296182
50
76.5183292
51
83.0217014
0
ARC
8
left_labelLayer
10
215.2112975
20
73.3902879
40
4.6368308
50
83.0760987
51
89.7926714
0
ARC
8
left_labelLayer
10
215.2019882
20
75.1195254
40
2.9076798
50
89.4859306
51
103.4197288
0
ARC
8
left_labelLayer
10
214.9398402
20
76.1266745
40
1.8673108
50
102.7677422
51
144.3380254
0
ARC
8
left_labelLayer
10
215.4679601
20
75.7868782
40
2.4946976
50
145.068867
51
162.1801729
0
ARC
8
left_labelLayer
10
217.2786965
20
75.1776557
40
4.4050743
50
161.8437641
51
171.7847034
0
ARC
8
left_labelLayer
10
220.2320534
20
74.7340694
40
7.3915294
50
171.6527744
51
178.438339
0
ARC
8
left_labelLayer
10
223.0175767
20
74.6152929
40
10.179345
50
178.1973248
51
180.0232048
0
LINE
8
left_labelLayer
10
225.6057129
20
61.2332406
11
225.6057129
21
59.5837289
0
LINE
8
left_labelLayer
10
219.2154785
20
63.5451547
11
219.2154785
21
72.013514
0
LINE
8
left_labelLayer
10
219.2154785
20
72.013514
11
217.1763183
21
72.013514
0
LINE
8
left_labelLayer
10
217.1763183
20
72.013514
11
217.1763183
21
73.0525765
0
LINE
8
left_labelLayer
10
217.1763183
20
73.0525765
11
219.2154785
21
73.9487679
0
LINE
8
left_labelLayer
10
219.2154785
20
73.9487679
11
220.1246582
21
76.9880258
0
LINE
8
left_labelLayer
10
220.1246582
20
76.9880258
11
221.3715332
21
76.9880258
0
LINE
8
left_labelLayer
10
221.3715332
20
76.9880258
11
221.3715332
21
73.6890023
0
LINE
8
left_labelLayer
10
221.3715332
20
73.6890023
11
225.5018066
21
73.6890023
0
LINE
8
left_labelLayer
10
225.5018066
20
73.6890023
11
225.5018066
21
72.013514
0
LINE
8
left_labelLayer
10
225.5018066
20
72.013514
11
221.3715332
21
72.013514
0
LINE
8
left_labelLayer
10
221.3715332
20
72.013514
11
221.3715332
21
63.6360726
0
ARC
8
left_labelLayer
10
223.6722553
20
68.0542655
40
7.080806
50
269.8803671
51
278.3028121
0
ARC
8
left_labelLayer
10
223.73904
20
67.5075551
40
6.5301944
50
278.4156708
51
279.0078806
0
ARC
8
left_labelLayer
10
222.9451015
20
72.5793891
40
11.663788
50
278.9589939
51
280.5103851
0
ARC
8
left_labelLayer
10
223.7023245
20
68.5163448
40
7.5307867
50
280.484798
51
282.6268452
0
ARC
8
left_labelLayer
10
224.3663554
20
65.5662499
40
4.5068853
50
282.5877044
51
285.579461
0
ARC
8
left_labelLayer
10
224.699391
20
64.34144
40
3.2376416
50
285.7237477
51
286.2561903
0
ARC
8
left_labelLayer
10
224.699263
20
61.5009184
40
2.1206761
50
287.9887446
51
295.3048492
0
ARC
8
left_labelLayer
10
224.1877378
20
63.0485145
40
3.7506056
50
283.3069786
51
288.1197568
0
ARC
8
left_labelLayer
10
223.6473629
20
65.3026312
40
6.0685824
50
280.00706
51
283.3734469
0
ARC
8
left_labelLayer
10
223.2859353
20
67.2640472
40
8.0629773
50
279.1862566
51
280.1143231
0
ARC
8
left_labelLayer
10
223.0639515
20
68.5266595
40
9.3448511
50
275.5260399
51
279.2939696
0
ARC
8
left_labelLayer
10
223.314025
20
65.914646
40
6.7208956
50
270.8932756
51
275.5483812
0
ARC
8
left_labelLayer
10
223.3454328
20
64.7211924
40
5.5271121
50
270.0033082
51
270.7606069
0
ARC
8
left_labelLayer
10
223.2587485
20
64.8247061
40
5.6312978
50
253.7847908
51
270.8852538
0
ARC
8
left_labelLayer
10
222.5915892
20
62.5494407
40
3.2602461
50
190.3817621
51
253.877242
0
ARC
8
left_labelLayer
10
225.9920891
20
63.4688759
40
6.7770399
50
179.3550957
51
192.847761
0
ARC
8
left_labelLayer
10
225.7130137
20
63.6089184
40
4.3415655
50
179.6416418
51
189.7506074
0
ARC
8
left_labelLayer
10
224.1803688
20
63.3355511
40
2.7847807
50
189.5479554
51
205.78735
0
ARC
8
left_labelLayer
10
223.550509
20
63.0451042
40
2.091329
50
206.1294467
51
221.4083871
0
ARC
8
left_labelLayer
10
223.479883
20
62.9915146
40
2.0029238
50
221.5949167
51
262.3505151
0
ARC
8
left_labelLayer
10
223.6478483
20
63.8552548
40
2.8817959
50
261.3266171
51
270.1913115
0
LINE
8
back_outsideCutPath
10
0
20
272
11
0
21
248.8125
0
LINE
8
back_outsideCutPath
10
0
20
248.8125
11
3
21
248.8125
0
LINE
8
back_outsideCutPath
10
3
20
248.8125
11
3
21
219.9375
0
LINE
8
back_outsideCutPath
10
3
20
219.9375
11
0
21
219.9375
0
LINE
8
back_outsideCutPath
10
0
20
219.9375
11
0
21
191.0625
0
LINE
8
back_outsideCutPath
10
0
20
191.0625
11
3
21
191.0625
0
LINE
8
back_outsideCutPath
10
3
20
191.0625
11
3
21
162.1875
0
LINE
8
back_outsideCutPath
10
3
20
162.1875
11
0
21
162.1875
0
LINE
8
back_outsideCutPath
10
0
20
162.1875
11
0
21
139
0
LINE
8
back_outsideCutPath
10
0
20
139
11
24.6875
21
139
0
LINE
8
back_outsideCutPath
10
24.6875
20
139
11
24.6875
21
142
0
LINE
8
back_outsideCutPath
10
24.6875
20
142
11
53.5625
21
142
0
LINE
8
back_outsideCutPath
10
53.5625
20
142
11
53.5625
21
139
0
LINE
8
back_outsideCutPath
10
53.5625
20
139
11
82.4375
21
139
0
LINE
8
back_outsideCutPath
10
82.4375
20
139
11
82.4375
21
142
0
LINE
8
back_outsideCutPath
10
82.4375
20
142
11
111.3125
21
142
0
LINE
8
back_outsideCutPath
10
111.3125
20
142
11
111.3125
21
139
0
LINE
8
back_outsideCutPath
10
111.3125
20
139
11
136
21
139
0
LINE
8
back_outsideCutPath
10
136
20
139
11
136
21
162.1875
0
LINE
8
back_outsideCutPath
10
136
20
162.1875
11
133
21
162.1875
0
LINE
8
back_outsideCutPath
10
133
20
162.1875
11
133
21
191.0625
0
LINE
8
back_outsideCutPath
10
133
20
191.0625
11
136
21
191.0625
0
LINE
8
back_outsideCutPath
10
136
20
191.0625
11
136
21
219.9375
0
LINE
8
back_outsideCutPath
10
136
20
219.9375
11
133
21
219.9375
0
LINE
8
back_outsideCutPath
10
133
20
219.9375
11
133
21
248.8125
0
LINE
8
back_outsideCutPath
10
133
20
248.8125
11
136
21
248.8125
0
LINE
8
back_outsideCutPath
10
136
20
248.8125
11
136
21
272
0
LINE
8
back_outsideCutPath
10
136
20
272
11
0
21
272
0
LINE
8
back_labelLayer
10
42.5819336
20
197.3564944
11
42.4260742
21
197.3564944
0
LINE
8
back_labelLayer
10
42.4260742
20
197.3564944
11
41.9714844
21
195.5251467
0
LINE
8
back_labelLayer
10
41.9714844
20
195.5251467
11
40.4258789
21
195.5251467
0
LINE
8
back_labelLayer
10
40.4258789
20
195.5251467
11
40.4258789
21
215.7349123
0
LINE
8
back_labelLayer
10
40.4258789
20
215.7349123
11
42.5819336
21
215.7349123
0
LINE
8
back_labelLayer
10
42.5819336
20
215.7349123
11
42.5819336
21
210.825342
0
LINE
8
back_labelLayer
10
42.4780273
20
207.8640139
11
42.5819336
21
207.8640139
0
ARC
8
back_labelLayer
10
47.1145817
20
203.4047625
40
6.5896469
50
74.2393266
51
90.5623845
0
ARC
8
back_labelLayer
10
47.550312
20
205.0032535
40
4.9329212
50
38.5631255
51
74.0670432
0
ARC
8
back_labelLayer
10
46.4289834
20
204.1313542
40
6.3532574
50
16.4709288
51
38.4075339
0
ARC
8
back_labelLayer
10
43.1985955
20
203.1183998
40
9.7384418
50
5.1338473
51
16.7973361
0
ARC
8
back_labelLayer
10
39.120533
20
202.6851976
40
13.8390689
50
359.8779298
51
5.4093681
0
ARC
8
back_labelLayer
10
40.3183374
20
202.5811329
40
12.6414529
50
350.6562783
51
0.3380276
0
ARC
8
back_labelLayer
10
44.7253577
20
201.8315461
40
8.1712397
50
335.8305933
51
350.8254856
0
ARC
8
back_labelLayer
10
46.6639302
20
200.9948294
40
6.0600988
50
321.3161353
51
335.5436254
0
ARC
8
back_labelLayer
10
47.4050498
20
200.3909278
40
5.1041304
50
274.0640081
51
321.4081021
0
ARC
8
back_labelLayer
10
47.0597819
20
202.5779769
40
7.3126027
50
269.9225917
51
275.548176
0
ARC
8
back_labelLayer
10
47.0135427
20
201.8050581
40
6.5397781
50
255.7755397
51
270.3185532
0
ARC
8
back_labelLayer
10
46.8269203
20
200.9759075
40
5.6902374
50
245.980171
51
255.5455667
0
ARC
8
back_labelLayer
10
46.4654375
20
200.1352745
40
4.7752719
50
215.5850191
51
245.8361673
0
ARC
8
back_labelLayer
10
-2.3701345
20
210.7873398
40
44.9520841
50
358.1123218
51
0.0484375
0
ARC
8
back_labelLayer
10
10.1409074
20
210.3673052
40
32.4339966
50
355.7238617
51
358.1259063
0
ARC
8
back_labelLayer
10
15.6682411
20
209.9874286
40
26.8937452
50
355.4714578
51
355.6528799
0
ARC
8
back_labelLayer
10
46.6028818
20
205.0600982
40
4.9020371
50
95.1835152
51
145.1108953
0
ARC
8
back_labelLayer
10
47.0337535
20
202.6303504
40
7.3637593
50
89.8743495
51
96.8145206
0
ARC
8
back_labelLayer
10
46.6930445
20
202.1301952
40
6.0586939
50
89.5731252
51
100.732418
0
ARC
8
back_labelLayer
10
46.2445326
20
204.3962348
40
3.7488161
50
100.4469369
51
119.6700724
0
ARC
8
back_labelLayer
10
45.8286269
20
205.1738204
40
2.8674008
50
120.1402957
51
142.4249039
0
ARC
8
back_labelLayer
10
46.5167055
20
204.7186333
40
3.6907831
50
143.3382226
51
161.2560026
0
ARC
8
back_labelLayer
10
49.3941421
20
203.6970457
40
6.7440243
50
160.8926327
51
171.2334249
0
ARC
8
back_labelLayer
10
54.197667
20
202.9221243
40
11.6095861
50
171.0667801
51
177.8456955
0
ARC
8
back_labelLayer
10
59.1931668
20
202.6680449
40
16.6112379
50
177.6176507
51
180.0425348
0
ARC
8
back_labelLayer
10
56.8374792
20
202.6000456
40
14.2556543
50
179.7762626
51
185.707522
0
ARC
8
back_labelLayer
10
51.2169652
20
202.0209331
40
8.6054282
50
185.5924747
51
194.2050798
0
ARC
8
back_labelLayer
10
47.6165498
20
201.086498
40
4.8858474
50
193.9430355
51
208.0218386
0
ARC
8
back_labelLayer
10
46.1597989
20
200.3454081
40
3.2518435
50
208.5536459
51
217.5605449
0
ARC
8
back_labelLayer
10
46.041119
20
200.296047
40
3.1278507
50
218.1690449
51
253.8047171
0
ARC
8
back_labelLayer
10
46.6212765
20
202.084736
40
5.0077102
50
253.1382563
51
266.8482986
0
ARC
8
back_labelLayer
10
46.7839598
20
204.0032768
40
6.9325274
50
266.3775629
51
270.0510505
0
ARC
8
back_labelLayer
10
46.8361286
20
201.3685797
40
4.2980736
50
269.3868902
51
285.8630662
0
ARC
8
back_labelLayer
10
47.1554484
20
200.2145142
40
3.100686
50
286.0162884
51
326.8497395
0
ARC
8
back_labelLayer
10
45.6142405
20
201.2355077
40
4.9493773
50
326.7105106
51
343.6661673
0
ARC
8
back_labelLayer
10
42.7292208
20
202.1170767
40
7.9659577
50
343.4171279
51
353.6369274
0
ARC
8
back_labelLayer
10
38.3716283
20
202.6341377
40
12.3540493
50
353.4934769
51
0.2205378
0
ARC
8
back_labelLayer
10
37.9875197
20
202.7332506
40
12.7381706
50
359.7680803
51
6.3095176
0
ARC
8
back_labelLayer
10
42.785729
20
203.2838713
40
7.9085376
50
6.1648749
51
16.0396428
0
ARC
8
back_labelLayer
10
45.876666
20
204.1947701
40
4.686294
50
15.7779396
51
32.015135
0
ARC
8
back_labelLayer
10
46.84049
20
204.7467169
40
3.5767071
50
32.703409
51
35.5242092
0
ARC
8
back_labelLayer
10
47.1930471
20
204.9972973
40
3.1441726
50
35.5408348
51
79.8011305
0
ARC
8
back_labelLayer
10
46.7708153
20
203.2023009
40
4.9865267
50
78.6781464
51
90.3749452
0
LINE
8
back_labelLayer
10
67.077832
20
195.5251467
11
65.4802734
21
195.5251467
0
LINE
8
back_labelLayer
10
65.4802734
20
195.5251467
11
65.0516602
21
197.5513186
0
LINE
8
back_labelLayer
10
65.0516602
20
197.5513186
11
64.9477539
21
197.5513186
0
LINE
8
back_labelLayer
10
62.5579102
20
203.9805178
11
64.9737305
21
204.0584475
0
LINE
8
back_labelLayer
10
64.9737305
20
204.0584475
11
64.9737305
21
204.9416506
0
LINE
8
back_labelLayer
10
57.9210938
20
207.1236819
11
57.2586914
21
208.7731936
0
LINE
8
back_labelLayer
10
67.077832
20
205.2403811
11
67.077832
21
195.5251467
0
LINE
8
back_labelLayer
10
64.9217773
20
201.2399905
11
64.9217773
21
202.5258303
0
LINE
8
back_labelLayer
10
64.9217773
20
202.5258303
11
62.7657227
21
202.4349123
0
ARC
8
back_labelLayer
10
57.9328025
20
203.0899658
40
8.9379056
50
314.7444988
51
321.7071818
0
ARC
8
back_labelLayer
10
60.1287041
20
200.8587577
40
5.8073966
50
304.8485578
51
314.8530799
0
ARC
8
back_labelLayer
10
61.1835756
20
199.357256
40
3.9724105
50
294.3932514
51
304.7371455
0
ARC
8
back_labelLayer
10
60.8231827
20
200.291056
40
4.9720254
50
281.2979637
51
293.7313744
0
ARC
8
back_labelLayer
10
60.3467703
20
202.6000023
40
7.3295775
50
272.9335108
51
281.4139035
0
ARC
8
back_labelLayer
10
60.1888628
20
204.9681812
40
9.7028031
50
269.9538922
51
273.1490708
0
ARC
8
back_labelLayer
10
60.1343154
20
201.8818651
40
6.6166491
50
258.6719773
51
270.4047348
0
ARC
8
back_labelLayer
10
59.6747128
20
199.6833101
40
4.3706874
50
238.3273065
51
258.9183787
0
ARC
8
back_labelLayer
10
59.3579984
20
199.1054997
40
3.7127936
50
227.768959
51
237.8049997
0
ARC
8
back_labelLayer
10
59.2589238
20
198.9671944
40
3.5438507
50
192.0827574
51
227.452086
0
ARC
8
back_labelLayer
10
61.085982
20
199.4175831
40
5.4250197
50
179.5457201
51
192.6949417
0
ARC
8
back_labelLayer
10
59.3886613
20
199.6140114
40
3.7306842
50
115.4904597
51
182.3568158
0
ARC
8
back_labelLayer
10
61.2570312
20
196.1870341
40
7.6310783
50
101.3568231
51
117.0798551
0
ARC
8
back_labelLayer
10
62.7575009
20
189.1751968
40
14.8013688
50
92.469625
51
101.7064882
0
ARC
8
back_labelLayer
10
63.1887539
20
182.9292996
40
21.0606684
50
91.716474
51
92.9095857
0
ARC
8
back_labelLayer
10
58.7811045
20
204.9747962
40
6.1927147
50
359.6933314
51
8.0035644
0
ARC
8
back_labelLayer
10
61.1236902
20
205.3160609
40
3.8254492
50
7.827258
51
20.604158
0
ARC
8
back_labelLayer
10
62.4493184
20
205.8231795
40
2.40617
50
20.4094009
51
41.4479507
0
ARC
8
back_labelLayer
10
62.6451792
20
205.9308375
40
2.1886455
50
42.7295579
51
71.0380198
0
ARC
8
back_labelLayer
10
62.1840563
20
204.6770373
40
3.5243619
50
70.5716127
51
83.9928669
0
ARC
8
back_labelLayer
10
61.9637604
20
202.887595
40
5.3271275
50
83.6506582
51
90.1753088
0
ARC
8
back_labelLayer
10
62.0024049
20
201.1952655
40
7.0196471
50
90.4484684
51
103.7665514
0
ARC
8
back_labelLayer
10
62.8278823
20
197.7141954
40
10.5971872
50
103.6226586
51
112.4319921
0
ARC
8
back_labelLayer
10
64.2428285
20
194.1415723
40
14.4395116
50
112.2122313
51
115.9641106
0
ARC
8
back_labelLayer
10
61.976896
20
200.0233369
40
9.9408977
50
106.3568666
51
118.3349761
0
ARC
8
back_labelLayer
10
62.4001522
20
198.7159754
40
11.314606
50
104.5161617
51
106.5490279
0
ARC
8
back_labelLayer
10
62.089795
20
200.0091556
40
9.9849442
50
90.0714481
51
104.6520998
0
ARC
8
back_labelLayer
10
62.1289791
20
200.8882392
40
9.1059992
50
81.5679774
51
90.3248961
0
ARC
8
back_labelLayer
10
62.6554799
20
204.3182311
40
5.6359082
50
68.2273307
51
81.7494408
0
ARC
8
back_labelLayer
10
63.3887963
20
206.1427819
40
3.6695128
50
47.8683368
51
68.293415
0
ARC
8
back_labelLayer
10
63.5078171
20
206.3804296
40
3.4141699
50
19.2330977
51
46.674122
0
ARC
8
back_labelLayer
10
61.5251544
20
205.6428737
40
5.5293018
50
6.3378953
51
19.6815471
0
ARC
8
back_labelLayer
10
58.5942617
20
205.2695994
40
8.4836205
50
359.8026679
51
6.6583373
0
ARC
8
back_labelLayer
10
60.6532652
20
202.9808553
40
5.9362398
50
269.5792015
51
282.0413683
0
ARC
8
back_labelLayer
10
61.0862712
20
201.0602239
40
3.9676003
50
281.7121047
51
306.4593886
0
ARC
8
back_labelLayer
10
61.2783018
20
200.7444316
40
3.5996541
50
306.9880713
51
313.8559687
0
ARC
8
back_labelLayer
10
61.2554322
20
200.7379225
40
3.6108666
50
314.1892017
51
347.4269845
0
ARC
8
back_labelLayer
10
59.4466644
20
201.1911927
40
5.4751449
50
346.9177505
51
0.2824681
0
ARC
8
back_labelLayer
10
58.0985253
20
201.2399146
40
6.8232519
50
359.8175332
51
0.000637
0
ARC
8
back_labelLayer
10
63.2785812
20
186.6122248
40
15.830997
50
91.8564701
51
96.4478417
0
ARC
8
back_labelLayer
10
62.5646544
20
192.7900279
40
9.6121112
50
96.3545454
51
102.9953109
0
ARC
8
back_labelLayer
10
61.5955374
20
196.9075262
40
5.3821731
50
102.7995482
51
113.2433182
0
ARC
8
back_labelLayer
10
60.7966237
20
198.8182187
40
3.3113373
50
113.5886477
51
121.6805083
0
ARC
8
back_labelLayer
10
60.2415668
20
199.6635556
40
2.3006335
50
120.9734091
51
172.4179763
0
ARC
8
back_labelLayer
10
61.3264899
20
199.4468511
40
3.4054182
50
171.2122295
51
180.2057981
0
ARC
8
back_labelLayer
10
61.0022459
20
199.4091615
40
3.0812573
50
179.5266069
51
192.7787104
0
ARC
8
back_labelLayer
10
59.9599066
20
199.1564953
40
2.0089114
50
192.3264495
51
222.0579821
0
ARC
8
back_labelLayer
10
59.8823519
20
199.1101056
40
1.9203338
50
222.5804157
51
229.254717
0
ARC
8
back_labelLayer
10
60.1443666
20
199.4474369
40
2.3470185
50
229.783686
51
254.2724221
0
ARC
8
back_labelLayer
10
60.4933057
20
200.6102454
40
3.5609377
50
253.9396768
51
266.4533641
0
ARC
8
back_labelLayer
10
60.604673
20
201.8939608
40
4.8491877
50
266.0783101
51
270.0590178
0
LINE
8
back_labelLayer
10
81.0142578
20
209.2797366
11
80.3518555
21
207.4483889
0
LINE
8
back_labelLayer
10
80.8064453
20
197.9149905
11
80.8064453
21
196.0057131
0
ARC
8
back_labelLayer
10
77.1399228
20
203.3231343
40
8.0580467
50
256.4243787
51
270.488977
0
ARC
8
back_labelLayer
10
76.4960087
20
200.8099897
40
5.4640906
50
221.7976315
51
256.8020516
0
ARC
8
back_labelLayer
10
77.1195644
20
201.2707109
40
6.2364422
50
196.0166614
51
221.1349248
0
ARC
8
back_labelLayer
10
80.2535011
20
202.2286036
40
9.5131877
50
183.5913694
51
196.3539553
0
ARC
8
back_labelLayer
10
83.7642999
20
202.5378965
40
13.0367683
50
179.9388645
51
183.9815038
0
ARC
8
back_labelLayer
10
82.6235497
20
202.6283989
40
11.8962572
50
169.8978356
51
180.3688914
0
ARC
8
back_labelLayer
10
78.4821936
20
203.3944908
40
7.6847813
50
153.0875169
51
170.1051416
0
ARC
8
back_labelLayer
10
76.9108767
20
204.1453078
40
5.9439444
50
138.6550077
51
152.6853506
0
ARC
8
back_labelLayer
10
76.6176031
20
204.3590259
40
5.5826895
50
101.4912898
51
138.3133872
0
ARC
8
back_labelLayer
10
77.290881
20
201.5569175
40
8.4633688
50
89.5891918
51
102.178778
0
ARC
8
back_labelLayer
10
77.3426536
20
200.2904144
40
9.7296583
50
77.77024
51
89.9475375
0
ARC
8
back_labelLayer
10
77.158517
20
199.2745231
40
10.7615588
50
74.6796873
51
77.9578673
0
ARC
8
back_labelLayer
10
78.1532678
20
202.8783166
40
7.023006
50
70.0945624
51
74.7386298
0
ARC
8
back_labelLayer
10
79.0994759
20
205.4714007
40
4.2626946
50
63.5034053
51
70.186144
0
ARC
8
back_labelLayer
10
79.5561289
20
206.426965
40
3.2038172
50
62.9271922
51
63.1880563
0
ARC
8
back_labelLayer
10
76.810006
20
198.5347821
40
9.5915111
50
68.3294469
51
74.8831225
0
ARC
8
back_labelLayer
10
76.3040523
20
196.7407701
40
11.4554083
50
74.7801529
51
77.449762
0
ARC
8
back_labelLayer
10
76.8352491
20
199.2341362
40
8.9062228
50
77.2999119
51
81.7345034
0
ARC
8
back_labelLayer
10
77.2227457
20
201.9341815
40
6.1785193
50
81.6910317
51
87.5078762
0
ARC
8
back_labelLayer
10
77.2975053
20
203.3313751
40
4.7794167
50
87.6749426
51
89.9747764
0
ARC
8
back_labelLayer
10
77.1927275
20
203.3295395
40
4.7824462
50
88.7194023
51
112.5667653
0
ARC
8
back_labelLayer
10
76.8529028
20
204.4530893
40
3.6164174
50
114.4265789
51
161.6632773
0
ARC
8
back_labelLayer
10
80.2287232
20
203.1317569
40
7.2390717
50
160.1418408
51
175.1368222
0
ARC
8
back_labelLayer
10
84.8750921
20
202.6100023
40
11.9136123
50
174.5309729
51
180.1549494
0
ARC
8
back_labelLayer
10
83.4030722
20
202.523864
40
10.4416879
50
179.7041311
51
188.0743722
0
ARC
8
back_labelLayer
10
79.6421073
20
201.9735935
40
6.6407376
50
187.931525
51
200.3885443
0
ARC
8
back_labelLayer
10
77.6085221
20
201.220255
40
4.4721023
50
200.4183536
51
216.6392677
0
ARC
8
back_labelLayer
10
76.7559888
20
200.6108002
40
3.4243719
50
216.9695341
51
261.3103069
0
ARC
8
back_labelLayer
10
77.1322279
20
202.3648926
40
5.2162682
50
260.1359546
51
270.2692243
0
ARC
8
back_labelLayer
10
77.1148608
20
206.1740928
40
9.025508
50
270.2658481
51
286.289142
0
ARC
8
back_labelLayer
10
76.5661758
20
208.220315
40
11.1435899
50
286.046076
51
292.3653997
0
ARC
8
back_labelLayer
10
78.0274008
20
201.4727558
40
6.1328333
50
282.0344212
51
296.9454531
0
ARC
8
back_labelLayer
10
77.396677
20
204.3151835
40
9.0443295
50
272.5980436
51
282.1878417
0
ARC
8
back_labelLayer
10
77.2158052
20
207.0891807
40
11.8238018
50
269.9655282
51
272.8642908
0
LINE
8
back_labelLayer
10
86.2095703
20
202.8115725
11
86.3134766
21
202.8115725
0
LINE
8
back_labelLayer
10
88.0149414
20
204.8896975
11
92.612793
21
209.760303
0
LINE
8
back_labelLayer
10
92.612793
20
209.760303
11
95.1714844
21
209.760303
0
LINE
8
back_labelLayer
10
95.1714844
20
209.760303
11
89.4046875
21
203.6947756
0
LINE
8
back_labelLayer
10
89.4046875
20
203.6947756
11
95.5741211
21
195.5251467
0
LINE
8
back_labelLayer
10
95.5741211
20
195.5251467
11
92.9634766
21
195.5251467
0
LINE
8
back_labelLayer
10
92.9634766
20
195.5251467
11
87.9370117
21
202.2530764
0
LINE
8
back_labelLayer
10
87.9370117
20
202.2530764
11
86.3134766
21
200.850342
0
LINE
8
back_labelLayer
10
86.3134766
20
200.850342
11
86.3134766
21
195.5251467
0
LINE
8
back_labelLayer
10
86.3134766
20
195.5251467
11
84.1833984
21
195.5251467
0
LINE
8
back_labelLayer
10
84.1833984
20
195.5251467
11
84.1833984
21
215.7349123
0
LINE
8
back_labelLayer
10
84.1833984
20
215.7349123
11
86.3134766
21
215.7349123
0
LINE
8
back_labelLayer
10
86.3134766
20
215.7349123
11
86.3134766
21
205.0195803
0
ARC
8
back_labelLayer
10
96.7312456
20
195.4374345
40
12.7635349
50
142.3233654
51
144.7075236
0
ARC
8
back_labelLayer
10
103.52853
20
190.1945329
40
21.3478857
50
140.4331446
51
142.3365579
0
ARC
8
back_labelLayer
10
112.3858081
20
182.9034146
40
32.8200906
50
139.2798978
51
140.4703324
0
ARC
8
back_labelLayer
10
122.6276361
20
174.09614
40
46.3279809
50
138.3417641
51
139.2877161
0
ARC
8
back_labelLayer
10
71.9454941
20
205.0464763
40
14.3680076
50
358.2739287
51
359.892746
0
ARC
8
back_labelLayer
10
60.7704229
20
205.3578882
40
25.5474009
50
357.5041099
51
358.3307471
0
ARC
8
back_labelLayer
10
44.0396743
20
206.0968392
40
42.2944586
50
356.6324917
51
357.4910182
0
ARC
8
back_labelLayer
10
16.2280094
20
207.718904
40
70.1533833
50
356.0329259
51
356.6442532
0
ARC
8
back_labelLayer
10
-3.4917796
20
209.0516367
40
89.9181326
50
356.0206364
51
356.0550613
0
LINE
8
right_outsideCutPath
10
142
20
272
11
142
21
248.8125
0
LINE
8
right_outsideCutPath
10
142
20
248.8125
11
139
21
248.8125
0
LINE
8
right_outsideCutPath
10
139
20
248.8125
11
139
21
219.9375
0
LINE
8
right_outsideCutPath
10
139
20
219.9375
11
142
21
219.9375
0
LINE
8
right_outsideCutPath
10
142
20
219.9375
11
142
21
191.0625
0
LINE
8
right_outsideCutPath
10
142
20
191.0625
11
139
21
191.0625
0
LINE
8
right_outsideCutPath
10
139
20
191.0625
11
139
21
162.1875
0
LINE
8
right_outsideCutPath
10
139
20
162.1875
11
142
21
162.1875
0
LINE
8
right_outsideCutPath
10
142
20
162.1875
11
142
21
139
0
LINE
8
right_outsideCutPath
10
142
20
139
11
163.6875
21
139
0
LINE
8
right_outsideCutPath
10
163.6875
20
139
11
163.6875
21
142
0
LINE
8
right_outsideCutPath
10
163.6875
20
142
11
192.5625
21
142
0
LINE
8
right_outsideCutPath
10
192.5625
20
142
11
192.5625
21
139
0
LINE
8
right_outsideCutPath
10
192.5625
20
139
11
221.4375
21
139
0
LINE
8
right_outsideCutPath
10
221.4375
20
139
11
221.4375
21
142
0
LINE
8
right_outsideCutPath
10
221.4375
20
142
11
250.3125
21
142
0
LINE
8
right_outsideCutPath
10
250.3125
20
142
11
250.3125
21
139
0
LINE
8
right_outsideCutPath
10
250.3125
20
139
11
272
21
139
0
LINE
8
right_outsideCutPath
10
272
20
139
11
272
21
162.1875
0
LINE
8
right_outsideCutPath
10
272
20
162.1875
11
275
21
162.1875
0
LINE
8
right_outsideCutPath
10
275
20
162.1875
11
275
21
191.0625
0
LINE
8
right_outsideCutPath
10
275
20
191.0625
11
272
21
191.0625
0
LINE
8
right_outsideCutPath
10
272
20
191.0625
11
272
21
219.9375
0
LINE
8
right_outsideCutPath
10
272
20
219.9375
11
275
21
219.9375
0
LINE
8
right_outsideCutPath
10
275
20
219.9375
11
275
21
248.8125
0
LINE
8
right_outsideCutPath
10
275
20
248.8125
11
272
21
248.8125
0
LINE
8
right_outsideCutPath
10
272
20
248.8125
11
272
21
272
0
LINE
8
right_outsideCutPath
10
272
20
272
11
142
21
272
0
LINE
8
right_labelLayer
10
187.6799316
20
212.9293753
11
187.3812011
21
210.92918
0
LINE
8
right_labelLayer
10
181.6403808
20
206.2274222
11
181.6403808
21
198.5903128
0
LINE
8
right_labelLayer
10
181.6403808
20
198.5903128
11
179.4843261
21
198.5903128
0
LINE
8
right_labelLayer
10
179.4843261
20
198.5903128
11
179.4843261
21
212.8254691
0
LINE
8
right_labelLayer
10
179.4843261
20
212.8254691
11
181.2637207
21
212.8254691
0
LINE
8
right_labelLayer
10
181.2637207
20
212.8254691
11
181.510498
21
210.188848
0
LINE
8
right_labelLayer
10
181.510498
20
210.188848
11
181.6144043
21
210.188848
0
ARC
8
right_labelLayer
10
186.000597
20
203.187174
40
9.8980855
50
84.9922796
51
90.1281026
0
ARC
8
right_labelLayer
10
186.2383009
20
205.8503767
40
7.2243005
50
78.4891806
51
85.0265865
0
ARC
8
right_labelLayer
10
185.315676
20
201.6540538
40
9.5023344
50
77.4453763
51
81.6360202
0
ARC
8
right_labelLayer
10
185.7296896
20
204.5078073
40
6.6187128
50
81.588409
51
87.1916773
0
ARC
8
right_labelLayer
10
185.8196094
20
206.0672571
40
5.0567481
50
87.343584
51
89.9660308
0
ARC
8
right_labelLayer
10
185.7987133
20
207.3882764
40
3.7358042
50
89.6335349
51
137.0880808
0
ARC
8
right_labelLayer
10
186.715549
20
206.3572713
40
5.1109551
50
135.6209233
51
138.8377403
0
ARC
8
right_labelLayer
10
186.5812046
20
206.4884033
40
4.9235148
50
138.9575791
51
174.5422184
0
ARC
8
right_labelLayer
10
188.1846792
20
206.237505
40
6.5443062
50
173.6907514
51
180.0882757
0
ARC
8
right_labelLayer
10
187.9579769
20
206.6149076
40
7.2810688
50
139.4139301
51
150.6032847
0
ARC
8
right_labelLayer
10
186.652475
20
207.7335859
40
5.5618317
50
124.232143
51
139.416107
0
ARC
8
right_labelLayer
10
185.9544366
20
208.7872724
40
4.2980294
50
89.6796584
51
124.4405646
0
LINE
8
right_labelLayer
10
192.498584
20
212.8254691
11
192.498584
21
198.5903128
0
LINE
8
right_labelLayer
10
192.498584
20
198.5903128
11
190.3425293
21
198.5903128
0
LINE
8
right_labelLayer
10
190.3425293
20
198.5903128
11
190.3425293
21
212.8254691
0
LINE
8
right_labelLayer
10
190.3425293
20
212.8254691
11
192.498584
21
212.8254691
0
ARC
8
right_labelLayer
10
192.5497964
20
216.697771
40
2.3891488
50
170.8451448
51
180.3545075
0
ARC
8
right_labelLayer
10
191.6554076
20
216.8473176
40
1.4823691
50
155.9678572
51
171.051599
0
ARC
8
right_labelLayer
10
191.2222034
20
217.0395069
40
1.0084478
50
133.7880353
51
155.9171665
0
ARC
8
right_labelLayer
10
191.3821418
20
216.8626874
40
1.2467898
50
92.6445977
51
133.4710638
0
ARC
8
right_labelLayer
10
191.4326617
20
216.4659606
40
1.6457393
50
89.9692504
51
93.7643365
0
ARC
8
right_labelLayer
10
191.4532304
20
216.841531
40
1.2703211
50
46.3708581
51
90.8879192
0
ARC
8
right_labelLayer
10
191.5796583
20
216.9720518
40
1.0886145
50
17.7251877
51
46.4473519
0
ARC
8
right_labelLayer
10
190.9900946
20
216.7690289
40
1.7120573
50
4.9427972
51
18.1900781
0
ARC
8
right_labelLayer
10
190.2400932
20
216.6879505
40
2.4663082
50
359.8847277
51
5.3181229
0
ARC
8
right_labelLayer
10
190.4756721
20
216.6678411
40
2.2307757
50
349.8345228
51
0.3890562
0
ARC
8
right_labelLayer
10
191.2878125
20
216.5163393
40
1.4046574
50
332.6322208
51
350.0705959
0
ARC
8
right_labelLayer
10
191.6039077
20
216.3602534
40
1.0522098
50
313.6153558
51
332.2677513
0
ARC
8
right_labelLayer
10
191.4515713
20
216.4989611
40
1.2578009
50
269.1788255
51
314.2807569
0
ARC
8
right_labelLayer
10
191.4192553
20
216.6107821
40
1.3695673
50
250.5000491
51
270.5978142
0
ARC
8
right_labelLayer
10
191.3778071
20
216.455793
40
1.2096986
50
225.1300789
51
249.900155
0
ARC
8
right_labelLayer
10
191.3129163
20
216.3841107
40
1.1131256
50
197.7933927
51
224.8941742
0
ARC
8
right_labelLayer
10
191.9202744
20
216.5922458
40
1.7550787
50
184.9925488
51
198.2040483
0
ARC
8
right_labelLayer
10
192.706259
20
216.6776796
40
2.545571
50
179.8805051
51
185.3686263
0
LINE
8
right_labelLayer
10
203.7983886
20
212.8254691
11
208.7209472
21
212.8254691
0
LINE
8
right_labelLayer
10
208.7209472
20
212.8254691
11
208.7209472
21
211.4616996
0
LINE
8
right_labelLayer
10
208.7209472
20
211.4616996
11
206.0843261
21
211.1499808
0
LINE
8
right_labelLayer
10
201.226709
20
200.8502738
11
203.7464355
21
200.8502738
0
LINE
8
right_labelLayer
10
203.0580566
20
198.9150199
11
200.4733886
21
198.9150199
0
ARC
8
right_labelLayer
10
203.3367613
20
208.9755911
40
3.5038669
50
29.4584325
51
38.3576666
0
ARC
8
right_labelLayer
10
201.9049738
20
208.1582418
40
5.1525139
50
23.1845377
51
29.5422198
0
ARC
8
right_labelLayer
10
200.5390184
20
207.5524749
40
6.6466712
50
21.2506633
51
23.3489932
0
ARC
8
right_labelLayer
10
202.8609634
20
208.4759264
40
4.1479497
50
6.8504876
51
20.9871938
0
ARC
8
right_labelLayer
10
201.6927295
20
208.3175334
40
5.3267663
50
359.8710735
51
7.0432015
0
ARC
8
right_labelLayer
10
202.0771012
20
208.2541534
40
4.9426484
50
342.5649662
51
0.5957745
0
ARC
8
right_labelLayer
10
202.9886697
20
208.0024345
40
3.9976748
50
310.6097804
51
342.0923714
0
ARC
8
right_labelLayer
10
202.4774929
20
208.5970266
40
4.7817925
50
284.931579
51
310.6222761
0
ARC
8
right_labelLayer
10
201.8378125
20
210.8385524
40
7.1125703
50
272.5334996
51
285.2579719
0
ARC
8
right_labelLayer
10
201.6733494
20
213.0849181
40
9.3642356
50
269.9691692
51
272.9312412
0
ARC
8
right_labelLayer
10
201.6529344
20
210.6498702
40
6.9292033
50
263.4836625
51
270.1271415
0
ARC
8
right_labelLayer
10
201.5400631
20
209.5778241
40
5.8512816
50
259.4963844
51
263.3904362
0
ARC
8
right_labelLayer
10
202.2386137
20
200.4181824
40
3.8366174
50
117.393517
51
128.4095303
0
ARC
8
right_labelLayer
10
201.2509137
20
201.6434959
40
2.2628731
50
128.0881799
51
147.1400492
0
ARC
8
right_labelLayer
10
200.7188057
20
202.0005814
40
1.6221915
50
147.5369251
51
180.2592107
0
ARC
8
right_labelLayer
10
200.2140059
20
201.9794326
40
1.1174604
50
179.2919025
51
198.3580287
0
ARC
8
right_labelLayer
10
200.0047804
20
201.9244465
40
0.901669
50
199.2291727
51
239.5690899
0
ARC
8
right_labelLayer
10
200.1782864
20
202.1641924
40
1.1966
50
238.2199876
51
239.8456683
0
ARC
8
right_labelLayer
10
200.3166523
20
202.448848
40
1.5124204
50
240.7302724
51
254.5026803
0
ARC
8
right_labelLayer
10
200.7294309
20
203.8712706
40
2.993472
50
254.163716
51
262.2123593
0
ARC
8
right_labelLayer
10
201.0564045
20
206.1550549
40
5.3005187
50
262.055611
51
267.2083188
0
ARC
8
right_labelLayer
10
201.2143522
20
209.0521123
40
8.2018478
50
267.0919381
51
270.0863206
0
ARC
8
right_labelLayer
10
203.7935672
20
192.0247641
40
8.8256355
50
81.5744249
51
90.3059792
0
ARC
8
right_labelLayer
10
204.2776709
20
195.1819987
40
5.6315672
50
68.3671527
51
81.7399186
0
ARC
8
right_labelLayer
10
204.9099637
20
196.797909
40
3.8963817
50
52.1879605
51
68.2501011
0
ARC
8
right_labelLayer
10
205.3523904
20
197.3940497
40
3.1542154
50
8.6201342
51
51.8982458
0
ARC
8
right_labelLayer
10
203.8017819
20
197.0659528
40
4.737377
50
359.7430484
51
9.7326614
0
ARC
8
right_labelLayer
10
203.87121
20
196.986033
40
4.6682701
50
340.5268819
51
0.7201557
0
ARC
8
right_labelLayer
10
204.5570921
20
196.8152572
40
3.9652682
50
302.9903645
51
339.5494522
0
ARC
8
right_labelLayer
10
203.8357374
20
197.7322212
40
5.1282497
50
303.1872348
51
304.1720596
0
ARC
8
right_labelLayer
10
203.1660755
20
198.8919781
40
6.4658197
50
286.2542273
51
302.5279974
0
ARC
8
right_labelLayer
10
201.9449472
20
202.9198256
40
10.6745592
50
276.4939781
51
286.4953632
0
ARC
8
right_labelLayer
10
201.1830357
20
209.2889378
40
17.0890162
50
269.7545041
51
276.6169718
0
ARC
8
right_labelLayer
10
201.0529138
20
204.27977
40
12.0798256
50
262.5634799
51
270.2698863
0
ARC
8
right_labelLayer
10
200.4612634
20
199.8944726
40
7.6548614
50
251.2101825
51
262.7064049
0
ARC
8
right_labelLayer
10
199.6085013
20
197.3914976
40
5.0106063
50
235.966799
51
251.2229159
0
ARC
8
right_labelLayer
10
198.7046529
20
196.1020623
40
3.4362833
50
208.9036205
51
236.4231462
0
ARC
8
right_labelLayer
10
198.7876301
20
196.0672795
40
3.4928252
50
182.2079837
51
207.7461506
0
ARC
8
right_labelLayer
10
199.8437626
20
196.1727795
40
4.5526985
50
179.9784414
51
183.0226648
0
ARC
8
right_labelLayer
10
198.5872688
20
196.2323307
40
3.2967118
50
138.3916096
51
181.0052604
0
ARC
8
right_labelLayer
10
198.9354052
20
195.9194607
40
3.7647717
50
113.8121351
51
138.3496332
0
ARC
8
right_labelLayer
10
199.5957829
20
194.4934267
40
5.3361094
50
102.2870809
51
114.1172589
0
ARC
8
right_labelLayer
10
199.3882757
20
201.7434766
40
2.2377019
50
216.5861414
51
245.4968818
0
ARC
8
right_labelLayer
10
199.7083436
20
202.0150474
40
2.6567088
50
215.4649095
51
217.1747144
0
ARC
8
right_labelLayer
10
199.1750449
20
201.6298579
40
1.9988686
50
182.1767353
51
215.3415535
0
ARC
8
right_labelLayer
10
199.6502637
20
201.6808228
40
2.4758985
50
179.9837775
51
182.937608
0
ARC
8
right_labelLayer
10
199.6398454
20
201.7023663
40
2.4655683
50
161.7225877
51
180.4843519
0
ARC
8
right_labelLayer
10
199.3687612
20
201.7763368
40
2.1850119
50
144.4963399
51
161.3350665
0
ARC
8
right_labelLayer
10
200.0913948
20
201.2377664
40
3.0861267
50
132.7259142
51
144.1479444
0
ARC
8
right_labelLayer
10
201.2495558
20
200.0009882
40
4.7804909
50
125.221263
51
132.8655435
0
ARC
8
right_labelLayer
10
202.4139176
20
198.3841317
40
6.7729056
50
121.2352442
51
125.3794955
0
ARC
8
right_labelLayer
10
200.3497862
20
207.6666589
40
3.7797374
50
215.164076
51
247.4747849
0
ARC
8
right_labelLayer
10
201.0553929
20
208.2361075
40
4.6849055
50
212.4714432
51
215.8875498
0
ARC
8
right_labelLayer
10
200.8698028
20
208.1033306
40
4.4570627
50
183.0160869
51
212.3123109
0
ARC
8
right_labelLayer
10
201.8479869
20
208.2123484
40
5.4399308
50
179.9759771
51
183.6206431
0
ARC
8
right_labelLayer
10
202.6370367
20
208.2672427
40
6.2292023
50
166.8195724
51
180.4839407
0
ARC
8
right_labelLayer
10
200.570566
20
208.7889826
40
4.0983679
50
132.3287759
51
167.3340836
0
ARC
8
right_labelLayer
10
200.8470333
20
208.391583
40
4.5787677
50
106.2189031
51
131.5377552
0
ARC
8
right_labelLayer
10
201.546545
20
206.1266179
40
6.9490797
50
93.6329777
51
106.5408714
0
ARC
8
right_labelLayer
10
201.7749028
20
203.562835
40
9.5224051
50
89.9380119
51
94.0267595
0
ARC
8
right_labelLayer
10
201.8118809
20
204.8209978
40
8.2642799
50
82.5852112
51
90.1849427
0
ARC
8
right_labelLayer
10
202.0644011
20
206.774784
40
6.2942438
50
74.0089119
51
82.5694578
0
ARC
8
right_labelLayer
10
199.5343842
20
196.171019
40
2.165395
50
179.2207336
51
200.9355708
0
ARC
8
right_labelLayer
10
199.2768815
20
196.1113949
40
1.9039338
50
202.0287019
51
236.1457394
0
ARC
8
right_labelLayer
10
199.66498
20
196.6041702
40
2.5298168
50
235.0634828
51
238.504149
0
ARC
8
right_labelLayer
10
200.1161563
20
197.4100366
40
3.4528633
50
239.106613
51
254.4862857
0
ARC
8
right_labelLayer
10
200.7177107
20
199.4841765
40
5.6123872
50
254.2323977
51
263.4937439
0
ARC
8
right_labelLayer
10
201.0955793
20
202.6846433
40
8.8350675
50
263.4108349
51
270.1457475
0
ARC
8
right_labelLayer
10
201.1359074
20
205.0728283
40
11.223238
50
269.908855
51
269.9994057
0
ARC
8
right_labelLayer
10
201.1874628
20
208.3435978
40
14.4940997
50
269.7957387
51
275.3991087
0
ARC
8
right_labelLayer
10
201.7299313
20
202.7746259
40
8.898807
50
275.2956956
51
283.3516089
0
ARC
8
right_labelLayer
10
202.613728
20
199.1344442
40
5.1529591
50
283.1370632
51
295.8573056
0
ARC
8
right_labelLayer
10
203.268574
20
197.7048222
40
3.5810312
50
296.4047971
51
301.8008442
0
ARC
8
right_labelLayer
10
203.5253472
20
197.3508855
40
3.1450743
50
301.2230765
51
318.6238146
0
ARC
8
right_labelLayer
10
204.1044459
20
196.8159493
40
2.3570076
50
319.0765543
51
1.1406923
0
ARC
8
right_labelLayer
10
203.5439826
20
196.8859793
40
2.9170953
50
359.5461249
51
10.9904498
0
ARC
8
right_labelLayer
10
204.6707616
20
197.1151632
40
1.7673189
50
10.6608952
51
30.9361703
0
ARC
8
right_labelLayer
10
205.028024
20
197.3134313
40
1.3590223
50
31.5095458
51
58.0777814
0
ARC
8
right_labelLayer
10
204.6931835
20
196.7138859
40
2.0452126
50
58.9972212
51
73.858612
0
ARC
8
right_labelLayer
10
204.0163935
20
194.4982679
40
4.3617748
50
73.4100294
51
81.5907059
0
ARC
8
right_labelLayer
10
203.4429578
20
190.7873458
40
8.1166979
50
81.41725
51
86.5756618
0
ARC
8
right_labelLayer
10
203.0915584
20
185.1962651
40
13.7187956
50
86.505437
51
90.1399186
0
ARC
8
right_labelLayer
10
200.4425533
20
193.958964
40
4.9561518
50
89.6435239
51
100.0208992
0
ARC
8
right_labelLayer
10
200.1310514
20
195.6535185
40
3.233267
50
99.8102932
51
116.8229508
0
ARC
8
right_labelLayer
10
199.8276147
20
196.2934269
40
2.525352
50
117.2304498
51
130.5023434
0
ARC
8
right_labelLayer
10
199.6718188
20
196.4936607
40
2.2719418
50
130.7944729
51
169.041344
0
ARC
8
right_labelLayer
10
200.8191046
20
196.2234714
40
3.4499919
50
168.2580661
51
180.3820142
0
ARC
8
right_labelLayer
10
202.7465807
20
208.2343933
40
4.2085691
50
179.5617717
51
191.6529023
0
ARC
8
right_labelLayer
10
201.2833044
20
207.9182467
40
2.7116327
50
191.3555091
51
213.3660535
0
ARC
8
right_labelLayer
10
200.9319025
20
207.7153433
40
2.30668
50
213.9573949
51
227.7971457
0
ARC
8
right_labelLayer
10
201.2376323
20
208.0861463
40
2.7868281
50
228.262081
51
254.7341291
0
ARC
8
right_labelLayer
10
201.62822
20
209.4250884
40
4.1814364
50
254.4016488
51
267.4348766
0
ARC
8
right_labelLayer
10
201.7301185
20
210.7915133
40
5.5512014
50
267.0153913
51
270.0323407
0
ARC
8
right_labelLayer
10
201.7967288
20
209.9369521
40
4.6970683
50
269.2256724
51
284.3773267
0
ARC
8
right_labelLayer
10
202.4369317
20
207.7064808
40
2.3784099
50
282.7796672
51
346.4828489
0
ARC
8
right_labelLayer
10
200.5228855
20
208.2486466
40
4.3668894
50
345.4362279
51
0.7465857
0
ARC
8
right_labelLayer
10
200.2538383
20
208.3718428
40
4.6360401
50
359.1806393
51
15.0431731
0
ARC
8
right_labelLayer
10
202.3545117
20
208.9846315
40
2.4487511
50
13.9535657
51
77.6673872
0
ARC
8
right_labelLayer
10
201.7518079
20
206.8247952
40
4.6892102
50
76.1095126
51
90.7028433
0
ARC
8
right_labelLayer
10
201.6615941
20
206.9897496
40
4.5240212
50
89.585947
51
101.3333951
0
ARC
8
right_labelLayer
10
201.3382926
20
208.5317645
40
2.9485738
50
101.0620491
51
121.9739179
0
ARC
8
right_labelLayer
10
201.1110835
20
208.9404991
40
2.4816472
50
122.5210954
51
134.9966562
0
ARC
8
right_labelLayer
10
201.2046298
20
208.8844548
40
2.587558
50
135.5839843
51
163.0016011
0
ARC
8
right_labelLayer
10
202.5710649
20
208.4365866
40
4.0253328
50
162.5912126
51
175.7343067
0
ARC
8
right_labelLayer
10
204.2100088
20
208.275135
40
5.6718805
50
175.3393563
51
180.0863963
0
LINE
8
right_labelLayer
10
223.5405761
20
198.5903128
11
221.3845215
21
198.5903128
0
LINE
8
right_labelLayer
10
221.3845215
20
198.5903128
11
221.3845215
21
207.7990042
0
LINE
8
right_labelLayer
10
213.7993652
20
206.032598
11
213.7993652
21
198.5903128
0
LINE
8
right_labelLayer
10
213.7993652
20
198.5903128
11
211.6433105
21
198.5903128
0
LINE
8
right_labelLayer
10
211.6433105
20
198.5903128
11
211.6433105
21
218.8000785
0
LINE
8
right_labelLayer
10
211.6433105
20
218.8000785
11
213.7993652
21
218.8000785
0
LINE
8
right_labelLayer
10
213.7993652
20
218.8000785
11
213.7993652
21
212.682598
0
LINE
8
right_labelLayer
10
213.695459
20
210.8512503
11
213.8253418
21
210.8512503
0
LINE
8
right_labelLayer
10
223.5405761
20
207.8769339
11
223.5405761
21
198.5903128
0
ARC
8
right_labelLayer
10
215.289979
20
207.8339553
40
6.0946427
50
359.6714233
51
8.6877086
0
ARC
8
right_labelLayer
10
217.5488356
20
208.1921923
40
3.8076141
50
8.4931537
51
22.657993
0
ARC
8
right_labelLayer
10
218.6964827
20
208.669119
40
2.5648161
50
22.702441
51
42.3419425
0
ARC
8
right_labelLayer
10
218.8254862
20
208.7271489
40
2.4307766
50
43.3790896
51
71.5386051
0
ARC
8
right_labelLayer
10
218.3430864
20
207.3791997
40
3.8622382
50
71.0827991
51
84.3691001
0
ARC
8
right_labelLayer
10
218.126543
20
205.5380838
40
5.7158233
50
84.01977
51
90.1510466
0
ARC
8
right_labelLayer
10
218.0650094
20
204.7295128
40
6.5245397
50
89.5919589
51
100.3595191
0
ARC
8
right_labelLayer
10
217.6030109
20
207.1573748
40
4.0532159
50
100.1067813
51
118.0847405
0
ARC
8
right_labelLayer
10
217.1331252
20
208.0794056
40
3.0186039
50
118.4551192
51
139.6706049
0
ARC
8
right_labelLayer
10
217.6048621
20
207.7569666
40
3.5873958
50
140.6208225
51
160.5048977
0
ARC
8
right_labelLayer
10
220.0914221
20
206.8364485
40
6.2387176
50
160.1566931
51
171.5312947
0
ARC
8
right_labelLayer
10
224.1147858
20
206.198995
40
10.3121596
50
171.3202416
51
178.3406691
0
ARC
8
right_labelLayer
10
227.7146051
20
206.0381683
40
13.9152411
50
178.1079475
51
180.0229357
0
ARC
8
right_labelLayer
10
194.4041896
20
212.6594736
40
19.3951894
50
357.8674206
51
0.0683124
0
ARC
8
right_labelLayer
10
200.9928053
20
212.4081099
40
12.8017845
50
354.982872
51
357.894339
0
ARC
8
right_labelLayer
10
205.3442189
20
212.0292054
40
8.433907
50
351.9713089
51
354.9618542
0
ARC
8
right_labelLayer
10
217.4773339
20
208.5668018
40
4.3076388
50
119.8315952
51
147.9725838
0
ARC
8
right_labelLayer
10
217.9989385
20
207.7655227
40
5.2624909
50
116.6658136
51
120.4183283
0
ARC
8
right_labelLayer
10
218.0963377
20
207.5096776
40
5.5349051
50
96.6652581
51
116.3782421
0
ARC
8
right_labelLayer
10
218.3061863
20
206.0618532
40
6.9974173
50
89.8927289
51
96.9959255
0
ARC
8
right_labelLayer
10
218.3732884
20
204.3120009
40
8.747424
50
80.6862997
51
90.3537121
0
ARC
8
right_labelLayer
10
218.9179623
20
207.5156861
40
5.4978558
50
65.6022714
51
80.8844098
0
ARC
8
right_labelLayer
10
219.5720121
20
208.9887495
40
3.8861909
50
46.7400835
51
65.413073
0
ARC
8
right_labelLayer
10
219.6164639
20
209.1291061
40
3.7540551
50
19.2204271
51
45.7660607
0
ARC
8
right_labelLayer
10
217.4518406
20
208.3266635
40
6.0623552
50
6.4733933
51
19.6467935
0
ARC
8
right_labelLayer
10
214.2173523
20
207.9103697
40
9.3232837
50
359.7945219
51
6.774384
0
LINE
8
right_labelLayer
10
234.5156738
20
200.3697074
11
234.5156738
21
198.7201956
0
LINE
8
right_labelLayer
10
228.1254394
20
202.6816214
11
228.1254394
21
211.1499808
0
LINE
8
right_labelLayer
10
228.1254394
20
211.1499808
11
226.0862793
21
211.1499808
0
LINE
8
right_labelLayer
10
226.0862793
20
211.1499808
11
226.0862793
21
212.1890433
0
LINE
8
right_labelLayer
10
226.0862793
20
212.1890433
11
228.1254394
21
213.0852347
0
LINE
8
right_labelLayer
10
228.1254394
20
213.0852347
11
229.0346191
21
216.1244925
0
LINE
8
right_labelLayer
10
229.0346191
20
216.1244925
11
230.2814941
21
216.1244925
0
LINE
8
right_labelLayer
10
230.2814941
20
216.1244925
11
230.2814941
21
212.8254691
0
LINE
8
right_labelLayer
10
230.2814941
20
212.8254691
11
234.4117676
21
212.8254691
0
LINE
8
right_labelLayer
10
234.4117676
20
212.8254691
11
234.4117676
21
211.1499808
0
LINE
8
right_labelLayer
10
234.4117676
20
211.1499808
11
230.2814941
21
211.1499808
0
LINE
8
right_labelLayer
10
230.2814941
20
211.1499808
11
230.2814941
21
202.7725394
0
ARC
8
right_labelLayer
10
232.5822162
20
207.1907323
40
7.080806
50
269.8803671
51
278.3028121
0
ARC
8
right_labelLayer
10
232.6490009
20
206.6440219
40
6.5301944
50
278.4156708
51
279.0078806
0
ARC
8
right_labelLayer
10
231.8550625
20
211.7158559
40
11.663788
50
278.9589939
51
280.5103851
0
ARC
8
right_labelLayer
10
232.6122855
20
207.6528115
40
7.5307867
50
280.484798
51
282.6268452
0
ARC
8
right_labelLayer
10
233.2763164
20
204.7027167
40
4.5068853
50
282.5877044
51
285.579461
0
ARC
8
right_labelLayer
10
233.609352
20
203.4779067
40
3.2376416
50
285.7237477
51
286.2561903
0
ARC
8
right_labelLayer
10
233.6092239
20
200.6373852
40
2.1206761
50
287.9887446
51
295.3048492
0
ARC
8
right_labelLayer
10
233.0976987
20
202.1849812
40
3.7506056
50
283.3069786
51
288.1197568
0
ARC
8
right_labelLayer
10
232.5573238
20
204.439098
40
6.0685824
50
280.00706
51
283.3734469
0
ARC
8
right_labelLayer
10
232.1958962
20
206.4005139
40
8.0629773
50
279.1862566
51
280.1143231
0
ARC
8
right_labelLayer
10
231.9739124
20
207.6631262
40
9.3448511
50
275.5260399
51
279.2939696
0
ARC
8
right_labelLayer
10
232.223986
20
205.0511128
40
6.7208956
50
270.8932756
51
275.5483812
0
ARC
8
right_labelLayer
10
232.2553937
20
203.8576591
40
5.5271121
50
270.0033082
51
270.7606069
0
ARC
8
right_labelLayer
10
232.1687094
20
203.9611729
40
5.6312978
50
253.7847908
51
270.8852538
0
ARC
8
right_labelLayer
10
231.5015501
20
201.6859074
40
3.2602461
50
190.3817621
51
253.877242
0
ARC
8
right_labelLayer
10
234.90205
20
202.6053427
40
6.7770399
50
179.3550957
51
192.847761
0
ARC
8
right_labelLayer
10
234.6229747
20
202.7453851
40
4.3415655
50
179.6416418
51
189.7506074
0
ARC
8
right_labelLayer
10
233.0903297
20
202.4720179
40
2.7847807
50
189.5479554
51
205.78735
0
ARC
8
right_labelLayer
10
232.4604699
20
202.1815709
40
2.091329
50
206.1294467
51
221.4083871
0
ARC
8
right_labelLayer
10
232.3898439
20
202.1279814
40
2.0029238
50
221.5949167
51
262.3505151
0
ARC
8
right_labelLayer
10
232.5578093
20
202.9917216
40
2.8817959
50
261.3266171
51
270.1913115
0
LINE
8
bottom_outsideCutPath
10
281
20
136
11
281
21
114.3125
0
LINE
8
bottom_outsideCutPath
10
281
20
114.3125
11
278
21
114.3125
0
LINE
8
bottom_outsideCutPath
10
278
20
114.3125
11
278
21
85.4375
0
LINE
8
bottom_outsideCutPath
10
278
20
85.4375
11
281
21
85.4375
0
LINE
8
bottom_outsideCutPath
10
281
20
85.4375
11
281
21
56.5625
0
LINE
8
bottom_outsideCutPath
10
281
20
56.5625
11
278
21
56.5625
0
LINE
8
bottom_outsideCutPath
10
278
20
56.5625
11
278
21
27.6875
0
LINE
8
bottom_outsideCutPath
10
278
20
27.6875
11
281
21
27.6875
0
LINE
8
bottom_outsideCutPath
10
281
20
27.6875
11
281
21
6
0
LINE
8
bottom_outsideCutPath
10
281
20
6
11
302.6875
21
6
0
LINE
8
bottom_outsideCutPath
10
302.6875
20
6
11
302.6875
21
3
0
LINE
8
bottom_outsideCutPath
10
302.6875
20
3
11
331.5625
21
3
0
LINE
8
bottom_outsideCutPath
10
331.5625
20
3
11
331.5625
21
6
0
LINE
8
bottom_outsideCutPath
10
331.5625
20
6
11
360.4375
21
6
0
LINE
8
bottom_outsideCutPath
10
360.4375
20
6
11
360.4375
21
3
0
LINE
8
bottom_outsideCutPath
10
360.4375
20
3
11
389.3125
21
3
0
LINE
8
bottom_outsideCutPath
10
389.3125
20
3
11
389.3125
21
6
0
LINE
8
bottom_outsideCutPath
10
389.3125
20
6
11
411
21
6
0
LINE
8
bottom_outsideCutPath
10
411
20
6
11
411
21
27.6875
0
LINE
8
bottom_outsideCutPath
10
411
20
27.6875
11
414
21
27.6875
0
LINE
8
bottom_outsideCutPath
10
414
20
27.6875
11
414
21
56.5625
0
LINE
8
bottom_outsideCutPath
10
414
20
56.5625
11
411
21
56.5625
0
LINE
8
bottom_outsideCutPath
10
411
20
56.5625
11
411
21
85.4375
0
LINE
8
bottom_outsideCutPath
10
411
20
85.4375
11
414
21
85.4375
0
LINE
8
bottom_outsideCutPath
10
414
20
85.4375
11
414
21
114.3125
0
LINE
8
bottom_outsideCutPath
10
414
20
114.3125
11
411
21
114.3125
0
LINE
8
bottom_outsideCutPath
10
411
20
114.3125
11
411
21
136
0
LINE
8
bottom_outsideCutPath
10
411
20
136
11
389.3125
21
136
0
LINE
8
bottom_outsideCutPath
10
389.3125
20
136
11
389.3125
21
139
0
LINE
8
bottom_outsideCutPath
10
389.3125
20
139
11
360.4375
21
139
0
LINE
8
bottom_outsideCutPath
10
360.4375
20
139
11
360.4375
21
136
0
LINE
8
bottom_outsideCutPath
10
360.4375
20
136
11
331.5625
21
136
0
LINE
8
bottom_outsideCutPath
10
331.5625
20
136
11
331.5625
21
139
0
LINE
8
bottom_outsideCutPath
10
331.5625
20
139
11
302.6875
21
139
0
LINE
8
bottom_outsideCutPath
10
302.6875
20
139
11
302.6875
21
136
0
LINE
8
bottom_outsideCutPath
10
302.6875
20
136
11
281
21
136
0
LINE
8
bottom_labelLayer
10
303.4600918
20
62.6729999
11
303.3007168
21
62.6729999
0
LINE
8
bottom_labelLayer
10
303.3007168
20
62.6729999
11
302.8358731
21
60.8003437
0
LINE
8
bottom_labelLayer
10
302.8358731
20
60.8003437
11
301.2554043
21
60.8003437
0
LINE
8
bottom_labelLayer
10
301.2554043
20
60.8003437
11
301.2554043
21
81.4659687
0
LINE
8
bottom_labelLayer
10
301.2554043
20
81.4659687
11
303.4600918
21
81.4659687
0
LINE
8
bottom_labelLayer
10
303.4600918
20
81.4659687
11
303.4600918
21
76.4456562
0
LINE
8
bottom_labelLayer
10
303.3538418
20
73.4175312
11
303.4600918
21
73.4175312
0
ARC
8
bottom_labelLayer
10
308.0949801
20
68.8576896
40
6.7382911
50
74.2393391
51
90.5623837
0
ARC
8
bottom_labelLayer
10
308.5405386
20
70.4922418
40
5.0441906
50
38.5631271
51
74.067041
0
ARC
8
bottom_labelLayer
10
307.3939141
20
69.600675
40
6.4965671
50
16.4709303
51
38.4075244
0
ARC
8
bottom_labelLayer
10
304.0906645
20
68.5648723
40
9.9581051
50
5.1338521
51
16.797342
0
ARC
8
bottom_labelLayer
10
299.9205584
20
68.1218976
40
14.1512843
50
359.8779376
51
5.409354
0
ARC
8
bottom_labelLayer
10
301.145442
20
68.0154851
40
12.9265936
50
350.6562846
51
0.3380377
0
ARC
8
bottom_labelLayer
10
305.6518575
20
67.2489943
40
8.3555599
50
335.8306005
51
350.825481
0
ARC
8
bottom_labelLayer
10
307.6341643
20
66.3934021
40
6.1967918
50
321.3161343
51
335.5436265
0
ARC
8
bottom_labelLayer
10
308.392
20
65.7758796
40
5.2192614
50
274.0640091
51
321.4081
0
ARC
8
bottom_labelLayer
10
308.0389484
20
68.0122097
40
7.4774979
50
269.9225593
51
275.5481817
0
ARC
8
bottom_labelLayer
10
307.9916628
20
67.2219073
40
6.687292
50
255.7755337
51
270.3185467
0
ARC
8
bottom_labelLayer
10
307.8008255
20
66.3740405
40
5.8185746
50
245.980159
51
255.545578
0
ARC
8
bottom_labelLayer
10
307.4311933
20
65.5144594
40
4.8829848
50
215.5850226
51
245.8361711
0
ARC
8
bottom_labelLayer
10
257.4942554
20
76.4067911
40
45.9658528
50
358.1123211
51
0.0484448
0
ARC
8
bottom_labelLayer
10
270.2872649
20
75.9772944
40
33.165639
50
355.7238564
51
358.1258974
0
ARC
8
bottom_labelLayer
10
275.8477387
20
75.5959429
40
27.5922306
50
355.4717751
51
355.6525932
0
ARC
8
bottom_labelLayer
10
307.5717379
20
70.5503699
40
5.0126088
50
95.1835135
51
145.1109007
0
ARC
8
bottom_labelLayer
10
308.0123271
20
68.0658407
40
7.5298335
50
89.8743364
51
96.8145312
0
ARC
8
bottom_labelLayer
10
307.6639355
20
67.5543799
40
6.1953544
50
89.573134
51
100.7324298
0
ARC
8
bottom_labelLayer
10
307.2053073
20
69.8715287
40
3.8333788
50
100.4469509
51
119.6700713
0
ARC
8
bottom_labelLayer
10
306.7800187
20
70.6666564
40
2.9320791
50
120.1402909
51
142.4248987
0
ARC
8
bottom_labelLayer
10
307.4836175
20
70.2012018
40
3.7740337
50
143.3382155
51
161.2559965
0
ARC
8
bottom_labelLayer
10
310.425966
20
69.1565707
40
6.8961518
50
160.892648
51
171.23343
0
ARC
8
bottom_labelLayer
10
315.3378522
20
68.3641686
40
11.8714744
50
171.0667855
51
177.8456907
0
ARC
8
bottom_labelLayer
10
320.4461687
20
68.1043553
40
16.9860817
50
177.6176571
51
180.0425192
0
ARC
8
bottom_labelLayer
10
318.0371971
20
68.0348285
40
14.5772164
50
179.7762697
51
185.7075265
0
ARC
8
bottom_labelLayer
10
312.289939
20
67.4426587
40
8.7995765
50
185.5924955
51
194.2050604
0
ARC
8
bottom_labelLayer
10
308.6082743
20
66.4871404
40
4.9960582
50
193.9430422
51
208.0218347
0
ARC
8
bottom_labelLayer
10
307.1186809
20
65.7293459
40
3.3252172
50
208.5536794
51
217.5605136
0
ARC
8
bottom_labelLayer
10
306.9973045
20
65.6788589
40
3.1984046
50
218.1690484
51
253.8047108
0
ARC
8
bottom_labelLayer
10
307.5905451
20
67.5078786
40
5.120651
50
253.1382355
51
266.8483184
0
ARC
8
bottom_labelLayer
10
307.7568976
20
69.4696927
40
7.088883
50
266.3775787
51
270.0510753
0
ARC
8
bottom_labelLayer
10
307.8102461
20
66.7755861
40
4.3950253
50
269.3868909
51
285.863057
0
ARC
8
bottom_labelLayer
10
308.1367688
20
65.5954866
40
3.1706265
50
286.0162843
51
326.8497344
0
ARC
8
bottom_labelLayer
10
306.5608065
20
66.6395052
40
5.0610066
50
326.710493
51
343.666186
0
ARC
8
bottom_labelLayer
10
303.6106781
20
67.540968
40
8.1456644
50
343.4171458
51
353.6369158
0
ARC
8
bottom_labelLayer
10
299.1548141
20
68.0696878
40
12.6327152
50
353.4934783
51
0.2205376
0
ARC
8
bottom_labelLayer
10
298.7620331
20
68.1710346
40
13.0255092
50
359.7680883
51
6.3095198
0
ARC
8
bottom_labelLayer
10
303.668499
20
68.7340808
40
8.0869105
50
6.1648602
51
16.0396467
0
ARC
8
bottom_labelLayer
10
306.8291372
20
69.6655209
40
4.7920045
50
15.7779432
51
32.0151231
0
ARC
8
bottom_labelLayer
10
307.8147325
20
70.2299352
40
3.6573536
50
32.7034233
51
35.5242475
0
ARC
8
bottom_labelLayer
10
308.1752151
20
70.4861513
40
3.2150942
50
35.5408369
51
79.801126
0
ARC
8
bottom_labelLayer
10
307.7434596
20
68.6506648
40
5.0990067
50
78.6781499
51
90.3749442
0
ARC
8
bottom_labelLayer
10
319.0995762
20
68.0149776
40
11.3881182
50
349.176191
51
0.3862587
0
ARC
8
bottom_labelLayer
10
322.9336903
20
67.2506398
40
7.4787443
50
330.2507023
51
349.4116451
0
ARC
8
bottom_labelLayer
10
324.1136364
20
66.6373496
40
6.1502199
50
318.1439704
51
329.7566225
0
ARC
8
bottom_labelLayer
10
324.3265977
20
66.4666823
40
5.8777407
50
278.8959153
51
317.9979102
0
ARC
8
bottom_labelLayer
10
323.7778732
20
69.0956711
40
8.5610336
50
269.7502798
51
279.80332
0
ARC
8
bottom_labelLayer
10
323.6888802
20
67.6144007
40
7.0798707
50
253.5436905
51
270.418241
0
ARC
8
bottom_labelLayer
10
323.4532084
20
66.7027593
40
6.1388964
50
238.8115656
51
253.2428249
0
ARC
8
bottom_labelLayer
10
323.3771443
20
66.5497932
40
5.9686653
50
207.7946982
51
238.6757945
0
ARC
8
bottom_labelLayer
10
324.4684904
20
67.2182012
40
7.2462468
50
205.6560288
51
208.4461662
0
ARC
8
bottom_labelLayer
10
325.3092146
20
67.568505
40
8.1558963
50
188.9102471
51
205.3171442
0
ARC
8
bottom_labelLayer
10
328.1423025
20
68.0483376
40
11.0291712
50
179.7744758
51
189.0932825
0
ARC
8
bottom_labelLayer
10
328.5602131
20
68.1692841
40
11.4472589
50
169.2442985
51
180.3880771
0
ARC
8
bottom_labelLayer
10
324.6728085
20
68.9376837
40
7.4848065
50
150.7111461
51
169.4695513
0
ARC
8
bottom_labelLayer
10
323.4318432
20
69.5749634
40
6.0909311
50
138.1759572
51
150.2287319
0
ARC
8
bottom_labelLayer
10
323.2254065
20
69.7333782
40
5.83149
50
99.1759341
51
137.9832714
0
ARC
8
bottom_labelLayer
10
323.7935709
20
67.0595337
40
8.562778
50
89.7326269
51
100.0759798
0
ARC
8
bottom_labelLayer
10
323.9071291
20
68.2142756
40
7.4083086
50
73.5222763
51
90.5692289
0
ARC
8
bottom_labelLayer
10
324.3415825
20
69.7927598
40
5.7715069
50
41.1445682
51
73.2133877
0
ARC
8
bottom_labelLayer
10
323.5122447
20
69.079956
40
6.8650442
50
13.501436
51
41.0703394
0
ARC
8
bottom_labelLayer
10
320.3081138
20
68.2414779
40
10.1766074
50
1.1277175
51
13.8800006
0
ARC
8
bottom_labelLayer
10
317.5475628
20
68.0935719
40
12.9398728
50
359.9919325
51
1.5419313
0
ARC
8
bottom_labelLayer
10
330.5619289
20
68.0344537
40
11.164484
50
179.7059564
51
187.9160794
0
ARC
8
bottom_labelLayer
10
326.4671445
20
67.4462411
40
7.027734
50
187.7639199
51
200.0976918
0
ARC
8
bottom_labelLayer
10
324.2113495
20
66.6197152
40
4.6252865
50
200.084602
51
216.9131628
0
ARC
8
bottom_labelLayer
10
323.3876079
20
66.0315252
40
3.6134803
50
217.3009604
51
261.7099049
0
ARC
8
bottom_labelLayer
10
323.7700146
20
67.856333
40
5.4755716
50
260.5033226
51
270.2476917
0
ARC
8
bottom_labelLayer
10
323.8430055
20
67.5015043
40
5.1209294
50
269.4481726
51
284.725559
0
ARC
8
bottom_labelLayer
10
324.2483992
20
65.9980259
40
3.5638005
50
284.566234
51
322.6333791
0
ARC
8
bottom_labelLayer
10
323.3005689
20
66.6827901
40
4.7327999
50
323.0089323
51
342.6390543
0
ARC
8
bottom_labelLayer
10
320.5895552
20
67.5688256
40
7.584784
50
342.3615852
51
353.7537485
0
ARC
8
bottom_labelLayer
10
316.5899611
20
68.0509249
40
11.6131714
50
353.5363
51
0.2014183
0
ARC
8
bottom_labelLayer
10
317.2027737
20
68.147897
40
11.0004301
50
359.7075566
51
7.8972827
0
ARC
8
bottom_labelLayer
10
321.2314363
20
68.725447
40
6.9306464
50
7.7439783
51
20.069033
0
ARC
8
bottom_labelLayer
10
323.4763522
20
69.5492479
40
4.5393544
50
20.0257137
51
37.4350375
0
ARC
8
bottom_labelLayer
10
324.2212091
20
70.0777859
40
3.6267789
50
37.9577672
51
80.4006152
0
ARC
8
bottom_labelLayer
10
323.797935
20
68.1891719
40
5.5604757
50
79.3453567
51
90.3174907
0
ARC
8
bottom_labelLayer
10
323.7195583
20
68.5028798
40
5.2468982
50
89.4805882
51
103.8805021
0
ARC
8
bottom_labelLayer
10
323.2786838
20
70.1817286
40
3.5114007
50
103.4685233
51
142.3118868
0
ARC
8
bottom_labelLayer
10
324.1357775
20
69.5789588
40
4.5584154
50
142.9025645
51
162.3749634
0
ARC
8
bottom_labelLayer
10
326.8364843
20
68.6789542
40
7.404964
50
162.06531
51
173.1674939
0
ARC
8
bottom_labelLayer
10
331.0476135
20
68.1418465
40
11.6501295
50
173.0086082
51
180.2463776
0
LINE
8
bottom_labelLayer
10
341.0460293
20
62.6198749
11
341.0460293
21
60.9331562
0
LINE
8
bottom_labelLayer
10
334.5116543
20
64.9839374
11
334.5116543
21
73.6433124
0
LINE
8
bottom_labelLayer
10
334.5116543
20
73.6433124
11
332.4264981
21
73.6433124
0
LINE
8
bottom_labelLayer
10
332.4264981
20
73.6433124
11
332.4264981
21
74.7058124
0
LINE
8
bottom_labelLayer
10
332.4264981
20
74.7058124
11
334.5116543
21
75.6222187
0
LINE
8
bottom_labelLayer
10
334.5116543
20
75.6222187
11
335.4413418
21
78.7300312
0
LINE
8
bottom_labelLayer
10
335.4413418
20
78.7300312
11
336.7163418
21
78.7300312
0
LINE
8
bottom_labelLayer
10
336.7163418
20
78.7300312
11
336.7163418
21
75.3565937
0
LINE
8
bottom_labelLayer
10
336.7163418
20
75.3565937
11
340.9397793
21
75.3565937
0
LINE
8
bottom_labelLayer
10
340.9397793
20
75.3565937
11
340.9397793
21
73.6433124
0
LINE
8
bottom_labelLayer
10
340.9397793
20
73.6433124
11
336.7163418
21
73.6433124
0
LINE
8
bottom_labelLayer
10
336.7163418
20
73.6433124
11
336.7163418
21
65.0769062
0
ARC
8
bottom_labelLayer
10
339.0689613
20
69.5947292
40
7.2404951
50
269.8803562
51
278.3028341
0
ARC
8
bottom_labelLayer
10
339.1377878
20
69.0322212
40
6.673957
50
278.4155027
51
279.0080262
0
ARC
8
bottom_labelLayer
10
338.3256008
20
74.2207838
40
11.9256968
50
278.9589346
51
280.5104799
0
ARC
8
bottom_labelLayer
10
339.099678
20
70.0674184
40
7.7008156
50
280.4847981
51
282.6268004
0
ARC
8
bottom_labelLayer
10
339.7787647
20
67.050423
40
4.6083403
50
282.5876567
51
285.5795458
0
ARC
8
bottom_labelLayer
10
340.1198767
20
65.7960272
40
3.308429
50
285.7236584
51
286.2564618
0
ARC
8
bottom_labelLayer
10
340.1191117
20
62.8936413
40
2.168566
50
287.9888713
51
295.3047902
0
ARC
8
bottom_labelLayer
10
339.5960675
20
64.476104
40
3.8352153
50
283.3069812
51
288.1197474
0
ARC
8
bottom_labelLayer
10
339.043595
20
66.7806262
40
6.2050287
50
280.0069418
51
283.3735669
0
ARC
8
bottom_labelLayer
10
338.6740591
20
68.7859428
40
8.2440657
50
279.1861996
51
280.1143542
0
ARC
8
bottom_labelLayer
10
338.4469401
20
70.0777936
40
9.5556232
50
275.526017
51
279.2939522
0
ARC
8
bottom_labelLayer
10
338.7026478
20
67.406911
40
6.8725299
50
270.8932833
51
275.5483652
0
ARC
8
bottom_labelLayer
10
338.7347965
20
66.1839459
40
5.6492272
50
270.0029954
51
270.7606368
0
ARC
8
bottom_labelLayer
10
338.646126
20
66.292356
40
5.7583246
50
253.7848045
51
270.8852527
0
ARC
8
bottom_labelLayer
10
337.9639179
20
63.9657638
40
3.3337856
50
190.3817643
51
253.8772421
0
ARC
8
bottom_labelLayer
10
341.4411279
20
64.9059388
40
6.9299126
50
179.3551024
51
192.8477537
0
ARC
8
bottom_labelLayer
10
341.1557719
20
65.0491403
40
4.4395169
50
179.6416552
51
189.7505722
0
ARC
8
bottom_labelLayer
10
339.5885315
20
64.769605
40
2.847592
50
189.5479464
51
205.7873598
0
ARC
8
bottom_labelLayer
10
338.9444677
20
64.4726079
40
2.1385022
50
206.1294524
51
221.4083901
0
ARC
8
bottom_labelLayer
10
338.8722482
20
64.4178089
40
2.0481022
50
221.5949149
51
262.3505202
0
ARC
8
bottom_labelLayer
10
339.0440036
20
65.3010501
40
2.9468166
50
261.3266466
51
270.1912872
0
LINE
8
bottom_labelLayer
10
350.6483731
20
62.6198749
11
350.6483731
21
60.9331562
0
LINE
8
bottom_labelLayer
10
344.1139981
20
64.9839374
11
344.1139981
21
73.6433124
0
LINE
8
bottom_labelLayer
10
344.1139981
20
73.6433124
11
342.0288418
21
73.6433124
0
LINE
8
bottom_labelLayer
10
342.0288418
20
73.6433124
11
342.0288418
21
74.7058124
0
LINE
8
bottom_labelLayer
10
342.0288418
20
74.7058124
11
344.1139981
21
75.6222187
0
LINE
8
bottom_labelLayer
10
344.1139981
20
75.6222187
11
345.0436856
21
78.7300312
0
LINE
8
bottom_labelLayer
10
345.0436856
20
78.7300312
11
346.3186856
21
78.7300312
0
LINE
8
bottom_labelLayer
10
346.3186856
20
78.7300312
11
346.3186856
21
75.3565937
0
LINE
8
bottom_labelLayer
10
346.3186856
20
75.3565937
11
350.5421231
21
75.3565937
0
LINE
8
bottom_labelLayer
10
350.5421231
20
75.3565937
11
350.5421231
21
73.6433124
0
LINE
8
bottom_labelLayer
10
350.5421231
20
73.6433124
11
346.3186856
21
73.6433124
0
LINE
8
bottom_labelLayer
10
346.3186856
20
73.6433124
11
346.3186856
21
65.0769062
0
ARC
8
bottom_labelLayer
10
348.671305
20
69.5947292
40
7.2404951
50
269.8803562
51
278.3028341
0
ARC
8
bottom_labelLayer
10
348.7401316
20
69.0322212
40
6.673957
50
278.4155027
51
279.0080262
0
ARC
8
bottom_labelLayer
10
347.9279446
20
74.2207838
40
11.9256968
50
278.9589346
51
280.5104799
0
ARC
8
bottom_labelLayer
10
348.7020218
20
70.0674184
40
7.7008156
50
280.4847981
51
282.6268004
0
ARC
8
bottom_labelLayer
10
349.3811084
20
67.050423
40
4.6083403
50
282.5876567
51
285.5795458
0
ARC
8
bottom_labelLayer
10
349.7222205
20
65.7960272
40
3.308429
50
285.7236584
51
286.2564618
0
ARC
8
bottom_labelLayer
10
349.7214555
20
62.8936413
40
2.168566
50
287.9888713
51
295.3047902
0
ARC
8
bottom_labelLayer
10
349.1984112
20
64.476104
40
3.8352153
50
283.3069812
51
288.1197474
0
ARC
8
bottom_labelLayer
10
348.6459387
20
66.7806262
40
6.2050287
50
280.0069418
51
283.3735669
0
ARC
8
bottom_labelLayer
10
348.2764029
20
68.7859428
40
8.2440657
50
279.1861996
51
280.1143542
0
ARC
8
bottom_labelLayer
10
348.0492839
20
70.0777936
40
9.5556232
50
275.526017
51
279.2939522
0
ARC
8
bottom_labelLayer
10
348.3049916
20
67.406911
40
6.8725299
50
270.8932833
51
275.5483652
0
ARC
8
bottom_labelLayer
10
348.3371402
20
66.1839459
40
5.6492272
50
270.0029954
51
270.7606368
0
ARC
8
bottom_labelLayer
10
348.2484697
20
66.292356
40
5.7583246
50
253.7848045
51
270.8852527
0
ARC
8
bottom_labelLayer
10
347.5662617
20
63.9657638
40
3.3337856
50
190.3817643
51
253.8772421
0
ARC
8
bottom_labelLayer
10
351.0434717
20
64.9059388
40
6.9299126
50
179.3551024
51
192.8477537
0
ARC
8
bottom_labelLayer
10
350.7581156
20
65.0491403
40
4.4395169
50
179.6416552
51
189.7505722
0
ARC
8
bottom_labelLayer
10
349.1908752
20
64.769605
40
2.847592
50
189.5479464
51
205.7873598
0
ARC
8
bottom_labelLayer
10
348.5468114
20
64.4726079
40
2.1385022
50
206.1294524
51
221.4083901
0
ARC
8
bottom_labelLayer
10
348.4745919
20
64.4178089
40
2.0481022
50
221.5949149
51
262.3505202
0
ARC
8
bottom_labelLayer
10
348.6463474
20
65.3010501
40
2.9468166
50
261.3266466
51
270.1912872
0
ARC
8
bottom_labelLayer
10
354.7331699
20
68.0149776
40
11.3881182
50
349.176191
51
0.3862587
0
ARC
8
bottom_labelLayer
10
358.5672841
20
67.2506398
40
7.4787443
50
330.2507023
51
349.4116451
0
ARC
8
bottom_labelLayer
10
359.7472302
20
66.6373496
40
6.1502199
50
318.1439704
51
329.7566225
0
ARC
8
bottom_labelLayer
10
359.9601915
20
66.4666823
40
5.8777407
50
278.8959153
51
317.9979102
0
ARC
8
bottom_labelLayer
10
359.411467
20
69.0956711
40
8.5610336
50
269.7502798
51
279.80332
0
ARC
8
bottom_labelLayer
10
359.322474
20
67.6144007
40
7.0798707
50
253.5436905
51
270.418241
0
ARC
8
bottom_labelLayer
10
359.0868022
20
66.7027593
40
6.1388964
50
238.8115656
51
253.2428249
0
ARC
8
bottom_labelLayer
10
359.0107381
20
66.5497932
40
5.9686653
50
207.7946982
51
238.6757945
0
ARC
8
bottom_labelLayer
10
360.1020841
20
67.2182012
40
7.2462468
50
205.6560288
51
208.4461662
0
ARC
8
bottom_labelLayer
10
360.9428084
20
67.568505
40
8.1558963
50
188.9102471
51
205.3171442
0
ARC
8
bottom_labelLayer
10
363.7758963
20
68.0483376
40
11.0291712
50
179.7744758
51
189.0932825
0
ARC
8
bottom_labelLayer
10
364.1938069
20
68.1692841
40
11.4472589
50
169.2442985
51
180.3880771
0
ARC
8
bottom_labelLayer
10
360.3064022
20
68.9376837
40
7.4848065
50
150.7111461
51
169.4695513
0
ARC
8
bottom_labelLayer
10
359.065437
20
69.5749634
40
6.0909311
50
138.1759572
51
150.2287319
0
ARC
8
bottom_labelLayer
10
358.8590002
20
69.7333782
40
5.83149
50
99.1759341
51
137.9832714
0
ARC
8
bottom_labelLayer
10
359.4271647
20
67.0595337
40
8.562778
50
89.7326269
51
100.0759798
0
ARC
8
bottom_labelLayer
10
359.5407228
20
68.2142756
40
7.4083086
50
73.5222763
51
90.5692289
0
ARC
8
bottom_labelLayer
10
359.9751763
20
69.7927598
40
5.7715069
50
41.1445682
51
73.2133877
0
ARC
8
bottom_labelLayer
10
359.1458385
20
69.079956
40
6.8650442
50
13.501436
51
41.0703394
0
ARC
8
bottom_labelLayer
10
355.9417076
20
68.2414779
40
10.1766074
50
1.1277175
51
13.8800006
0
ARC
8
bottom_labelLayer
10
353.1811566
20
68.0935719
40
12.9398728
50
359.9919325
51
1.5419313
0
ARC
8
bottom_labelLayer
10
366.1955226
20
68.0344537
40
11.164484
50
179.7059564
51
187.9160794
0
ARC
8
bottom_labelLayer
10
362.1007382
20
67.4462411
40
7.027734
50
187.7639199
51
200.0976918
0
ARC
8
bottom_labelLayer
10
359.8449432
20
66.6197152
40
4.6252865
50
200.084602
51
216.9131628
0
ARC
8
bottom_labelLayer
10
359.0212017
20
66.0315252
40
3.6134803
50
217.3009604
51
261.7099049
0
ARC
8
bottom_labelLayer
10
359.4036083
20
67.856333
40
5.4755716
50
260.5033226
51
270.2476917
0
ARC
8
bottom_labelLayer
10
359.4765993
20
67.5015043
40
5.1209294
50
269.4481726
51
284.725559
0
ARC
8
bottom_labelLayer
10
359.881993
20
65.9980259
40
3.5638005
50
284.566234
51
322.6333791
0
ARC
8
bottom_labelLayer
10
358.9341627
20
66.6827901
40
4.7327999
50
323.0089323
51
342.6390543
0
ARC
8
bottom_labelLayer
10
356.2231489
20
67.5688256
40
7.584784
50
342.3615852
51
353.7537485
0
ARC
8
bottom_labelLayer
10
352.2235548
20
68.0509249
40
11.6131714
50
353.5363
51
0.2014183
0
ARC
8
bottom_labelLayer
10
352.8363675
20
68.147897
40
11.0004301
50
359.7075566
51
7.8972827
0
ARC
8
bottom_labelLayer
10
356.86503
20
68.725447
40
6.9306464
50
7.7439783
51
20.069033
0
ARC
8
bottom_labelLayer
10
359.109946
20
69.5492479
40
4.5393544
50
20.0257137
51
37.4350375
0
ARC
8
bottom_labelLayer
10
359.8548028
20
70.0777859
40
3.6267789
50
37.9577672
51
80.4006152
0
ARC
8
bottom_labelLayer
10
359.4315287
20
68.1891719
40
5.5604757
50
79.3453567
51
90.3174907
0
ARC
8
bottom_labelLayer
10
359.353152
20
68.5028798
40
5.2468982
50
89.4805882
51
103.8805021
0
ARC
8
bottom_labelLayer
10
358.9122776
20
70.1817286
40
3.5114007
50
103.4685233
51
142.3118868
0
ARC
8
bottom_labelLayer
10
359.7693713
20
69.5789588
40
4.5584154
50
142.9025645
51
162.3749634
0
ARC
8
bottom_labelLayer
10
362.4700781
20
68.6789542
40
7.404964
50
162.06531
51
173.1674939
0
ARC
8
bottom_labelLayer
10
366.6812072
20
68.1418465
40
11.6501295
50
173.0086082
51
180.2463776
0
LINE
8
bottom_labelLayer
10
390.7444668
20
60.8003437
11
388.5397793
21
60.8003437
0
LINE
8
bottom_labelLayer
10
388.5397793
20
60.8003437
11
388.5397793
21
70.2698749
0
LINE
8
bottom_labelLayer
10
381.4608731
20
68.9284687
11
381.4608731
21
60.8003437
0
LINE
8
bottom_labelLayer
10
381.4608731
20
60.8003437
11
379.2561856
21
60.8003437
0
LINE
8
bottom_labelLayer
10
379.2561856
20
60.8003437
11
379.2561856
21
70.2698749
0
LINE
8
bottom_labelLayer
10
372.1905606
20
68.4370624
11
372.1905606
21
60.8003437
0
LINE
8
bottom_labelLayer
10
372.1905606
20
60.8003437
11
369.9858731
21
60.8003437
0
LINE
8
bottom_labelLayer
10
369.9858731
20
60.8003437
11
369.9858731
21
75.3565937
0
LINE
8
bottom_labelLayer
10
369.9858731
20
75.3565937
11
371.7788418
21
75.3565937
0
LINE
8
bottom_labelLayer
10
371.7788418
20
75.3565937
11
372.1374356
21
73.3644062
0
LINE
8
bottom_labelLayer
10
372.1374356
20
73.3644062
11
372.2436856
21
73.3644062
0
LINE
8
bottom_labelLayer
10
381.0093106
20
73.1519062
11
381.1155606
21
73.1519062
0
LINE
8
bottom_labelLayer
10
390.7444668
20
70.2964374
11
390.7444668
21
60.8003437
0
ARC
8
bottom_labelLayer
10
382.0358501
20
70.3045152
40
6.5040215
50
359.6948427
51
8.1471356
0
ARC
8
bottom_labelLayer
10
384.4315014
20
70.6590428
40
4.0823224
50
7.9864577
51
20.7949686
0
ARC
8
bottom_labelLayer
10
385.7557317
20
71.1663072
40
2.6642683
50
20.7071214
51
40.0217512
0
ARC
8
bottom_labelLayer
10
386.0462411
20
71.3563839
40
2.3199288
50
41.0408011
51
73.1792677
0
ARC
8
bottom_labelLayer
10
385.6258784
20
70.08499
40
3.6587319
50
72.6395558
51
86.2568028
0
ARC
8
bottom_labelLayer
10
385.4912129
20
68.6318231
40
5.1177429
50
85.8144786
51
90.068529
0
ARC
8
bottom_labelLayer
10
385.4417391
20
68.076717
40
5.6730111
50
89.5621454
51
101.2961743
0
ARC
8
bottom_labelLayer
10
385.0144642
20
70.1222259
40
3.5834804
50
101.0032257
51
121.784059
0
ARC
8
bottom_labelLayer
10
384.6896354
20
70.7021388
40
2.9195855
50
122.3597405
51
140.288391
0
ARC
8
bottom_labelLayer
10
385.2740426
20
70.2736333
40
3.6431975
50
140.9765342
51
161.1699477
0
ARC
8
bottom_labelLayer
10
387.4756463
20
69.4901323
40
5.9799363
50
160.8731773
51
172.5272472
0
ARC
8
bottom_labelLayer
10
391.1544607
20
68.9820603
40
9.6936161
50
172.3776492
51
180.1829668
0
ARC
8
bottom_labelLayer
10
393.7635619
20
68.9284822
40
12.3026887
50
179.8946415
51
180.0000632
0
ARC
8
bottom_labelLayer
10
372.7522564
20
70.3045152
40
6.5040215
50
359.6948427
51
8.1471356
0
ARC
8
bottom_labelLayer
10
375.1479077
20
70.6590428
40
4.0823224
50
7.9864577
51
20.7949686
0
ARC
8
bottom_labelLayer
10
376.472138
20
71.1663072
40
2.6642683
50
20.7071214
51
40.0217512
0
ARC
8
bottom_labelLayer
10
376.7686873
20
71.3605569
40
2.3126333
50
41.0610745
51
72.8993558
0
ARC
8
bottom_labelLayer
10
376.3403635
20
70.0853924
40
3.6575335
50
72.3600908
51
85.9561959
0
ARC
8
bottom_labelLayer
10
376.1953643
20
68.5868323
40
5.1627351
50
85.5238034
51
90.0793221
0
ARC
8
bottom_labelLayer
10
376.1459103
20
68.2739192
40
5.4758066
50
89.5573241
51
101.483225
0
ARC
8
bottom_labelLayer
10
375.7256223
20
70.2430561
40
3.4624716
50
101.1546312
51
123.0655751
0
ARC
8
bottom_labelLayer
10
375.4399344
20
70.7407107
40
2.8897212
50
123.7020438
51
142.3021992
0
ARC
8
bottom_labelLayer
10
376.1091439
20
70.2867111
40
3.6971884
50
143.0769793
51
161.3913804
0
ARC
8
bottom_labelLayer
10
378.8066807
20
69.3340025
40
6.5578454
50
161.0234436
51
171.4469044
0
ARC
8
bottom_labelLayer
10
383.2723629
20
68.6344651
40
11.077936
50
171.3041808
51
178.3501666
0
ARC
8
bottom_labelLayer
10
387.5403777
20
68.4438513
40
15.3498184
50
178.0976354
51
180.0253408
0
ARC
8
bottom_labelLayer
10
375.978725
20
71.1680183
40
4.3329711
50
117.1209581
51
149.5423662
0
ARC
8
bottom_labelLayer
10
376.420941
20
70.3820347
40
5.234245
50
93.8343286
51
117.5072124
0
ARC
8
bottom_labelLayer
10
376.5430782
20
69.3002699
40
6.3219499
50
89.9661736
51
94.283172
0
ARC
8
bottom_labelLayer
10
376.6162635
20
68.4043978
40
7.218155
50
77.5572209
51
90.5513068
0
ARC
8
bottom_labelLayer
10
377.2860292
20
71.2851812
40
4.260856
50
52.702705
51
78.0053821
0
ARC
8
bottom_labelLayer
10
377.5246543
20
71.7291495
40
3.7639163
50
22.2097913
51
51.4970598
0
ARC
8
bottom_labelLayer
10
385.1094478
20
70.8630003
40
4.6032842
50
119.4041715
51
150.1828801
0
ARC
8
bottom_labelLayer
10
385.6199682
20
70.0866489
40
5.530639
50
118.258349
51
120.0629713
0
ARC
8
bottom_labelLayer
10
385.6185224
20
70.0298826
40
5.5800266
50
95.863527
51
117.9693094
0
ARC
8
bottom_labelLayer
10
385.8073706
20
68.6643798
40
6.9578458
50
89.9196908
51
96.2617707
0
ARC
8
bottom_labelLayer
10
385.8680004
20
67.95878
40
7.6636076
50
79.9360998
51
90.3803794
0
ARC
8
bottom_labelLayer
10
386.3786389
20
70.724334
40
4.8514127
50
62.9723242
51
80.1665272
0
ARC
8
bottom_labelLayer
10
386.9124424
20
71.8194923
40
3.6333558
50
44.2290006
51
62.6229116
0
ARC
8
bottom_labelLayer
10
386.7536744
20
71.7493542
40
3.7965273
50
19.5612056
51
43.3161137
0
ARC
8
bottom_labelLayer
10
384.4478797
20
70.8832961
40
6.2593649
50
7.5041793
51
19.9645309
0
ARC
8
bottom_labelLayer
10
380.6324281
20
70.3474907
40
10.1121675
50
359.7107296
51
7.6907283
0
ENDSEC
0
EOF