0
SECTION
2
HEADER
9
$INSUNITS
70
1
0
ENDSEC
0
SECTION
2
TABLES
0
TABLE
2
LTYPE
0
LTYPE
72
65
70
64
2
CONTINUOUS
3
______
73
0
40
0
0
ENDTAB
0
TABLE
2
LAYER
0
ENDTAB
0
ENDSEC
0
SECTION
2
ENTITIES
0
LINE
8
front_outsideCutPath
10
0
20
4.125
11
0
21
3.625
0
LINE
8
front_outsideCutPath
10
0
20
3.625
11
0.118
21
3.625
0
LINE
8
front_outsideCutPath
10
0.118
20
3.625
11
0.118
21
3.186
0
LINE
8
front_outsideCutPath
10
0.118
20
3.186
11
0.294
21
3.186
0
LINE
8
front_outsideCutPath
10
0.294
20
3.186
11
0.294
21
3.255
0
LINE
8
front_outsideCutPath
10
0.294
20
3.255
11
0.402
21
3.255
0
LINE
8
front_outsideCutPath
10
0.402
20
3.255
11
0.402
21
3.186
0
LINE
8
front_outsideCutPath
10
0.402
20
3.186
11
0.51
21
3.186
0
LINE
8
front_outsideCutPath
10
0.51
20
3.186
11
0.51
21
3.064
0
LINE
8
front_outsideCutPath
10
0.51
20
3.064
11
0.402
21
3.064
0
LINE
8
front_outsideCutPath
10
0.402
20
3.064
11
0.402
21
2.995
0
LINE
8
front_outsideCutPath
10
0.402
20
2.995
11
0.294
21
2.995
0
LINE
8
front_outsideCutPath
10
0.294
20
2.995
11
0.294
21
3.064
0
LINE
8
front_outsideCutPath
10
0.294
20
3.064
11
0.118
21
3.064
0
LINE
8
front_outsideCutPath
10
0.118
20
3.064
11
0.118
21
2.625
0
LINE
8
front_outsideCutPath
10
0.118
20
2.625
11
0
21
2.625
0
LINE
8
front_outsideCutPath
10
0
20
2.625
11
0
21
1.625
0
LINE
8
front_outsideCutPath
10
0
20
1.625
11
0.118
21
1.625
0
LINE
8
front_outsideCutPath
10
0.118
20
1.625
11
0.118
21
1.186
0
LINE
8
front_outsideCutPath
10
0.118
20
1.186
11
0.294
21
1.186
0
LINE
8
front_outsideCutPath
10
0.294
20
1.186
11
0.294
21
1.255
0
LINE
8
front_outsideCutPath
10
0.294
20
1.255
11
0.402
21
1.255
0
LINE
8
front_outsideCutPath
10
0.402
20
1.255
11
0.402
21
1.186
0
LINE
8
front_outsideCutPath
10
0.402
20
1.186
11
0.51
21
1.186
0
LINE
8
front_outsideCutPath
10
0.51
20
1.186
11
0.51
21
1.064
0
LINE
8
front_outsideCutPath
10
0.51
20
1.064
11
0.402
21
1.064
0
LINE
8
front_outsideCutPath
10
0.402
20
1.064
11
0.402
21
0.995
0
LINE
8
front_outsideCutPath
10
0.402
20
0.995
11
0.294
21
0.995
0
LINE
8
front_outsideCutPath
10
0.294
20
0.995
11
0.294
21
1.064
0
LINE
8
front_outsideCutPath
10
0.294
20
1.064
11
0.118
21
1.064
0
LINE
8
front_outsideCutPath
10
0.118
20
1.064
11
0.118
21
0.625
0
LINE
8
front_outsideCutPath
10
0.118
20
0.625
11
0
21
0.625
0
LINE
8
front_outsideCutPath
10
0
20
0.625
11
0
21
0.125
0
LINE
8
front_outsideCutPath
10
0
20
0.125
11
0.5
21
0.125
0
LINE
8
front_outsideCutPath
10
0.5
20
0.125
11
0.5
21
0.243
0
LINE
8
front_outsideCutPath
10
0.5
20
0.243
11
0.939
21
0.243
0
LINE
8
front_outsideCutPath
10
0.939
20
0.243
11
0.939
21
0.419
0
LINE
8
front_outsideCutPath
10
0.939
20
0.419
11
0.87
21
0.419
0
LINE
8
front_outsideCutPath
10
0.87
20
0.419
11
0.87
21
0.527
0
LINE
8
front_outsideCutPath
10
0.87
20
0.527
11
0.939
21
0.527
0
LINE
8
front_outsideCutPath
10
0.939
20
0.527
11
0.939
21
0.635
0
LINE
8
front_outsideCutPath
10
0.939
20
0.635
11
1.061
21
0.635
0
LINE
8
front_outsideCutPath
10
1.061
20
0.635
11
1.061
21
0.527
0
LINE
8
front_outsideCutPath
10
1.061
20
0.527
11
1.13
21
0.527
0
LINE
8
front_outsideCutPath
10
1.13
20
0.527
11
1.13
21
0.419
0
LINE
8
front_outsideCutPath
10
1.13
20
0.419
11
1.061
21
0.419
0
LINE
8
front_outsideCutPath
10
1.061
20
0.419
11
1.061
21
0.243
0
LINE
8
front_outsideCutPath
10
1.061
20
0.243
11
1.5
21
0.243
0
LINE
8
front_outsideCutPath
10
1.5
20
0.243
11
1.5
21
0.125
0
LINE
8
front_outsideCutPath
10
1.5
20
0.125
11
2.5
21
0.125
0
LINE
8
front_outsideCutPath
10
2.5
20
0.125
11
2.5
21
0.243
0
LINE
8
front_outsideCutPath
10
2.5
20
0.243
11
2.939
21
0.243
0
LINE
8
front_outsideCutPath
10
2.939
20
0.243
11
2.939
21
0.419
0
LINE
8
front_outsideCutPath
10
2.939
20
0.419
11
2.87
21
0.419
0
LINE
8
front_outsideCutPath
10
2.87
20
0.419
11
2.87
21
0.527
0
LINE
8
front_outsideCutPath
10
2.87
20
0.527
11
2.939
21
0.527
0
LINE
8
front_outsideCutPath
10
2.939
20
0.527
11
2.939
21
0.635
0
LINE
8
front_outsideCutPath
10
2.939
20
0.635
11
3.061
21
0.635
0
LINE
8
front_outsideCutPath
10
3.061
20
0.635
11
3.061
21
0.527
0
LINE
8
front_outsideCutPath
10
3.061
20
0.527
11
3.13
21
0.527
0
LINE
8
front_outsideCutPath
10
3.13
20
0.527
11
3.13
21
0.419
0
LINE
8
front_outsideCutPath
10
3.13
20
0.419
11
3.061
21
0.419
0
LINE
8
front_outsideCutPath
10
3.061
20
0.419
11
3.061
21
0.243
0
LINE
8
front_outsideCutPath
10
3.061
20
0.243
11
3.5
21
0.243
0
LINE
8
front_outsideCutPath
10
3.5
20
0.243
11
3.5
21
0.125
0
LINE
8
front_outsideCutPath
10
3.5
20
0.125
11
4
21
0.125
0
LINE
8
front_outsideCutPath
10
4
20
0.125
11
4
21
0.625
0
LINE
8
front_outsideCutPath
10
4
20
0.625
11
3.882
21
0.625
0
LINE
8
front_outsideCutPath
10
3.882
20
0.625
11
3.882
21
1.064
0
LINE
8
front_outsideCutPath
10
3.882
20
1.064
11
3.706
21
1.064
0
LINE
8
front_outsideCutPath
10
3.706
20
1.064
11
3.706
21
0.995
0
LINE
8
front_outsideCutPath
10
3.706
20
0.995
11
3.598
21
0.995
0
LINE
8
front_outsideCutPath
10
3.598
20
0.995
11
3.598
21
1.064
0
LINE
8
front_outsideCutPath
10
3.598
20
1.064
11
3.49
21
1.064
0
LINE
8
front_outsideCutPath
10
3.49
20
1.064
11
3.49
21
1.186
0
LINE
8
front_outsideCutPath
10
3.49
20
1.186
11
3.598
21
1.186
0
LINE
8
front_outsideCutPath
10
3.598
20
1.186
11
3.598
21
1.255
0
LINE
8
front_outsideCutPath
10
3.598
20
1.255
11
3.706
21
1.255
0
LINE
8
front_outsideCutPath
10
3.706
20
1.255
11
3.706
21
1.186
0
LINE
8
front_outsideCutPath
10
3.706
20
1.186
11
3.882
21
1.186
0
LINE
8
front_outsideCutPath
10
3.882
20
1.186
11
3.882
21
1.625
0
LINE
8
front_outsideCutPath
10
3.882
20
1.625
11
4
21
1.625
0
LINE
8
front_outsideCutPath
10
4
20
1.625
11
4
21
2.625
0
LINE
8
front_outsideCutPath
10
4
20
2.625
11
3.882
21
2.625
0
LINE
8
front_outsideCutPath
10
3.882
20
2.625
11
3.882
21
3.064
0
LINE
8
front_outsideCutPath
10
3.882
20
3.064
11
3.706
21
3.064
0
LINE
8
front_outsideCutPath
10
3.706
20
3.064
11
3.706
21
2.995
0
LINE
8
front_outsideCutPath
10
3.706
20
2.995
11
3.598
21
2.995
0
LINE
8
front_outsideCutPath
10
3.598
20
2.995
11
3.598
21
3.064
0
LINE
8
front_outsideCutPath
10
3.598
20
3.064
11
3.49
21
3.064
0
LINE
8
front_outsideCutPath
10
3.49
20
3.064
11
3.49
21
3.186
0
LINE
8
front_outsideCutPath
10
3.49
20
3.186
11
3.598
21
3.186
0
LINE
8
front_outsideCutPath
10
3.598
20
3.186
11
3.598
21
3.255
0
LINE
8
front_outsideCutPath
10
3.598
20
3.255
11
3.706
21
3.255
0
LINE
8
front_outsideCutPath
10
3.706
20
3.255
11
3.706
21
3.186
0
LINE
8
front_outsideCutPath
10
3.706
20
3.186
11
3.882
21
3.186
0
LINE
8
front_outsideCutPath
10
3.882
20
3.186
11
3.882
21
3.625
0
LINE
8
front_outsideCutPath
10
3.882
20
3.625
11
4
21
3.625
0
LINE
8
front_outsideCutPath
10
4
20
3.625
11
4
21
4.125
0
LINE
8
front_outsideCutPath
10
4
20
4.125
11
3.5
21
4.125
0
LINE
8
front_outsideCutPath
10
3.5
20
4.125
11
3.5
21
4.007
0
LINE
8
front_outsideCutPath
10
3.5
20
4.007
11
3.061
21
4.007
0
LINE
8
front_outsideCutPath
10
3.061
20
4.007
11
3.061
21
3.831
0
LINE
8
front_outsideCutPath
10
3.061
20
3.831
11
3.13
21
3.831
0
LINE
8
front_outsideCutPath
10
3.13
20
3.831
11
3.13
21
3.723
0
LINE
8
front_outsideCutPath
10
3.13
20
3.723
11
3.061
21
3.723
0
LINE
8
front_outsideCutPath
10
3.061
20
3.723
11
3.061
21
3.615
0
LINE
8
front_outsideCutPath
10
3.061
20
3.615
11
2.939
21
3.615
0
LINE
8
front_outsideCutPath
10
2.939
20
3.615
11
2.939
21
3.723
0
LINE
8
front_outsideCutPath
10
2.939
20
3.723
11
2.87
21
3.723
0
LINE
8
front_outsideCutPath
10
2.87
20
3.723
11
2.87
21
3.831
0
LINE
8
front_outsideCutPath
10
2.87
20
3.831
11
2.939
21
3.831
0
LINE
8
front_outsideCutPath
10
2.939
20
3.831
11
2.939
21
4.007
0
LINE
8
front_outsideCutPath
10
2.939
20
4.007
11
2.5
21
4.007
0
LINE
8
front_outsideCutPath
10
2.5
20
4.007
11
2.5
21
4.125
0
LINE
8
front_outsideCutPath
10
2.5
20
4.125
11
1.5
21
4.125
0
LINE
8
front_outsideCutPath
10
1.5
20
4.125
11
1.5
21
4.007
0
LINE
8
front_outsideCutPath
10
1.5
20
4.007
11
1.061
21
4.007
0
LINE
8
front_outsideCutPath
10
1.061
20
4.007
11
1.061
21
3.831
0
LINE
8
front_outsideCutPath
10
1.061
20
3.831
11
1.13
21
3.831
0
LINE
8
front_outsideCutPath
10
1.13
20
3.831
11
1.13
21
3.723
0
LINE
8
front_outsideCutPath
10
1.13
20
3.723
11
1.061
21
3.723
0
LINE
8
front_outsideCutPath
10
1.061
20
3.723
11
1.061
21
3.615
0
LINE
8
front_outsideCutPath
10
1.061
20
3.615
11
0.939
21
3.615
0
LINE
8
front_outsideCutPath
10
0.939
20
3.615
11
0.939
21
3.723
0
LINE
8
front_outsideCutPath
10
0.939
20
3.723
11
0.87
21
3.723
0
LINE
8
front_outsideCutPath
10
0.87
20
3.723
11
0.87
21
3.831
0
LINE
8
front_outsideCutPath
10
0.87
20
3.831
11
0.939
21
3.831
0
LINE
8
front_outsideCutPath
10
0.939
20
3.831
11
0.939
21
4.007
0
LINE
8
front_outsideCutPath
10
0.939
20
4.007
11
0.5
21
4.007
0
LINE
8
front_outsideCutPath
10
0.5
20
4.007
11
0.5
21
4.125
0
LINE
8
front_outsideCutPath
10
0.5
20
4.125
11
0
21
4.125
0
LINE
8
left_outsideCutPath
10
4.243
20
4.125
11
4.243
21
3.625
0
LINE
8
left_outsideCutPath
10
4.243
20
3.625
11
4.125
21
3.625
0
LINE
8
left_outsideCutPath
10
4.125
20
3.625
11
4.125
21
3.186
0
LINE
8
left_outsideCutPath
10
4.125
20
3.186
11
4.247
21
3.186
0
LINE
8
left_outsideCutPath
10
4.247
20
3.186
11
4.247
21
3.125
0
LINE
8
left_outsideCutPath
10
4.247
20
3.125
11
4.247
21
3.125
0
LINE
8
left_outsideCutPath
10
4.247
20
3.125
11
4.247
21
3.064
0
LINE
8
left_outsideCutPath
10
4.247
20
3.064
11
4.125
21
3.064
0
LINE
8
left_outsideCutPath
10
4.125
20
3.064
11
4.125
21
2.625
0
LINE
8
left_outsideCutPath
10
4.125
20
2.625
11
4.243
21
2.625
0
LINE
8
left_outsideCutPath
10
4.243
20
2.625
11
4.243
21
1.625
0
LINE
8
left_outsideCutPath
10
4.243
20
1.625
11
4.125
21
1.625
0
LINE
8
left_outsideCutPath
10
4.125
20
1.625
11
4.125
21
1.186
0
LINE
8
left_outsideCutPath
10
4.125
20
1.186
11
4.247
21
1.186
0
LINE
8
left_outsideCutPath
10
4.247
20
1.186
11
4.247
21
1.125
0
LINE
8
left_outsideCutPath
10
4.247
20
1.125
11
4.247
21
1.125
0
LINE
8
left_outsideCutPath
10
4.247
20
1.125
11
4.247
21
1.064
0
LINE
8
left_outsideCutPath
10
4.247
20
1.064
11
4.125
21
1.064
0
LINE
8
left_outsideCutPath
10
4.125
20
1.064
11
4.125
21
0.625
0
LINE
8
left_outsideCutPath
10
4.125
20
0.625
11
4.243
21
0.625
0
LINE
8
left_outsideCutPath
10
4.243
20
0.625
11
4.243
21
0.125
0
LINE
8
left_outsideCutPath
10
4.243
20
0.125
11
4.625
21
0.125
0
LINE
8
left_outsideCutPath
10
4.625
20
0.125
11
4.625
21
0.243
0
LINE
8
left_outsideCutPath
10
4.625
20
0.243
11
5.064
21
0.243
0
LINE
8
left_outsideCutPath
10
5.064
20
0.243
11
5.064
21
0.419
0
LINE
8
left_outsideCutPath
10
5.064
20
0.419
11
4.995
21
0.419
0
LINE
8
left_outsideCutPath
10
4.995
20
0.419
11
4.995
21
0.527
0
LINE
8
left_outsideCutPath
10
4.995
20
0.527
11
5.064
21
0.527
0
LINE
8
left_outsideCutPath
10
5.064
20
0.527
11
5.064
21
0.635
0
LINE
8
left_outsideCutPath
10
5.064
20
0.635
11
5.186
21
0.635
0
LINE
8
left_outsideCutPath
10
5.186
20
0.635
11
5.186
21
0.527
0
LINE
8
left_outsideCutPath
10
5.186
20
0.527
11
5.255
21
0.527
0
LINE
8
left_outsideCutPath
10
5.255
20
0.527
11
5.255
21
0.419
0
LINE
8
left_outsideCutPath
10
5.255
20
0.419
11
5.186
21
0.419
0
LINE
8
left_outsideCutPath
10
5.186
20
0.419
11
5.186
21
0.243
0
LINE
8
left_outsideCutPath
10
5.186
20
0.243
11
5.625
21
0.243
0
LINE
8
left_outsideCutPath
10
5.625
20
0.243
11
5.625
21
0.125
0
LINE
8
left_outsideCutPath
10
5.625
20
0.125
11
6.625
21
0.125
0
LINE
8
left_outsideCutPath
10
6.625
20
0.125
11
6.625
21
0.243
0
LINE
8
left_outsideCutPath
10
6.625
20
0.243
11
7.064
21
0.243
0
LINE
8
left_outsideCutPath
10
7.064
20
0.243
11
7.064
21
0.419
0
LINE
8
left_outsideCutPath
10
7.064
20
0.419
11
6.995
21
0.419
0
LINE
8
left_outsideCutPath
10
6.995
20
0.419
11
6.995
21
0.527
0
LINE
8
left_outsideCutPath
10
6.995
20
0.527
11
7.064
21
0.527
0
LINE
8
left_outsideCutPath
10
7.064
20
0.527
11
7.064
21
0.635
0
LINE
8
left_outsideCutPath
10
7.064
20
0.635
11
7.186
21
0.635
0
LINE
8
left_outsideCutPath
10
7.186
20
0.635
11
7.186
21
0.527
0
LINE
8
left_outsideCutPath
10
7.186
20
0.527
11
7.255
21
0.527
0
LINE
8
left_outsideCutPath
10
7.255
20
0.527
11
7.255
21
0.419
0
LINE
8
left_outsideCutPath
10
7.255
20
0.419
11
7.186
21
0.419
0
LINE
8
left_outsideCutPath
10
7.186
20
0.419
11
7.186
21
0.243
0
LINE
8
left_outsideCutPath
10
7.186
20
0.243
11
7.625
21
0.243
0
LINE
8
left_outsideCutPath
10
7.625
20
0.243
11
7.625
21
0.125
0
LINE
8
left_outsideCutPath
10
7.625
20
0.125
11
8.007
21
0.125
0
LINE
8
left_outsideCutPath
10
8.007
20
0.125
11
8.007
21
0.625
0
LINE
8
left_outsideCutPath
10
8.007
20
0.625
11
8.125
21
0.625
0
LINE
8
left_outsideCutPath
10
8.125
20
0.625
11
8.125
21
1.064
0
LINE
8
left_outsideCutPath
10
8.125
20
1.064
11
8.003
21
1.064
0
LINE
8
left_outsideCutPath
10
8.003
20
1.064
11
8.003
21
1.125
0
LINE
8
left_outsideCutPath
10
8.003
20
1.125
11
8.003
21
1.125
0
LINE
8
left_outsideCutPath
10
8.003
20
1.125
11
8.003
21
1.186
0
LINE
8
left_outsideCutPath
10
8.003
20
1.186
11
8.125
21
1.186
0
LINE
8
left_outsideCutPath
10
8.125
20
1.186
11
8.125
21
1.625
0
LINE
8
left_outsideCutPath
10
8.125
20
1.625
11
8.007
21
1.625
0
LINE
8
left_outsideCutPath
10
8.007
20
1.625
11
8.007
21
2.625
0
LINE
8
left_outsideCutPath
10
8.007
20
2.625
11
8.125
21
2.625
0
LINE
8
left_outsideCutPath
10
8.125
20
2.625
11
8.125
21
3.064
0
LINE
8
left_outsideCutPath
10
8.125
20
3.064
11
8.003
21
3.064
0
LINE
8
left_outsideCutPath
10
8.003
20
3.064
11
8.003
21
3.125
0
LINE
8
left_outsideCutPath
10
8.003
20
3.125
11
8.003
21
3.125
0
LINE
8
left_outsideCutPath
10
8.003
20
3.125
11
8.003
21
3.186
0
LINE
8
left_outsideCutPath
10
8.003
20
3.186
11
8.125
21
3.186
0
LINE
8
left_outsideCutPath
10
8.125
20
3.186
11
8.125
21
3.625
0
LINE
8
left_outsideCutPath
10
8.125
20
3.625
11
8.007
21
3.625
0
LINE
8
left_outsideCutPath
10
8.007
20
3.625
11
8.007
21
4.125
0
LINE
8
left_outsideCutPath
10
8.007
20
4.125
11
7.625
21
4.125
0
LINE
8
left_outsideCutPath
10
7.625
20
4.125
11
7.625
21
4.007
0
LINE
8
left_outsideCutPath
10
7.625
20
4.007
11
7.186
21
4.007
0
LINE
8
left_outsideCutPath
10
7.186
20
4.007
11
7.186
21
3.831
0
LINE
8
left_outsideCutPath
10
7.186
20
3.831
11
7.255
21
3.831
0
LINE
8
left_outsideCutPath
10
7.255
20
3.831
11
7.255
21
3.723
0
LINE
8
left_outsideCutPath
10
7.255
20
3.723
11
7.186
21
3.723
0
LINE
8
left_outsideCutPath
10
7.186
20
3.723
11
7.186
21
3.615
0
LINE
8
left_outsideCutPath
10
7.186
20
3.615
11
7.064
21
3.615
0
LINE
8
left_outsideCutPath
10
7.064
20
3.615
11
7.064
21
3.723
0
LINE
8
left_outsideCutPath
10
7.064
20
3.723
11
6.995
21
3.723
0
LINE
8
left_outsideCutPath
10
6.995
20
3.723
11
6.995
21
3.831
0
LINE
8
left_outsideCutPath
10
6.995
20
3.831
11
7.064
21
3.831
0
LINE
8
left_outsideCutPath
10
7.064
20
3.831
11
7.064
21
4.007
0
LINE
8
left_outsideCutPath
10
7.064
20
4.007
11
6.625
21
4.007
0
LINE
8
left_outsideCutPath
10
6.625
20
4.007
11
6.625
21
4.125
0
LINE
8
left_outsideCutPath
10
6.625
20
4.125
11
5.625
21
4.125
0
LINE
8
left_outsideCutPath
10
5.625
20
4.125
11
5.625
21
4.007
0
LINE
8
left_outsideCutPath
10
5.625
20
4.007
11
5.186
21
4.007
0
LINE
8
left_outsideCutPath
10
5.186
20
4.007
11
5.186
21
3.831
0
LINE
8
left_outsideCutPath
10
5.186
20
3.831
11
5.255
21
3.831
0
LINE
8
left_outsideCutPath
10
5.255
20
3.831
11
5.255
21
3.723
0
LINE
8
left_outsideCutPath
10
5.255
20
3.723
11
5.186
21
3.723
0
LINE
8
left_outsideCutPath
10
5.186
20
3.723
11
5.186
21
3.615
0
LINE
8
left_outsideCutPath
10
5.186
20
3.615
11
5.064
21
3.615
0
LINE
8
left_outsideCutPath
10
5.064
20
3.615
11
5.064
21
3.723
0
LINE
8
left_outsideCutPath
10
5.064
20
3.723
11
4.995
21
3.723
0
LINE
8
left_outsideCutPath
10
4.995
20
3.723
11
4.995
21
3.831
0
LINE
8
left_outsideCutPath
10
4.995
20
3.831
11
5.064
21
3.831
0
LINE
8
left_outsideCutPath
10
5.064
20
3.831
11
5.064
21
4.007
0
LINE
8
left_outsideCutPath
10
5.064
20
4.007
11
4.625
21
4.007
0
LINE
8
left_outsideCutPath
10
4.625
20
4.007
11
4.625
21
4.125
0
LINE
8
left_outsideCutPath
10
4.625
20
4.125
11
4.243
21
4.125
0
LINE
8
top_outsideCutPath
10
8.368
20
4.007
11
8.368
21
3.625
0
LINE
8
top_outsideCutPath
10
8.368
20
3.625
11
8.25
21
3.625
0
LINE
8
top_outsideCutPath
10
8.25
20
3.625
11
8.25
21
3.186
0
LINE
8
top_outsideCutPath
10
8.25
20
3.186
11
8.372
21
3.186
0
LINE
8
top_outsideCutPath
10
8.372
20
3.186
11
8.372
21
3.125
0
LINE
8
top_outsideCutPath
10
8.372
20
3.125
11
8.372
21
3.125
0
LINE
8
top_outsideCutPath
10
8.372
20
3.125
11
8.372
21
3.064
0
LINE
8
top_outsideCutPath
10
8.372
20
3.064
11
8.25
21
3.064
0
LINE
8
top_outsideCutPath
10
8.25
20
3.064
11
8.25
21
2.625
0
LINE
8
top_outsideCutPath
10
8.25
20
2.625
11
8.368
21
2.625
0
LINE
8
top_outsideCutPath
10
8.368
20
2.625
11
8.368
21
1.625
0
LINE
8
top_outsideCutPath
10
8.368
20
1.625
11
8.25
21
1.625
0
LINE
8
top_outsideCutPath
10
8.25
20
1.625
11
8.25
21
1.186
0
LINE
8
top_outsideCutPath
10
8.25
20
1.186
11
8.372
21
1.186
0
LINE
8
top_outsideCutPath
10
8.372
20
1.186
11
8.372
21
1.125
0
LINE
8
top_outsideCutPath
10
8.372
20
1.125
11
8.372
21
1.125
0
LINE
8
top_outsideCutPath
10
8.372
20
1.125
11
8.372
21
1.064
0
LINE
8
top_outsideCutPath
10
8.372
20
1.064
11
8.25
21
1.064
0
LINE
8
top_outsideCutPath
10
8.25
20
1.064
11
8.25
21
0.625
0
LINE
8
top_outsideCutPath
10
8.25
20
0.625
11
8.368
21
0.625
0
LINE
8
top_outsideCutPath
10
8.368
20
0.625
11
8.368
21
0.243
0
LINE
8
top_outsideCutPath
10
8.368
20
0.243
11
8.75
21
0.243
0
LINE
8
top_outsideCutPath
10
8.75
20
0.243
11
8.75
21
0.125
0
LINE
8
top_outsideCutPath
10
8.75
20
0.125
11
9.189
21
0.125
0
LINE
8
top_outsideCutPath
10
9.189
20
0.125
11
9.189
21
0.247
0
LINE
8
top_outsideCutPath
10
9.189
20
0.247
11
9.25
21
0.247
0
LINE
8
top_outsideCutPath
10
9.25
20
0.247
11
9.25
21
0.247
0
LINE
8
top_outsideCutPath
10
9.25
20
0.247
11
9.311
21
0.247
0
LINE
8
top_outsideCutPath
10
9.311
20
0.247
11
9.311
21
0.125
0
LINE
8
top_outsideCutPath
10
9.311
20
0.125
11
9.75
21
0.125
0
LINE
8
top_outsideCutPath
10
9.75
20
0.125
11
9.75
21
0.243
0
LINE
8
top_outsideCutPath
10
9.75
20
0.243
11
10.75
21
0.243
0
LINE
8
top_outsideCutPath
10
10.75
20
0.243
11
10.75
21
0.125
0
LINE
8
top_outsideCutPath
10
10.75
20
0.125
11
11.189
21
0.125
0
LINE
8
top_outsideCutPath
10
11.189
20
0.125
11
11.189
21
0.247
0
LINE
8
top_outsideCutPath
10
11.189
20
0.247
11
11.25
21
0.247
0
LINE
8
top_outsideCutPath
10
11.25
20
0.247
11
11.25
21
0.247
0
LINE
8
top_outsideCutPath
10
11.25
20
0.247
11
11.311
21
0.247
0
LINE
8
top_outsideCutPath
10
11.311
20
0.247
11
11.311
21
0.125
0
LINE
8
top_outsideCutPath
10
11.311
20
0.125
11
11.75
21
0.125
0
LINE
8
top_outsideCutPath
10
11.75
20
0.125
11
11.75
21
0.243
0
LINE
8
top_outsideCutPath
10
11.75
20
0.243
11
12.132
21
0.243
0
LINE
8
top_outsideCutPath
10
12.132
20
0.243
11
12.132
21
0.625
0
LINE
8
top_outsideCutPath
10
12.132
20
0.625
11
12.25
21
0.625
0
LINE
8
top_outsideCutPath
10
12.25
20
0.625
11
12.25
21
1.064
0
LINE
8
top_outsideCutPath
10
12.25
20
1.064
11
12.128
21
1.064
0
LINE
8
top_outsideCutPath
10
12.128
20
1.064
11
12.128
21
1.125
0
LINE
8
top_outsideCutPath
10
12.128
20
1.125
11
12.128
21
1.125
0
LINE
8
top_outsideCutPath
10
12.128
20
1.125
11
12.128
21
1.186
0
LINE
8
top_outsideCutPath
10
12.128
20
1.186
11
12.25
21
1.186
0
LINE
8
top_outsideCutPath
10
12.25
20
1.186
11
12.25
21
1.625
0
LINE
8
top_outsideCutPath
10
12.25
20
1.625
11
12.132
21
1.625
0
LINE
8
top_outsideCutPath
10
12.132
20
1.625
11
12.132
21
2.625
0
LINE
8
top_outsideCutPath
10
12.132
20
2.625
11
12.25
21
2.625
0
LINE
8
top_outsideCutPath
10
12.25
20
2.625
11
12.25
21
3.064
0
LINE
8
top_outsideCutPath
10
12.25
20
3.064
11
12.128
21
3.064
0
LINE
8
top_outsideCutPath
10
12.128
20
3.064
11
12.128
21
3.125
0
LINE
8
top_outsideCutPath
10
12.128
20
3.125
11
12.128
21
3.125
0
LINE
8
top_outsideCutPath
10
12.128
20
3.125
11
12.128
21
3.186
0
LINE
8
top_outsideCutPath
10
12.128
20
3.186
11
12.25
21
3.186
0
LINE
8
top_outsideCutPath
10
12.25
20
3.186
11
12.25
21
3.625
0
LINE
8
top_outsideCutPath
10
12.25
20
3.625
11
12.132
21
3.625
0
LINE
8
top_outsideCutPath
10
12.132
20
3.625
11
12.132
21
4.007
0
LINE
8
top_outsideCutPath
10
12.132
20
4.007
11
11.75
21
4.007
0
LINE
8
top_outsideCutPath
10
11.75
20
4.007
11
11.75
21
4.125
0
LINE
8
top_outsideCutPath
10
11.75
20
4.125
11
11.311
21
4.125
0
LINE
8
top_outsideCutPath
10
11.311
20
4.125
11
11.311
21
4.003
0
LINE
8
top_outsideCutPath
10
11.311
20
4.003
11
11.25
21
4.003
0
LINE
8
top_outsideCutPath
10
11.25
20
4.003
11
11.25
21
4.003
0
LINE
8
top_outsideCutPath
10
11.25
20
4.003
11
11.189
21
4.003
0
LINE
8
top_outsideCutPath
10
11.189
20
4.003
11
11.189
21
4.125
0
LINE
8
top_outsideCutPath
10
11.189
20
4.125
11
10.75
21
4.125
0
LINE
8
top_outsideCutPath
10
10.75
20
4.125
11
10.75
21
4.007
0
LINE
8
top_outsideCutPath
10
10.75
20
4.007
11
9.75
21
4.007
0
LINE
8
top_outsideCutPath
10
9.75
20
4.007
11
9.75
21
4.125
0
LINE
8
top_outsideCutPath
10
9.75
20
4.125
11
9.311
21
4.125
0
LINE
8
top_outsideCutPath
10
9.311
20
4.125
11
9.311
21
4.003
0
LINE
8
top_outsideCutPath
10
9.311
20
4.003
11
9.25
21
4.003
0
LINE
8
top_outsideCutPath
10
9.25
20
4.003
11
9.25
21
4.003
0
LINE
8
top_outsideCutPath
10
9.25
20
4.003
11
9.189
21
4.003
0
LINE
8
top_outsideCutPath
10
9.189
20
4.003
11
9.189
21
4.125
0
LINE
8
top_outsideCutPath
10
9.189
20
4.125
11
8.75
21
4.125
0
LINE
8
top_outsideCutPath
10
8.75
20
4.125
11
8.75
21
4.007
0
LINE
8
top_outsideCutPath
10
8.75
20
4.007
11
8.368
21
4.007
0
LINE
8
back_outsideCutPath
10
0
20
8.25
11
0
21
7.75
0
LINE
8
back_outsideCutPath
10
0
20
7.75
11
0.118
21
7.75
0
LINE
8
back_outsideCutPath
10
0.118
20
7.75
11
0.118
21
7.311
0
LINE
8
back_outsideCutPath
10
0.118
20
7.311
11
0.294
21
7.311
0
LINE
8
back_outsideCutPath
10
0.294
20
7.311
11
0.294
21
7.38
0
LINE
8
back_outsideCutPath
10
0.294
20
7.38
11
0.402
21
7.38
0
LINE
8
back_outsideCutPath
10
0.402
20
7.38
11
0.402
21
7.311
0
LINE
8
back_outsideCutPath
10
0.402
20
7.311
11
0.51
21
7.311
0
LINE
8
back_outsideCutPath
10
0.51
20
7.311
11
0.51
21
7.189
0
LINE
8
back_outsideCutPath
10
0.51
20
7.189
11
0.402
21
7.189
0
LINE
8
back_outsideCutPath
10
0.402
20
7.189
11
0.402
21
7.12
0
LINE
8
back_outsideCutPath
10
0.402
20
7.12
11
0.294
21
7.12
0
LINE
8
back_outsideCutPath
10
0.294
20
7.12
11
0.294
21
7.189
0
LINE
8
back_outsideCutPath
10
0.294
20
7.189
11
0.118
21
7.189
0
LINE
8
back_outsideCutPath
10
0.118
20
7.189
11
0.118
21
6.75
0
LINE
8
back_outsideCutPath
10
0.118
20
6.75
11
0
21
6.75
0
LINE
8
back_outsideCutPath
10
0
20
6.75
11
0
21
5.75
0
LINE
8
back_outsideCutPath
10
0
20
5.75
11
0.118
21
5.75
0
LINE
8
back_outsideCutPath
10
0.118
20
5.75
11
0.118
21
5.311
0
LINE
8
back_outsideCutPath
10
0.118
20
5.311
11
0.294
21
5.311
0
LINE
8
back_outsideCutPath
10
0.294
20
5.311
11
0.294
21
5.38
0
LINE
8
back_outsideCutPath
10
0.294
20
5.38
11
0.402
21
5.38
0
LINE
8
back_outsideCutPath
10
0.402
20
5.38
11
0.402
21
5.311
0
LINE
8
back_outsideCutPath
10
0.402
20
5.311
11
0.51
21
5.311
0
LINE
8
back_outsideCutPath
10
0.51
20
5.311
11
0.51
21
5.189
0
LINE
8
back_outsideCutPath
10
0.51
20
5.189
11
0.402
21
5.189
0
LINE
8
back_outsideCutPath
10
0.402
20
5.189
11
0.402
21
5.12
0
LINE
8
back_outsideCutPath
10
0.402
20
5.12
11
0.294
21
5.12
0
LINE
8
back_outsideCutPath
10
0.294
20
5.12
11
0.294
21
5.189
0
LINE
8
back_outsideCutPath
10
0.294
20
5.189
11
0.118
21
5.189
0
LINE
8
back_outsideCutPath
10
0.118
20
5.189
11
0.118
21
4.75
0
LINE
8
back_outsideCutPath
10
0.118
20
4.75
11
0
21
4.75
0
LINE
8
back_outsideCutPath
10
0
20
4.75
11
0
21
4.25
0
LINE
8
back_outsideCutPath
10
0
20
4.25
11
0.5
21
4.25
0
LINE
8
back_outsideCutPath
10
0.5
20
4.25
11
0.5
21
4.368
0
LINE
8
back_outsideCutPath
10
0.5
20
4.368
11
0.939
21
4.368
0
LINE
8
back_outsideCutPath
10
0.939
20
4.368
11
0.939
21
4.544
0
LINE
8
back_outsideCutPath
10
0.939
20
4.544
11
0.87
21
4.544
0
LINE
8
back_outsideCutPath
10
0.87
20
4.544
11
0.87
21
4.652
0
LINE
8
back_outsideCutPath
10
0.87
20
4.652
11
0.939
21
4.652
0
LINE
8
back_outsideCutPath
10
0.939
20
4.652
11
0.939
21
4.76
0
LINE
8
back_outsideCutPath
10
0.939
20
4.76
11
1.061
21
4.76
0
LINE
8
back_outsideCutPath
10
1.061
20
4.76
11
1.061
21
4.652
0
LINE
8
back_outsideCutPath
10
1.061
20
4.652
11
1.13
21
4.652
0
LINE
8
back_outsideCutPath
10
1.13
20
4.652
11
1.13
21
4.544
0
LINE
8
back_outsideCutPath
10
1.13
20
4.544
11
1.061
21
4.544
0
LINE
8
back_outsideCutPath
10
1.061
20
4.544
11
1.061
21
4.368
0
LINE
8
back_outsideCutPath
10
1.061
20
4.368
11
1.5
21
4.368
0
LINE
8
back_outsideCutPath
10
1.5
20
4.368
11
1.5
21
4.25
0
LINE
8
back_outsideCutPath
10
1.5
20
4.25
11
2.5
21
4.25
0
LINE
8
back_outsideCutPath
10
2.5
20
4.25
11
2.5
21
4.368
0
LINE
8
back_outsideCutPath
10
2.5
20
4.368
11
2.939
21
4.368
0
LINE
8
back_outsideCutPath
10
2.939
20
4.368
11
2.939
21
4.544
0
LINE
8
back_outsideCutPath
10
2.939
20
4.544
11
2.87
21
4.544
0
LINE
8
back_outsideCutPath
10
2.87
20
4.544
11
2.87
21
4.652
0
LINE
8
back_outsideCutPath
10
2.87
20
4.652
11
2.939
21
4.652
0
LINE
8
back_outsideCutPath
10
2.939
20
4.652
11
2.939
21
4.76
0
LINE
8
back_outsideCutPath
10
2.939
20
4.76
11
3.061
21
4.76
0
LINE
8
back_outsideCutPath
10
3.061
20
4.76
11
3.061
21
4.652
0
LINE
8
back_outsideCutPath
10
3.061
20
4.652
11
3.13
21
4.652
0
LINE
8
back_outsideCutPath
10
3.13
20
4.652
11
3.13
21
4.544
0
LINE
8
back_outsideCutPath
10
3.13
20
4.544
11
3.061
21
4.544
0
LINE
8
back_outsideCutPath
10
3.061
20
4.544
11
3.061
21
4.368
0
LINE
8
back_outsideCutPath
10
3.061
20
4.368
11
3.5
21
4.368
0
LINE
8
back_outsideCutPath
10
3.5
20
4.368
11
3.5
21
4.25
0
LINE
8
back_outsideCutPath
10
3.5
20
4.25
11
4
21
4.25
0
LINE
8
back_outsideCutPath
10
4
20
4.25
11
4
21
4.75
0
LINE
8
back_outsideCutPath
10
4
20
4.75
11
3.882
21
4.75
0
LINE
8
back_outsideCutPath
10
3.882
20
4.75
11
3.882
21
5.189
0
LINE
8
back_outsideCutPath
10
3.882
20
5.189
11
3.706
21
5.189
0
LINE
8
back_outsideCutPath
10
3.706
20
5.189
11
3.706
21
5.12
0
LINE
8
back_outsideCutPath
10
3.706
20
5.12
11
3.598
21
5.12
0
LINE
8
back_outsideCutPath
10
3.598
20
5.12
11
3.598
21
5.189
0
LINE
8
back_outsideCutPath
10
3.598
20
5.189
11
3.49
21
5.189
0
LINE
8
back_outsideCutPath
10
3.49
20
5.189
11
3.49
21
5.311
0
LINE
8
back_outsideCutPath
10
3.49
20
5.311
11
3.598
21
5.311
0
LINE
8
back_outsideCutPath
10
3.598
20
5.311
11
3.598
21
5.38
0
LINE
8
back_outsideCutPath
10
3.598
20
5.38
11
3.706
21
5.38
0
LINE
8
back_outsideCutPath
10
3.706
20
5.38
11
3.706
21
5.311
0
LINE
8
back_outsideCutPath
10
3.706
20
5.311
11
3.882
21
5.311
0
LINE
8
back_outsideCutPath
10
3.882
20
5.311
11
3.882
21
5.75
0
LINE
8
back_outsideCutPath
10
3.882
20
5.75
11
4
21
5.75
0
LINE
8
back_outsideCutPath
10
4
20
5.75
11
4
21
6.75
0
LINE
8
back_outsideCutPath
10
4
20
6.75
11
3.882
21
6.75
0
LINE
8
back_outsideCutPath
10
3.882
20
6.75
11
3.882
21
7.189
0
LINE
8
back_outsideCutPath
10
3.882
20
7.189
11
3.706
21
7.189
0
LINE
8
back_outsideCutPath
10
3.706
20
7.189
11
3.706
21
7.12
0
LINE
8
back_outsideCutPath
10
3.706
20
7.12
11
3.598
21
7.12
0
LINE
8
back_outsideCutPath
10
3.598
20
7.12
11
3.598
21
7.189
0
LINE
8
back_outsideCutPath
10
3.598
20
7.189
11
3.49
21
7.189
0
LINE
8
back_outsideCutPath
10
3.49
20
7.189
11
3.49
21
7.311
0
LINE
8
back_outsideCutPath
10
3.49
20
7.311
11
3.598
21
7.311
0
LINE
8
back_outsideCutPath
10
3.598
20
7.311
11
3.598
21
7.38
0
LINE
8
back_outsideCutPath
10
3.598
20
7.38
11
3.706
21
7.38
0
LINE
8
back_outsideCutPath
10
3.706
20
7.38
11
3.706
21
7.311
0
LINE
8
back_outsideCutPath
10
3.706
20
7.311
11
3.882
21
7.311
0
LINE
8
back_outsideCutPath
10
3.882
20
7.311
11
3.882
21
7.75
0
LINE
8
back_outsideCutPath
10
3.882
20
7.75
11
4
21
7.75
0
LINE
8
back_outsideCutPath
10
4
20
7.75
11
4
21
8.25
0
LINE
8
back_outsideCutPath
10
4
20
8.25
11
3.5
21
8.25
0
LINE
8
back_outsideCutPath
10
3.5
20
8.25
11
3.5
21
8.132
0
LINE
8
back_outsideCutPath
10
3.5
20
8.132
11
3.061
21
8.132
0
LINE
8
back_outsideCutPath
10
3.061
20
8.132
11
3.061
21
7.956
0
LINE
8
back_outsideCutPath
10
3.061
20
7.956
11
3.13
21
7.956
0
LINE
8
back_outsideCutPath
10
3.13
20
7.956
11
3.13
21
7.848
0
LINE
8
back_outsideCutPath
10
3.13
20
7.848
11
3.061
21
7.848
0
LINE
8
back_outsideCutPath
10
3.061
20
7.848
11
3.061
21
7.74
0
LINE
8
back_outsideCutPath
10
3.061
20
7.74
11
2.939
21
7.74
0
LINE
8
back_outsideCutPath
10
2.939
20
7.74
11
2.939
21
7.848
0
LINE
8
back_outsideCutPath
10
2.939
20
7.848
11
2.87
21
7.848
0
LINE
8
back_outsideCutPath
10
2.87
20
7.848
11
2.87
21
7.956
0
LINE
8
back_outsideCutPath
10
2.87
20
7.956
11
2.939
21
7.956
0
LINE
8
back_outsideCutPath
10
2.939
20
7.956
11
2.939
21
8.132
0
LINE
8
back_outsideCutPath
10
2.939
20
8.132
11
2.5
21
8.132
0
LINE
8
back_outsideCutPath
10
2.5
20
8.132
11
2.5
21
8.25
0
LINE
8
back_outsideCutPath
10
2.5
20
8.25
11
1.5
21
8.25
0
LINE
8
back_outsideCutPath
10
1.5
20
8.25
11
1.5
21
8.132
0
LINE
8
back_outsideCutPath
10
1.5
20
8.132
11
1.061
21
8.132
0
LINE
8
back_outsideCutPath
10
1.061
20
8.132
11
1.061
21
7.956
0
LINE
8
back_outsideCutPath
10
1.061
20
7.956
11
1.13
21
7.956
0
LINE
8
back_outsideCutPath
10
1.13
20
7.956
11
1.13
21
7.848
0
LINE
8
back_outsideCutPath
10
1.13
20
7.848
11
1.061
21
7.848
0
LINE
8
back_outsideCutPath
10
1.061
20
7.848
11
1.061
21
7.74
0
LINE
8
back_outsideCutPath
10
1.061
20
7.74
11
0.939
21
7.74
0
LINE
8
back_outsideCutPath
10
0.939
20
7.74
11
0.939
21
7.848
0
LINE
8
back_outsideCutPath
10
0.939
20
7.848
11
0.87
21
7.848
0
LINE
8
back_outsideCutPath
10
0.87
20
7.848
11
0.87
21
7.956
0
LINE
8
back_outsideCutPath
10
0.87
20
7.956
11
0.939
21
7.956
0
LINE
8
back_outsideCutPath
10
0.939
20
7.956
11
0.939
21
8.132
0
LINE
8
back_outsideCutPath
10
0.939
20
8.132
11
0.5
21
8.132
0
LINE
8
back_outsideCutPath
10
0.5
20
8.132
11
0.5
21
8.25
0
LINE
8
back_outsideCutPath
10
0.5
20
8.25
11
0
21
8.25
0
LINE
8
right_outsideCutPath
10
4.243
20
8.25
11
4.243
21
7.75
0
LINE
8
right_outsideCutPath
10
4.243
20
7.75
11
4.125
21
7.75
0
LINE
8
right_outsideCutPath
10
4.125
20
7.75
11
4.125
21
7.311
0
LINE
8
right_outsideCutPath
10
4.125
20
7.311
11
4.247
21
7.311
0
LINE
8
right_outsideCutPath
10
4.247
20
7.311
11
4.247
21
7.25
0
LINE
8
right_outsideCutPath
10
4.247
20
7.25
11
4.247
21
7.25
0
LINE
8
right_outsideCutPath
10
4.247
20
7.25
11
4.247
21
7.189
0
LINE
8
right_outsideCutPath
10
4.247
20
7.189
11
4.125
21
7.189
0
LINE
8
right_outsideCutPath
10
4.125
20
7.189
11
4.125
21
6.75
0
LINE
8
right_outsideCutPath
10
4.125
20
6.75
11
4.243
21
6.75
0
LINE
8
right_outsideCutPath
10
4.243
20
6.75
11
4.243
21
5.75
0
LINE
8
right_outsideCutPath
10
4.243
20
5.75
11
4.125
21
5.75
0
LINE
8
right_outsideCutPath
10
4.125
20
5.75
11
4.125
21
5.311
0
LINE
8
right_outsideCutPath
10
4.125
20
5.311
11
4.247
21
5.311
0
LINE
8
right_outsideCutPath
10
4.247
20
5.311
11
4.247
21
5.25
0
LINE
8
right_outsideCutPath
10
4.247
20
5.25
11
4.247
21
5.25
0
LINE
8
right_outsideCutPath
10
4.247
20
5.25
11
4.247
21
5.189
0
LINE
8
right_outsideCutPath
10
4.247
20
5.189
11
4.125
21
5.189
0
LINE
8
right_outsideCutPath
10
4.125
20
5.189
11
4.125
21
4.75
0
LINE
8
right_outsideCutPath
10
4.125
20
4.75
11
4.243
21
4.75
0
LINE
8
right_outsideCutPath
10
4.243
20
4.75
11
4.243
21
4.25
0
LINE
8
right_outsideCutPath
10
4.243
20
4.25
11
4.625
21
4.25
0
LINE
8
right_outsideCutPath
10
4.625
20
4.25
11
4.625
21
4.368
0
LINE
8
right_outsideCutPath
10
4.625
20
4.368
11
5.064
21
4.368
0
LINE
8
right_outsideCutPath
10
5.064
20
4.368
11
5.064
21
4.544
0
LINE
8
right_outsideCutPath
10
5.064
20
4.544
11
4.995
21
4.544
0
LINE
8
right_outsideCutPath
10
4.995
20
4.544
11
4.995
21
4.652
0
LINE
8
right_outsideCutPath
10
4.995
20
4.652
11
5.064
21
4.652
0
LINE
8
right_outsideCutPath
10
5.064
20
4.652
11
5.064
21
4.76
0
LINE
8
right_outsideCutPath
10
5.064
20
4.76
11
5.186
21
4.76
0
LINE
8
right_outsideCutPath
10
5.186
20
4.76
11
5.186
21
4.652
0
LINE
8
right_outsideCutPath
10
5.186
20
4.652
11
5.255
21
4.652
0
LINE
8
right_outsideCutPath
10
5.255
20
4.652
11
5.255
21
4.544
0
LINE
8
right_outsideCutPath
10
5.255
20
4.544
11
5.186
21
4.544
0
LINE
8
right_outsideCutPath
10
5.186
20
4.544
11
5.186
21
4.368
0
LINE
8
right_outsideCutPath
10
5.186
20
4.368
11
5.625
21
4.368
0
LINE
8
right_outsideCutPath
10
5.625
20
4.368
11
5.625
21
4.25
0
LINE
8
right_outsideCutPath
10
5.625
20
4.25
11
6.625
21
4.25
0
LINE
8
right_outsideCutPath
10
6.625
20
4.25
11
6.625
21
4.368
0
LINE
8
right_outsideCutPath
10
6.625
20
4.368
11
7.064
21
4.368
0
LINE
8
right_outsideCutPath
10
7.064
20
4.368
11
7.064
21
4.544
0
LINE
8
right_outsideCutPath
10
7.064
20
4.544
11
6.995
21
4.544
0
LINE
8
right_outsideCutPath
10
6.995
20
4.544
11
6.995
21
4.652
0
LINE
8
right_outsideCutPath
10
6.995
20
4.652
11
7.064
21
4.652
0
LINE
8
right_outsideCutPath
10
7.064
20
4.652
11
7.064
21
4.76
0
LINE
8
right_outsideCutPath
10
7.064
20
4.76
11
7.186
21
4.76
0
LINE
8
right_outsideCutPath
10
7.186
20
4.76
11
7.186
21
4.652
0
LINE
8
right_outsideCutPath
10
7.186
20
4.652
11
7.255
21
4.652
0
LINE
8
right_outsideCutPath
10
7.255
20
4.652
11
7.255
21
4.544
0
LINE
8
right_outsideCutPath
10
7.255
20
4.544
11
7.186
21
4.544
0
LINE
8
right_outsideCutPath
10
7.186
20
4.544
11
7.186
21
4.368
0
LINE
8
right_outsideCutPath
10
7.186
20
4.368
11
7.625
21
4.368
0
LINE
8
right_outsideCutPath
10
7.625
20
4.368
11
7.625
21
4.25
0
LINE
8
right_outsideCutPath
10
7.625
20
4.25
11
8.007
21
4.25
0
LINE
8
right_outsideCutPath
10
8.007
20
4.25
11
8.007
21
4.75
0
LINE
8
right_outsideCutPath
10
8.007
20
4.75
11
8.125
21
4.75
0
LINE
8
right_outsideCutPath
10
8.125
20
4.75
11
8.125
21
5.189
0
LINE
8
right_outsideCutPath
10
8.125
20
5.189
11
8.003
21
5.189
0
LINE
8
right_outsideCutPath
10
8.003
20
5.189
11
8.003
21
5.25
0
LINE
8
right_outsideCutPath
10
8.003
20
5.25
11
8.003
21
5.25
0
LINE
8
right_outsideCutPath
10
8.003
20
5.25
11
8.003
21
5.311
0
LINE
8
right_outsideCutPath
10
8.003
20
5.311
11
8.125
21
5.311
0
LINE
8
right_outsideCutPath
10
8.125
20
5.311
11
8.125
21
5.75
0
LINE
8
right_outsideCutPath
10
8.125
20
5.75
11
8.007
21
5.75
0
LINE
8
right_outsideCutPath
10
8.007
20
5.75
11
8.007
21
6.75
0
LINE
8
right_outsideCutPath
10
8.007
20
6.75
11
8.125
21
6.75
0
LINE
8
right_outsideCutPath
10
8.125
20
6.75
11
8.125
21
7.189
0
LINE
8
right_outsideCutPath
10
8.125
20
7.189
11
8.003
21
7.189
0
LINE
8
right_outsideCutPath
10
8.003
20
7.189
11
8.003
21
7.25
0
LINE
8
right_outsideCutPath
10
8.003
20
7.25
11
8.003
21
7.25
0
LINE
8
right_outsideCutPath
10
8.003
20
7.25
11
8.003
21
7.311
0
LINE
8
right_outsideCutPath
10
8.003
20
7.311
11
8.125
21
7.311
0
LINE
8
right_outsideCutPath
10
8.125
20
7.311
11
8.125
21
7.75
0
LINE
8
right_outsideCutPath
10
8.125
20
7.75
11
8.007
21
7.75
0
LINE
8
right_outsideCutPath
10
8.007
20
7.75
11
8.007
21
8.25
0
LINE
8
right_outsideCutPath
10
8.007
20
8.25
11
7.625
21
8.25
0
LINE
8
right_outsideCutPath
10
7.625
20
8.25
11
7.625
21
8.132
0
LINE
8
right_outsideCutPath
10
7.625
20
8.132
11
7.186
21
8.132
0
LINE
8
right_outsideCutPath
10
7.186
20
8.132
11
7.186
21
7.956
0
LINE
8
right_outsideCutPath
10
7.186
20
7.956
11
7.255
21
7.956
0
LINE
8
right_outsideCutPath
10
7.255
20
7.956
11
7.255
21
7.848
0
LINE
8
right_outsideCutPath
10
7.255
20
7.848
11
7.186
21
7.848
0
LINE
8
right_outsideCutPath
10
7.186
20
7.848
11
7.186
21
7.74
0
LINE
8
right_outsideCutPath
10
7.186
20
7.74
11
7.064
21
7.74
0
LINE
8
right_outsideCutPath
10
7.064
20
7.74
11
7.064
21
7.848
0
LINE
8
right_outsideCutPath
10
7.064
20
7.848
11
6.995
21
7.848
0
LINE
8
right_outsideCutPath
10
6.995
20
7.848
11
6.995
21
7.956
0
LINE
8
right_outsideCutPath
10
6.995
20
7.956
11
7.064
21
7.956
0
LINE
8
right_outsideCutPath
10
7.064
20
7.956
11
7.064
21
8.132
0
LINE
8
right_outsideCutPath
10
7.064
20
8.132
11
6.625
21
8.132
0
LINE
8
right_outsideCutPath
10
6.625
20
8.132
11
6.625
21
8.25
0
LINE
8
right_outsideCutPath
10
6.625
20
8.25
11
5.625
21
8.25
0
LINE
8
right_outsideCutPath
10
5.625
20
8.25
11
5.625
21
8.132
0
LINE
8
right_outsideCutPath
10
5.625
20
8.132
11
5.186
21
8.132
0
LINE
8
right_outsideCutPath
10
5.186
20
8.132
11
5.186
21
7.956
0
LINE
8
right_outsideCutPath
10
5.186
20
7.956
11
5.255
21
7.956
0
LINE
8
right_outsideCutPath
10
5.255
20
7.956
11
5.255
21
7.848
0
LINE
8
right_outsideCutPath
10
5.255
20
7.848
11
5.186
21
7.848
0
LINE
8
right_outsideCutPath
10
5.186
20
7.848
11
5.186
21
7.74
0
LINE
8
right_outsideCutPath
10
5.186
20
7.74
11
5.064
21
7.74
0
LINE
8
right_outsideCutPath
10
5.064
20
7.74
11
5.064
21
7.848
0
LINE
8
right_outsideCutPath
10
5.064
20
7.848
11
4.995
21
7.848
0
LINE
8
right_outsideCutPath
10
4.995
20
7.848
11
4.995
21
7.956
0
LINE
8
right_outsideCutPath
10
4.995
20
7.956
11
5.064
21
7.956
0
LINE
8
right_outsideCutPath
10
5.064
20
7.956
11
5.064
21
8.132
0
LINE
8
right_outsideCutPath
10
5.064
20
8.132
11
4.625
21
8.132
0
LINE
8
right_outsideCutPath
10
4.625
20
8.132
11
4.625
21
8.25
0
LINE
8
right_outsideCutPath
10
4.625
20
8.25
11
4.243
21
8.25
0
LINE
8
bottom_outsideCutPath
10
8.368
20
8.132
11
8.368
21
7.75
0
LINE
8
bottom_outsideCutPath
10
8.368
20
7.75
11
8.25
21
7.75
0
LINE
8
bottom_outsideCutPath
10
8.25
20
7.75
11
8.25
21
7.311
0
LINE
8
bottom_outsideCutPath
10
8.25
20
7.311
11
8.372
21
7.311
0
LINE
8
bottom_outsideCutPath
10
8.372
20
7.311
11
8.372
21
7.25
0
LINE
8
bottom_outsideCutPath
10
8.372
20
7.25
11
8.372
21
7.25
0
LINE
8
bottom_outsideCutPath
10
8.372
20
7.25
11
8.372
21
7.189
0
LINE
8
bottom_outsideCutPath
10
8.372
20
7.189
11
8.25
21
7.189
0
LINE
8
bottom_outsideCutPath
10
8.25
20
7.189
11
8.25
21
6.75
0
LINE
8
bottom_outsideCutPath
10
8.25
20
6.75
11
8.368
21
6.75
0
LINE
8
bottom_outsideCutPath
10
8.368
20
6.75
11
8.368
21
5.75
0
LINE
8
bottom_outsideCutPath
10
8.368
20
5.75
11
8.25
21
5.75
0
LINE
8
bottom_outsideCutPath
10
8.25
20
5.75
11
8.25
21
5.311
0
LINE
8
bottom_outsideCutPath
10
8.25
20
5.311
11
8.372
21
5.311
0
LINE
8
bottom_outsideCutPath
10
8.372
20
5.311
11
8.372
21
5.25
0
LINE
8
bottom_outsideCutPath
10
8.372
20
5.25
11
8.372
21
5.25
0
LINE
8
bottom_outsideCutPath
10
8.372
20
5.25
11
8.372
21
5.189
0
LINE
8
bottom_outsideCutPath
10
8.372
20
5.189
11
8.25
21
5.189
0
LINE
8
bottom_outsideCutPath
10
8.25
20
5.189
11
8.25
21
4.75
0
LINE
8
bottom_outsideCutPath
10
8.25
20
4.75
11
8.368
21
4.75
0
LINE
8
bottom_outsideCutPath
10
8.368
20
4.75
11
8.368
21
4.368
0
LINE
8
bottom_outsideCutPath
10
8.368
20
4.368
11
8.75
21
4.368
0
LINE
8
bottom_outsideCutPath
10
8.75
20
4.368
11
8.75
21
4.25
0
LINE
8
bottom_outsideCutPath
10
8.75
20
4.25
11
9.189
21
4.25
0
LINE
8
bottom_outsideCutPath
10
9.189
20
4.25
11
9.189
21
4.372
0
LINE
8
bottom_outsideCutPath
10
9.189
20
4.372
11
9.25
21
4.372
0
LINE
8
bottom_outsideCutPath
10
9.25
20
4.372
11
9.25
21
4.372
0
LINE
8
bottom_outsideCutPath
10
9.25
20
4.372
11
9.311
21
4.372
0
LINE
8
bottom_outsideCutPath
10
9.311
20
4.372
11
9.311
21
4.25
0
LINE
8
bottom_outsideCutPath
10
9.311
20
4.25
11
9.75
21
4.25
0
LINE
8
bottom_outsideCutPath
10
9.75
20
4.25
11
9.75
21
4.368
0
LINE
8
bottom_outsideCutPath
10
9.75
20
4.368
11
10.75
21
4.368
0
LINE
8
bottom_outsideCutPath
10
10.75
20
4.368
11
10.75
21
4.25
0
LINE
8
bottom_outsideCutPath
10
10.75
20
4.25
11
11.189
21
4.25
0
LINE
8
bottom_outsideCutPath
10
11.189
20
4.25
11
11.189
21
4.372
0
LINE
8
bottom_outsideCutPath
10
11.189
20
4.372
11
11.25
21
4.372
0
LINE
8
bottom_outsideCutPath
10
11.25
20
4.372
11
11.25
21
4.372
0
LINE
8
bottom_outsideCutPath
10
11.25
20
4.372
11
11.311
21
4.372
0
LINE
8
bottom_outsideCutPath
10
11.311
20
4.372
11
11.311
21
4.25
0
LINE
8
bottom_outsideCutPath
10
11.311
20
4.25
11
11.75
21
4.25
0
LINE
8
bottom_outsideCutPath
10
11.75
20
4.25
11
11.75
21
4.368
0
LINE
8
bottom_outsideCutPath
10
11.75
20
4.368
11
12.132
21
4.368
0
LINE
8
bottom_outsideCutPath
10
12.132
20
4.368
11
12.132
21
4.75
0
LINE
8
bottom_outsideCutPath
10
12.132
20
4.75
11
12.25
21
4.75
0
LINE
8
bottom_outsideCutPath
10
12.25
20
4.75
11
12.25
21
5.189
0
LINE
8
bottom_outsideCutPath
10
12.25
20
5.189
11
12.128
21
5.189
0
LINE
8
bottom_outsideCutPath
10
12.128
20
5.189
11
12.128
21
5.25
0
LINE
8
bottom_outsideCutPath
10
12.128
20
5.25
11
12.128
21
5.25
0
LINE
8
bottom_outsideCutPath
10
12.128
20
5.25
11
12.128
21
5.311
0
LINE
8
bottom_outsideCutPath
10
12.128
20
5.311
11
12.25
21
5.311
0
LINE
8
bottom_outsideCutPath
10
12.25
20
5.311
11
12.25
21
5.75
0
LINE
8
bottom_outsideCutPath
10
12.25
20
5.75
11
12.132
21
5.75
0
LINE
8
bottom_outsideCutPath
10
12.132
20
5.75
11
12.132
21
6.75
0
LINE
8
bottom_outsideCutPath
10
12.132
20
6.75
11
12.25
21
6.75
0
LINE
8
bottom_outsideCutPath
10
12.25
20
6.75
11
12.25
21
7.189
0
LINE
8
bottom_outsideCutPath
10
12.25
20
7.189
11
12.128
21
7.189
0
LINE
8
bottom_outsideCutPath
10
12.128
20
7.189
11
12.128
21
7.25
0
LINE
8
bottom_outsideCutPath
10
12.128
20
7.25
11
12.128
21
7.25
0
LINE
8
bottom_outsideCutPath
10
12.128
20
7.25
11
12.128
21
7.311
0
LINE
8
bottom_outsideCutPath
10
12.128
20
7.311
11
12.25
21
7.311
0
LINE
8
bottom_outsideCutPath
10
12.25
20
7.311
11
12.25
21
7.75
0
LINE
8
bottom_outsideCutPath
10
12.25
20
7.75
11
12.132
21
7.75
0
LINE
8
bottom_outsideCutPath
10
12.132
20
7.75
11
12.132
21
8.132
0
LINE
8
bottom_outsideCutPath
10
12.132
20
8.132
11
11.75
21
8.132
0
LINE
8
bottom_outsideCutPath
10
11.75
20
8.132
11
11.75
21
8.25
0
LINE
8
bottom_outsideCutPath
10
11.75
20
8.25
11
11.311
21
8.25
0
LINE
8
bottom_outsideCutPath
10
11.311
20
8.25
11
11.311
21
8.128
0
LINE
8
bottom_outsideCutPath
10
11.311
20
8.128
11
11.25
21
8.128
0
LINE
8
bottom_outsideCutPath
10
11.25
20
8.128
11
11.25
21
8.128
0
LINE
8
bottom_outsideCutPath
10
11.25
20
8.128
11
11.189
21
8.128
0
LINE
8
bottom_outsideCutPath
10
11.189
20
8.128
11
11.189
21
8.25
0
LINE
8
bottom_outsideCutPath
10
11.189
20
8.25
11
10.75
21
8.25
0
LINE
8
bottom_outsideCutPath
10
10.75
20
8.25
11
10.75
21
8.132
0
LINE
8
bottom_outsideCutPath
10
10.75
20
8.132
11
9.75
21
8.132
0
LINE
8
bottom_outsideCutPath
10
9.75
20
8.132
11
9.75
21
8.25
0
LINE
8
bottom_outsideCutPath
10
9.75
20
8.25
11
9.311
21
8.25
0
LINE
8
bottom_outsideCutPath
10
9.311
20
8.25
11
9.311
21
8.128
0
LINE
8
bottom_outsideCutPath
10
9.311
20
8.128
11
9.25
21
8.128
0
LINE
8
bottom_outsideCutPath
10
9.25
20
8.128
11
9.25
21
8.128
0
LINE
8
bottom_outsideCutPath
10
9.25
20
8.128
11
9.189
21
8.128
0
LINE
8
bottom_outsideCutPath
10
9.189
20
8.128
11
9.189
21
8.25
0
LINE
8
bottom_outsideCutPath
10
9.189
20
8.25
11
8.75
21
8.25
0
LINE
8
bottom_outsideCutPath
10
8.75
20
8.25
11
8.75
21
8.132
0
LINE
8
bottom_outsideCutPath
10
8.75
20
8.132
11
8.368
21
8.132
0
ENDSEC
0
EOF