0
SECTION
2
HEADER
9
$INSUNITS
70
4
9
$ACADVER
1
AC1014
9
$HANDSEED
5
FFFF
0
ENDSEC
0
SECTION
2
TABLES
0
TABLE
2
VPORT
5
8
100
AcDbSymbolTable
0
ENDTAB
0
TABLE
2
LTYPE
5
5
100
AcDbSymbolTable
0
LTYPE
5
14
100
AcDbSymbolTableRecord
100
AcDbLinetypeTableRecord
2
BYBLOCK
70
0
0
LTYPE
5
15
100
AcDbSymbolTableRecord
100
AcDbLinetypeTableRecord
2
BYLAYER
70
0
0
ENDTAB
0
TABLE
2
LAYER
5
2
100
AcDbSymbolTable
70
2
0
LAYER
5
50
100
AcDbSymbolTableRecord
100
AcDbLayerTableRecord
2
0
70
0
6
CONTINUOUS
0
ENDTAB
0
TABLE
2
STYLE
5
3
100
AcDbSymbolTable
70
1
0
STYLE
5
11
100
AcDbSymbolTableRecord
100
AcDbTextStyleTableRecord
2
STANDARD
70
0
0
ENDTAB
0
TABLE
2
VIEW
5
6
100
AcDbSymbolTable
70
0
0
ENDTAB
0
TABLE
2
UCS
5
7
100
AcDbSymbolTable
70
0
0
ENDTAB
0
TABLE
2
APPID
5
9
100
AcDbSymbolTable
70
2
0
APPID
5
12
100
AcDbSymbolTableRecord
100
AcDbRegAppTableRecord
2
ACAD
70
0
0
ENDTAB
0
TABLE
2
DIMSTYLE
5
A
100
AcDbSymbolTable
70
1
0
ENDTAB
0
TABLE
2
BLOCK_RECORD
5
1
100
AcDbSymbolTable
70
1
0
BLOCK_RECORD
5
1F
100
AcDbSymbolTableRecord
100
AcDbBlockTableRecord
2
*MODEL_SPACE
0
BLOCK_RECORD
5
1B
100
AcDbSymbolTableRecord
100
AcDbBlockTableRecord
2
*PAPER_SPACE
0
ENDTAB
0
ENDSEC
0
SECTION
2
BLOCKS
0
BLOCK
5
20
100
AcDbEntity
100
AcDbBlockBegin
2
*MODEL_SPACE
0
ENDBLK
5
21
100
AcDbEntity
100
AcDbBlockEnd
0
BLOCK
5
1C
100
AcDbEntity
100
AcDbBlockBegin
2
*PAPER_SPACE
0
ENDBLK
5
1D
100
AcDbEntity
100
AcDbBlockEnd
0
ENDSEC
0
SECTION
2
ENTITIES
0
LWPOLYLINE
5
100
100
AcDbEntity
8
0
100
AcDbPolyline
90
28
70
1
43
0.0
10
24.6875
20
142
10
24.6875
20
139
10
0
20
139
10
0
20
162.1875
10
3.0000000000000004
20
162.1875
10
3.0000000000000004
20
191.0625
10
0
20
191.0625
10
0
20
219.93750000000003
10
3.0000000000000004
20
219.93750000000003
10
3.0000000000000004
20
248.8125
10
0
20
248.8125
10
0
20
272
10
136
20
272
10
136
20
248.8125
10
133
20
248.8125
10
133
20
219.93750000000003
10
136
20
219.93750000000003
10
136
20
191.0625
10
133
20
191.0625
10
133
20
162.1875
10
136
20
162.1875
10
136
20
139
10
111.31250000000001
20
139
10
111.31250000000001
20
142
10
82.4375
20
142
10
82.4375
20
139
10
53.5625
20
139
10
53.5625
20
142
0
LWPOLYLINE
5
101
100
AcDbEntity
8
0
100
AcDbPolyline
90
28
70
1
43
0.0
10
142
20
272
10
272
20
272
10
272
20
248.8125
10
275
20
248.8125
10
275
20
219.93750000000003
10
272
20
219.93750000000003
10
272
20
191.0625
10
275
20
191.0625
10
275
20
162.1875
10
272
20
162.1875
10
272
20
139
10
250.3125
20
139
10
250.3125
20
142
10
221.4375
20
142
10
221.4375
20
139
10
192.5625
20
139
10
192.5625
20
142
10
163.68750000000003
20
142
10
163.68750000000003
20
139
10
142
20
139
10
142
20
162.1875
10
139
20
162.1875
10
139
20
191.0625
10
142
20
191.0625
10
142
20
219.93750000000003
10
139
20
219.93750000000003
10
139
20
248.8125
10
142
20
248.8125
0
LWPOLYLINE
5
102
100
AcDbEntity
8
0
100
AcDbPolyline
90
28
70
1
43
0.0
10
53.5625
20
3.0000000000000004
10
53.5625
20
6.0000000000000009
10
24.6875
20
6.0000000000000009
10
24.6875
20
3.0000000000000004
10
0
20
2.9999999999999982
10
0
20
26.187500000000004
10
3.0000000000000004
20
26.187500000000004
10
3.0000000000000004
20
55.062500000000007
10
0
20
55.062500000000007
10
0
20
83.9375
10
3.0000000000000004
20
83.9375
10
3.0000000000000004
20
112.8125
10
0
20
112.8125
10
0
20
136
10
136
20
136
10
136
20
112.8125
10
133
20
112.8125
10
133
20
83.9375
10
136
20
83.9375
10
136
20
55.062500000000007
10
133
20
55.062500000000007
10
133
20
26.187500000000004
10
136
20
26.187500000000004
10
136
20
3.0000000000000004
10
111.31250000000001
20
3.0000000000000004
10
111.31250000000001
20
6.0000000000000009
10
82.4375
20
6.0000000000000009
10
82.4375
20
3.0000000000000004
0
LWPOLYLINE
5
103
100
AcDbEntity
8
0
100
AcDbPolyline
90
28
70
1
43
0.0
10
250.3125
20
6.0000000000000009
10
221.4375
20
6.0000000000000009
10
221.4375
20
3.0000000000000004
10
192.5625
20
3.0000000000000004
10
192.5625
20
6.0000000000000009
10
163.68750000000003
20
6.0000000000000009
10
163.68750000000003
20
3.0000000000000004
10
142
20
2.9999999999999982
10
142
20
26.187500000000004
10
139
20
26.187500000000004
10
139
20
55.062500000000007
10
142
20
55.062500000000007
10
142
20
83.9375
10
139
20
83.9375
10
139
20
112.8125
10
142
20
112.8125
10
142
20
136
10
272
20
136
10
272
20
112.8125
10
275
20
112.8125
10
275
20
83.9375
10
272
20
83.9375
10
272
20
55.062500000000007
10
275
20
55.062500000000007
10
275
20
26.187500000000004
10
272
20
26.187500000000004
10
272
20
3.0000000000000004
10
250.3125
20
3.0000000000000004
0
LWPOLYLINE
5
104
100
AcDbEntity
8
0
100
AcDbPolyline
90
36
70
1
43
0.0
10
411
20
136
10
411
20
114.3125
10
414.00000000000006
20
114.3125
10
414.00000000000006
20
85.437500000000014
10
411
20
85.437500000000014
10
411
20
56.5625
10
414.00000000000006
20
56.5625
10
414.00000000000006
20
27.687500000000004
10
411
20
27.687500000000004
10
411
20
6.0000000000000009
10
389.31250000000006
20
6.0000000000000009
10
389.31250000000006
20
3.0000000000000004
10
360.4375
20
3.0000000000000004
10
360.4375
20
6.0000000000000009
10
331.5625
20
6.0000000000000009
10
331.5625
20
3.0000000000000004
10
302.6875
20
3.0000000000000004
10
302.6875
20
6.0000000000000009
10
281
20
6.0000000000000009
10
281
20
27.687500000000004
10
278
20
27.687500000000004
10
278
20
56.5625
10
281
20
56.5625
10
281
20
85.437500000000014
10
278
20
85.437500000000014
10
278
20
114.3125
10
281
20
114.3125
10
281
20
136
10
302.6875
20
136
10
302.6875
20
139
10
331.5625
20
139
10
331.5625
20
136
10
360.4375
20
136
10
360.4375
20
139
10
389.31250000000006
20
139
10
389.31250000000006
20
136
0
LWPOLYLINE
5
105
100
AcDbEntity
8
0
100
AcDbPolyline
90
4
70
1
43
0.0
10
385
20
165
10
391.5
20
165
10
391.5
20
155
10
385
20
155
0
LWPOLYLINE
5
106
100
AcDbEntity
8
0
100
AcDbPolyline
90
4
70
1
43
0.0
10
414.00000414252281
20
142.00000211596475
10
414.00000414252293
20
177.00000211596475
10
278.00000414252287
20
177.00000211596489
10
278.00000414252281
20
142.00000211596489
0
LWPOLYLINE
5
107
100
AcDbEntity
8
0
100
AcDbPolyline
90
4
70
1
43
0.0
10
288.87226223315957
20
147.74118036399022
10
288.87226223315957
20
173.24118036399025
10
364.87226223315957
20
173.24118036399025
10
364.87226223315957
20
147.74118036399022
0
LWPOLYLINE
5
108
100
AcDbEntity
8
0
100
AcDbPolyline
90
4
70
1
43
0.0
10
412.94704939288908
20
263.3808004770296
10
412.94704939288908
20
223.3808004770296
10
276.94704939288903
20
223.3808004770296
10
276.94704939288903
20
263.3808004770296
0
LWPOLYLINE
5
109
100
AcDbEntity
8
0
100
AcDbPolyline
90
4
70
1
43
0.0
10
413.32455675679296
20
220.28341741995914
10
413.32455675679296
20
180.28341741995914
10
277.32455675679296
20
180.28341741995914
10
277.32455675679296
20
220.28341741995914
0
ENDSEC
0
SECTION
2
OBJECTS
0
DICTIONARY
5
C
100
AcDbDictionary
3
ACAD_GROUP
350
D
3
ACAD_MLINESTYLE
350
17
0
DICTIONARY
5
D
100
AcDbDictionary
0
DICTIONARY
5
1A
330
C
100
AcDbDictionary
0
DICTIONARY
5
17
100
AcDbDictionary
0
ENDSEC
0
EOF
